<?xml version="1.0" encoding="UTF-8"?>
<svg version="1.1" xmlns="http://www.w3.org/2000/svg" width="1024" height="1024">
<path d="M0 0 C0.95731522 -0.00315216 1.91463043 -0.00630432 2.9009552 -0.009552 C3.91679184 -0.00752777 4.93262848 -0.00550354 5.97924805 -0.00341797 C7.03379684 -0.00437469 8.08834564 -0.00533142 9.17485046 -0.00631714 C11.39456238 -0.00699564 13.61427631 -0.00516439 15.83398438 -0.00097656 C19.24638255 0.00440307 22.65865069 -0.00094637 26.07104492 -0.00732422 C28.22794626 -0.0066639 30.38484751 -0.00538371 32.54174805 -0.00341797 C34.08068474 -0.00645432 34.08068474 -0.00645432 35.65071106 -0.009552 C36.59226547 -0.00639984 37.53381989 -0.00324768 38.50390625 0 C39.33630325 0.00079559 40.16870026 0.00159119 41.02632141 0.00241089 C42.9284668 0.12939453 42.9284668 0.12939453 43.9284668 1.12939453 C44.02634589 3.88577968 44.05839912 6.61710292 44.04872131 9.37391663 C44.04957574 10.24865126 44.05043016 11.12338589 44.05131048 12.02462763 C44.05296797 14.97892246 44.04743953 17.9331615 44.04199219 20.88745117 C44.04171035 22.99594623 44.04186799 25.1044414 44.04243469 27.2129364 C44.04272279 32.95650419 44.03682406 38.70005129 44.02986073 44.44361424 C44.02362926 50.43876241 44.02302356 56.43391099 44.02183533 62.42906189 C44.0187214 73.7904755 44.01050719 85.15187953 44.00048584 96.51328892 C43.9893266 109.44414099 43.98381473 122.37499351 43.9787904 135.30584919 C43.96832462 161.91370417 43.94997838 188.52154603 43.9284668 215.12939453 C25.7784668 215.12939453 7.6284668 215.12939453 -11.0715332 215.12939453 C-11.0715332 144.50939453 -11.0715332 73.88939453 -11.0715332 1.12939453 C-7.08431438 0.46485806 -3.9255308 0.00373412 0 0 Z " fill="#000000" transform="translate(690.071533203125,143.87060546875)"/>
<path d="M0 0 C4.95 0 9.9 0 15 0 C15 4.95 15 9.9 15 15 C10.05 15 5.1 15 0 15 C0 10.05 0 5.1 0 0 Z " fill="#000000" transform="translate(793,170)"/>
<path d="M0 0 C1.33751816 -0.00009064 1.33751816 -0.00009064 2.70205688 -0.00018311 C15.43376758 0.01213232 27.94608307 0.34365929 40.5625 2.1875 C41.89430601 2.35853397 43.22633569 2.52783614 44.55859375 2.6953125 C53.24898817 3.87398817 53.24898817 3.87398817 55.5625 6.1875 C54.979879 6.18083817 54.397258 6.17417633 53.79698181 6.16731262 C-32.51426623 5.22666046 -116.32900114 19.50935291 -185.4375 75.1875 C-186.38753906 75.93257813 -187.33757812 76.67765625 -188.31640625 77.4453125 C-196.05811791 83.7234672 -203.12677719 90.66546415 -210.1875 97.6875 C-210.67732361 98.17205658 -211.16714722 98.65661316 -211.67181396 99.15585327 C-218.38887509 105.81704444 -224.57978267 112.75553051 -230.4375 120.1875 C-230.91364746 120.77869629 -231.38979492 121.36989258 -231.88037109 121.97900391 C-267.55763681 166.32551176 -290.76515007 220.54309725 -296.4375 277.1875 C-296.56898438 278.49332031 -296.70046875 279.79914063 -296.8359375 281.14453125 C-299.17675506 305.9363598 -299.17675506 305.9363598 -295.4375 330.1875 C-295.28336124 333.06188548 -295.18002715 335.91648986 -295.12109375 338.79296875 C-295.10031265 339.63217361 -295.07953156 340.47137848 -295.05812073 341.33601379 C-294.99275982 344.01559294 -294.93380286 346.69526969 -294.875 349.375 C-294.83180198 351.19206737 -294.78818727 353.00912488 -294.74414062 354.82617188 C-294.6370922 359.27984799 -294.53578681 363.73362226 -294.4375 368.1875 C-291.1375 368.5175 -287.8375 368.8475 -284.4375 369.1875 C-284.1075 372.1575 -283.7775 375.1275 -283.4375 378.1875 C-276.5075 378.5175 -269.5775 378.8475 -262.4375 379.1875 C-261.591875 381.848125 -260.74625 384.50875 -259.875 387.25 C-255.83070741 399.57829764 -250.66523154 411.36327704 -243.4375 422.1875 C-242.839375 423.08339844 -242.24125 423.97929688 -241.625 424.90234375 C-231.65437853 438.97073957 -219.00666915 450.99730054 -204.4375 460.1875 C-203.78700684 460.60193359 -203.13651367 461.01636719 -202.46630859 461.44335938 C-132.77126408 505.37034333 -42.75345051 502.18183607 36.5625 503.1875 C36.83578125 502.58164062 37.1090625 501.97578125 37.390625 501.3515625 C39.62179972 497.23132652 43.22554731 494.85597634 47.3125 492.8125 C53.17180408 491.68571075 59.02348984 492.08239972 64.375 494.875 C69.63968874 498.69448006 73.15189044 502.64740115 74.5625 509.1875 C75.60150362 516.47456589 73.76940621 522.17613526 69.5625 528.1875 C64.07049271 533.43915686 58.77217876 534.54071462 51.421875 534.47265625 C45.97258962 533.92921659 42.16585612 531.5503527 38.0625 528.0625 C36.5625 526.1875 36.5625 526.1875 36.5625 524.1875 C31.22759178 524.25704901 25.89341791 524.34532825 20.55908203 524.44995117 C18.74959558 524.48292404 16.9400131 524.51103911 15.13037109 524.53393555 C-3.30739302 524.5188426 -3.30739302 524.5188426 -20.125 531.3125 C-20.93324219 531.83070313 -21.74148438 532.34890625 -22.57421875 532.8828125 C-25.42615266 535.00516859 -25.42615266 535.00516859 -27.20727539 537.41674805 C-30.52729739 541.41329689 -32.85647711 543.8704656 -38.06567383 544.91503906 C-42.22188534 545.18043597 -46.34671408 544.97612914 -50.5 544.75 C-51.95234887 544.70477114 -53.40483419 544.66372129 -54.85742188 544.62695312 C-58.38698882 544.52861465 -61.91135417 544.37382421 -65.4375 544.1875 C-66.0975 542.2075 -66.7575 540.2275 -67.4375 538.1875 C-81.4053392 537.40840788 -95.3126408 537.04826299 -109.30078125 537.08984375 C-111.1989081 537.09171641 -113.09703545 537.09313629 -114.99516296 537.09413147 C-119.91205254 537.09789001 -124.82891101 537.1076605 -129.74578857 537.11883545 C-134.79471415 537.12919569 -139.84364491 537.13365989 -144.89257812 537.13867188 C-154.74089884 537.14929113 -164.5891968 537.16628381 -174.4375 537.1875 C-174.4375 538.5075 -174.4375 539.8275 -174.4375 541.1875 C-173.14932877 541.18527939 -171.86115753 541.18305878 -170.53395081 541.18077087 C-158.42287543 541.16054181 -146.31180347 541.145529 -134.20071507 541.13568783 C-127.97356528 541.1304584 -121.74642908 541.12335967 -115.51928711 541.11206055 C-109.51523135 541.10123379 -103.51118871 541.09522362 -97.50712395 541.09262276 C-95.2108839 541.09076812 -92.91464461 541.08714679 -90.61841011 541.08176994 C-87.41429186 541.07456232 -84.2102285 541.07350894 -81.00610352 541.07397461 C-80.04657272 541.07037933 -79.08704193 541.06678406 -78.09843445 541.06307983 C-77.23040192 541.0644545 -76.36236938 541.06582916 -75.46803284 541.06724548 C-74.70939721 541.06632369 -73.95076159 541.0654019 -73.169137 541.06445217 C-71.4375 541.1875 -71.4375 541.1875 -70.4375 542.1875 C-70.4375 544.1675 -70.4375 546.1475 -70.4375 548.1875 C-51.2975 548.1875 -32.1575 548.1875 -12.4375 548.1875 C-12.4375 546.8675 -12.4375 545.5475 -12.4375 544.1875 C-9.1375 543.8575 -5.8375 543.5275 -2.4375 543.1875 C-1.7775 544.5075 -1.1175 545.8275 -0.4375 547.1875 C38.6675 547.6825 38.6675 547.6825 78.5625 548.1875 C79.2225 546.5375 79.8825 544.8875 80.5625 543.1875 C85.35781685 537.69629284 91.2490637 534.55565959 98.5 533.75 C104.15206288 534.02278296 108.49127434 536.20172766 112.55078125 540.09375 C117.70928522 545.81830099 120.0733149 549.79916957 119.8671875 557.59765625 C119.00376955 564.93670881 114.94633843 569.22107952 109.46484375 573.83984375 C104.54499554 577.32515716 98.314554 576.82344137 92.5625 576.1875 C88.03227689 574.55553622 84.55183768 572.5180929 81.66079712 568.62983704 C76.99463216 564.95157538 72.74041592 565.48315202 66.95458984 565.52807617 C65.77186996 565.5175953 64.58915009 565.50711443 63.37059021 565.49631596 C60.10760703 565.47239274 56.8454989 565.47069209 53.58246565 565.47861385 C50.09912368 565.48175186 46.61597897 565.45643445 43.13272095 565.43450928 C36.39644149 565.3965472 29.66036376 565.38470871 22.92398798 565.38177168 C15.17836447 565.37724605 7.43293434 565.34487452 -0.31260729 565.31103432 C-17.22349708 565.23832872 -34.13431459 565.20958325 -51.0453403 565.19402546 C-58.29292939 565.18720285 -65.54050469 565.17475955 -72.78808594 565.16210938 C-98.0046753 565.12033654 -123.22095864 565.12068295 -148.4375 565.1875 C-148.7675 566.8375 -149.0975 568.4875 -149.4375 570.1875 C-96.3075 570.1875 -43.1775 570.1875 11.5625 570.1875 C16.5625 580.1875 16.5625 580.1875 18.5625 584.5625 C20.62657001 588.71581161 23.4135363 591.11301815 27.5625 593.1875 C90.15644235 596.63182275 161.3783622 570.69227232 209.03417969 530.47607422 C210.57488385 529.17705879 212.13296418 527.90176917 213.6953125 526.62890625 C220.15578458 521.31758108 226.32852199 515.71049445 232.4375 510 C233.13915283 509.34684814 233.84080566 508.69369629 234.5637207 508.02075195 C239.19893237 503.64455223 243.45534647 499.06044515 247.5625 494.1875 C248.08634277 493.56979736 248.61018555 492.95209473 249.14990234 492.31567383 C257.24949235 482.68452035 264.73988907 472.76266753 271.5625 462.1875 C272.03510254 461.45644043 272.50770508 460.72538086 272.99462891 459.97216797 C300.72135062 416.58146858 316.06068834 367.57086246 318.5625 316.1875 C318.60777832 315.34977051 318.65305664 314.51204102 318.69970703 313.64892578 C319.81415017 290.18033869 315.86738975 266.08305957 310.7109375 243.25390625 C310.52853516 242.40900635 310.34613281 241.56410645 310.15820312 240.69360352 C309.59292655 238.16238572 309.59292655 238.16238572 308.73242188 235.64819336 C307.62109555 231.8600807 307.00328291 229.40852612 308.68701172 225.73217773 C310.42706006 223.21050476 312.29274711 220.92805793 314.3125 218.625 C314.9725 217.81998047 315.6325 217.01496094 316.3125 216.18554688 C321.10193452 210.41778274 321.10193452 210.41778274 323.5625 209.1875 C334.72517998 242.3154535 340.79672398 276.22096886 340.75 311.1875 C340.74959213 312.34052612 340.74959213 312.34052612 340.74917603 313.5168457 C340.72918539 325.84386989 340.21668771 337.95963945 338.5625 350.1875 C338.42569824 351.30342529 338.42569824 351.30342529 338.28613281 352.44189453 C331.26744187 409.17015623 305.92321189 462.74384571 270.5625 507.1875 C270.10713867 507.76000488 269.65177734 508.33250977 269.18261719 508.92236328 C261.69825348 518.19162308 253.32852953 526.62393011 244.9375 535.0625 C244.14395615 535.86408035 244.14395615 535.86408035 243.3343811 536.68185425 C236.41684122 543.65246064 229.31044525 550.12887588 221.5625 556.1875 C220.89025391 556.71907715 220.21800781 557.2506543 219.52539062 557.79833984 C198.52007758 574.24579077 175.6087528 587.71353486 151.5625 599.1875 C150.90443359 599.50396484 150.24636719 599.82042969 149.56835938 600.14648438 C65.16934267 640.34814161 -40.9679406 647.65126745 -129.4375 617.1875 C-130.08879883 616.96658691 -130.74009766 616.74567383 -131.41113281 616.51806641 C-150.65319428 609.91867908 -169.30292304 601.14734577 -186.4375 590.1875 C-187.18225586 589.7116748 -187.92701172 589.23584961 -188.69433594 588.74560547 C-201.92110171 580.23000847 -214.41245301 571.21266993 -225.95703125 560.484375 C-228.07903855 558.51942966 -230.23658911 556.62501536 -232.4375 554.75 C-235.8899894 551.74345714 -239.17822546 548.58790698 -242.4375 545.375 C-242.93121094 544.89426025 -243.42492187 544.41352051 -243.93359375 543.91821289 C-245.14155899 542.71345577 -246.29470214 541.45424101 -247.4375 540.1875 C-247.4375 539.5275 -247.4375 538.8675 -247.4375 538.1875 C-248.03175781 538.331875 -248.62601563 538.47625 -249.23828125 538.625 C-255.76874815 540.08749959 -261.74868808 540.359008 -268.4375 540.1875 C-268.4375 533.2575 -268.4375 526.3275 -268.4375 519.1875 C-266.4575 518.8575 -264.4775 518.5275 -262.4375 518.1875 C-264.51807582 514.38437985 -266.47431595 510.82491685 -270.75946045 509.43359375 C-273.56013531 509.16664212 -276.2730376 509.13149588 -279.0859375 509.1875 C-280.09846588 509.17662354 -281.11099426 509.16574707 -282.15420532 509.15454102 C-285.37472678 509.12843347 -288.59206423 509.15719568 -291.8125 509.1875 C-294.00131849 509.17940645 -296.19012686 509.16772772 -298.37890625 509.15234375 C-303.7337459 509.1158058 -309.08079278 509.15351613 -314.4375 509.1875 C-314.4375 500.9375 -314.4375 492.6875 -314.4375 484.1875 C-316.0875 483.5275 -317.7375 482.8675 -319.4375 482.1875 C-321.60546875 480.671875 -321.60546875 480.671875 -323.625 478.9375 C-324.29917969 478.37546875 -324.97335937 477.8134375 -325.66796875 477.234375 C-327.4375 475.1875 -327.4375 475.1875 -329.4375 469.1875 C-336.6975 469.1875 -343.9575 469.1875 -351.4375 469.1875 C-351.4375 463.2475 -351.4375 457.3075 -351.4375 451.1875 C-346.8175 451.1875 -342.1975 451.1875 -337.4375 451.1875 C-337.7675 449.5375 -338.0975 447.8875 -338.4375 446.1875 C-340.74993792 446.16064588 -343.0624627 446.14117159 -345.375 446.125 C-347.30666016 446.10759766 -347.30666016 446.10759766 -349.27734375 446.08984375 C-352.30048403 445.82217451 -352.30048403 445.82217451 -353.4375 447.1875 C-353.52487645 449.04119611 -353.54448153 450.89817541 -353.53515625 452.75390625 C-353.53032227 454.4409668 -353.53032227 454.4409668 -353.52539062 456.16210938 C-353.51701172 457.34611328 -353.50863281 458.53011719 -353.5 459.75 C-353.49548828 460.93787109 -353.49097656 462.12574219 -353.48632812 463.34960938 C-353.47449686 466.29559412 -353.45656076 469.24155316 -353.4375 472.1875 C-361.3575 472.1875 -369.2775 472.1875 -377.4375 472.1875 C-377.4375 464.2675 -377.4375 456.3475 -377.4375 448.1875 C-376.1175 447.8575 -374.7975 447.5275 -373.4375 447.1875 C-373.37863838 440.31065189 -373.37560344 433.4355553 -373.42089844 426.55859375 C-373.43168387 424.36851604 -373.43287941 422.17836256 -373.42285156 419.98828125 C-373.41436291 417.0115949 -373.45150479 414.0387349 -373.5 411.0625 C-373.4889624 410.15806152 -373.4779248 409.25362305 -373.46655273 408.32177734 C-373.58215292 403.42886394 -373.58215292 403.42886394 -376.00537109 399.32446289 C-377.85793491 397.70455044 -377.85793491 397.70455044 -379.79272461 396.37866211 C-382.26132517 394.59087791 -382.88334597 393.16607791 -383.4375 390.1875 C-383.4874828 385.63073506 -383.03988467 382.19864569 -380.6875 378.25 C-378.3271212 376.08631943 -376.40696109 375.28384077 -373.4375 374.1875 C-373.5089624 373.45571533 -373.5804248 372.72393066 -373.65405273 371.9699707 C-374.49635347 362.42070794 -374.55376149 352.95367425 -374.5 343.375 C-374.49496947 341.7962254 -374.49040934 340.21744922 -374.48632812 338.63867188 C-374.47545816 334.8215748 -374.45828136 331.00455545 -374.4375 327.1875 C-375.21609375 326.9090625 -375.9946875 326.630625 -376.796875 326.34375 C-380.63382142 324.66366695 -382.58993025 321.88263949 -384.4375 318.1875 C-384.82981417 313.47973 -384.91086758 311.11670303 -382.75 306.875 C-379.86114567 303.51768281 -377.80956115 301.54330917 -373.328125 300.87109375 C-367.88482865 300.58796928 -364.64385805 301.48189886 -360.4375 305.1875 C-357.27580614 308.87614284 -356.91735221 312.26363449 -357.08203125 316.96875 C-357.64052455 320.45473014 -359.13877371 322.56950616 -361.4375 325.1875 C-362.74810411 325.89780916 -364.07894346 326.57386627 -365.4375 327.1875 C-365.49824989 331.85174162 -365.4897611 336.51210154 -365.44970703 341.17626953 C-365.44085646 343.35952858 -365.44928266 345.54287972 -365.46826172 347.72607422 C-365.49654685 351.58922778 -365.4701539 355.44942285 -365.4375 359.3125 C-365.4569165 360.56893311 -365.47633301 361.82536621 -365.49633789 363.11987305 C-365.51288727 369.76189437 -365.51288727 369.76189437 -362.64477539 375.52490234 C-360.65329921 377.24978887 -358.60949578 378.7041027 -356.4375 380.1875 C-353.94215651 383.98042211 -354.22049548 387.58666214 -354.8203125 391.9609375 C-355.84343834 395.65196112 -357.67931307 397.56385877 -360.4375 400.1875 C-361.0975 400.1875 -361.7575 400.1875 -362.4375 400.1875 C-362.3653125 401.24066406 -362.293125 402.29382813 -362.21875 403.37890625 C-361.58896081 413.00760843 -361.34381366 422.53780681 -361.4375 432.1875 C-353.5175 432.1875 -345.5975 432.1875 -337.4375 432.1875 C-337.4375 426.2475 -337.4375 420.3075 -337.4375 414.1875 C-339.7475 414.1875 -342.0575 414.1875 -344.4375 414.1875 C-345.4375 413.1875 -345.4375 413.1875 -345.55102539 409.49389648 C-345.55086624 407.84878708 -345.54516988 406.20367269 -345.53515625 404.55859375 C-345.5337413 403.69436295 -345.53232635 402.83013214 -345.53086853 401.93971252 C-345.52525239 399.16810708 -345.51269719 396.3965812 -345.5 393.625 C-345.49498708 391.7506522 -345.49042381 389.87630315 -345.48632812 388.00195312 C-345.47612681 383.39707979 -345.45655467 378.7923794 -345.4375 374.1875 C-339.8275 374.1875 -334.2175 374.1875 -328.4375 374.1875 C-329.0975 374.8475 -329.7575 375.5075 -330.4375 376.1875 C-330.71654629 379.29788944 -330.71654629 379.29788944 -330.6328125 382.9453125 C-330.62781738 384.15848145 -330.62282227 385.37165039 -330.61767578 386.62158203 C-330.59946777 388.16958496 -330.58125977 389.71758789 -330.5625 391.3125 C-330.52125 396.22125 -330.48 401.13 -330.4375 406.1875 C-320.5375 406.1875 -310.6375 406.1875 -300.4375 406.1875 C-300.4375 396.2875 -300.4375 386.3875 -300.4375 376.1875 C-306.3775 375.8575 -312.3175 375.5275 -318.4375 375.1875 C-334.65806443 295.34452754 -320.27566807 213.43613914 -275.10888672 145.1796875 C-272.33290353 141.09528592 -269.42510203 137.11910532 -266.4375 133.1875 C-266.00614746 132.61870117 -265.57479492 132.04990234 -265.13037109 131.46386719 C-261.96641187 127.31687426 -258.72801658 123.23465335 -255.4375 119.1875 C-254.75397461 118.34517822 -254.75397461 118.34517822 -254.05664062 117.48583984 C-243.30169633 104.33795837 -231.31738691 92.25382012 -218.4375 81.1875 C-217.45007813 80.31867188 -216.46265625 79.44984375 -215.4453125 78.5546875 C-178.70939968 46.79654064 -135.01445493 25.17785861 -88.4375 12.1875 C-87.5192041 11.92485352 -86.6009082 11.66220703 -85.65478516 11.39160156 C-67.53737103 6.26409132 -49.08886164 3.51782336 -30.4375 1.1875 C-29.52299072 1.07188721 -28.60848145 0.95627441 -27.66625977 0.8371582 C-18.48274203 -0.16153271 -9.22579804 -0.00955128 0 0 Z M-375.3125 310.3125 C-376.73538457 312.2722639 -376.73538457 312.2722639 -376.1875 315.3125 C-375.72816476 318.06540841 -375.72816476 318.06540841 -374.4375 319.1875 C-370.97928598 319.43753964 -370.97928598 319.43753964 -367.4375 319.1875 C-365.13087401 317.30090125 -365.13087401 317.30090125 -365.125 314.1875 C-365.228125 313.1975 -365.33125 312.2075 -365.4375 311.1875 C-368.99956097 308.81279269 -371.49354239 308.02112543 -375.3125 310.3125 Z M-373.3125 383.3125 C-374.71518837 385.26141181 -374.71518837 385.26141181 -374.3125 388.25 C-373.69099587 391.48005415 -373.69099587 391.48005415 -370.4375 393.1875 C-367.11509676 392.8633631 -365.82973697 392.57973697 -363.4375 390.1875 C-363.07262488 387.34147406 -363.03550625 385.8010694 -364.625 383.375 C-367.67266417 381.37825451 -370.20878311 381.45026986 -373.3125 383.3125 Z M-278.4375 417.1875 C-278.458125 419.311875 -278.47875 421.43625 -278.5 423.625 C-278.51160156 424.81996094 -278.52320313 426.01492188 -278.53515625 427.24609375 C-278.77651792 430.07623341 -278.77651792 430.07623341 -277.4375 431.1875 C-275.41341245 431.09747602 -273.39205713 430.94108962 -271.375 430.75 C-269.415625 430.564375 -267.45625 430.37875 -265.4375 430.1875 C-265.4375 425.8975 -265.4375 421.6075 -265.4375 417.1875 C-269.7275 417.1875 -274.0175 417.1875 -278.4375 417.1875 Z M-323.4375 422.1875 C-323.53972294 424.96856538 -323.57813951 427.71895978 -323.5625 430.5 C-323.56056641 431.31001465 -323.55863281 432.1200293 -323.55664062 432.95458984 C-323.51064859 439.39986291 -323.14122454 445.77858007 -322.4375 452.1875 C-318.73680519 453.0418328 -315.31038359 453.31609476 -311.515625 453.3203125 C-309.85466797 453.32224609 -309.85466797 453.32224609 -308.16015625 453.32421875 C-307.01417969 453.32035156 -305.86820313 453.31648438 -304.6875 453.3125 C-303.52605469 453.31636719 -302.36460937 453.32023437 -301.16796875 453.32421875 C-300.06582031 453.32292969 -298.96367187 453.32164062 -297.828125 453.3203125 C-296.3126709 453.31862061 -296.3126709 453.31862061 -294.76660156 453.31689453 C-292.47707115 453.44933611 -292.47707115 453.44933611 -291.4375 452.1875 C-291.34959025 449.89598583 -291.33055962 447.60177476 -291.33984375 445.30859375 C-291.3412587 444.6219313 -291.34267365 443.93526886 -291.34413147 443.22779846 C-291.34974521 441.02682199 -291.36229993 438.82594591 -291.375 436.625 C-291.38001324 435.13606917 -291.38457645 433.64713676 -291.38867188 432.15820312 C-291.39971907 428.50126925 -291.41699287 424.84439442 -291.4375 421.1875 C-295.83406173 421.16284496 -300.2305872 421.14466158 -304.62719727 421.13256836 C-306.12394918 421.12752879 -307.62069616 421.12069713 -309.11743164 421.11206055 C-311.26449807 421.09997841 -313.41149962 421.09426809 -315.55859375 421.08984375 C-316.8520874 421.08460693 -318.14558105 421.07937012 -319.47827148 421.07397461 C-322.32402404 420.84753068 -322.32402404 420.84753068 -323.4375 422.1875 Z M-260.4375 450.1875 C-260.53573937 451.85179051 -260.56723631 453.52031931 -260.5625 455.1875 C-260.56507813 456.095 -260.56765625 457.0025 -260.5703125 457.9375 C-260.68923779 460.15716611 -260.68923779 460.15716611 -259.4375 461.1875 C-254.26014323 461.55802339 -254.26014323 461.55802339 -249.4375 460.1875 C-249.4375 456.8875 -249.4375 453.5875 -249.4375 450.1875 C-252.48552146 449.17149285 -257.89228189 447.64228189 -260.4375 450.1875 Z M-289.4375 461.1875 C-290.0975 463.4975 -290.7575 465.8075 -291.4375 468.1875 C-293.66334659 470.85931946 -296.04806751 473.2359545 -298.5390625 475.66015625 C-301.54332584 480.57452285 -301.54332584 480.57452285 -300.4375 493.1875 C-290.2075 493.1875 -279.9775 493.1875 -269.4375 493.1875 C-269.4375 482.6275 -269.4375 472.0675 -269.4375 461.1875 C-276.0375 461.1875 -282.6375 461.1875 -289.4375 461.1875 Z M-227.4375 463.1875 C-227.4375 466.4875 -227.4375 469.7875 -227.4375 473.1875 C-224.1375 473.1875 -220.8375 473.1875 -217.4375 473.1875 C-217.4375 469.8875 -217.4375 466.5875 -217.4375 463.1875 C-220.7375 463.1875 -224.0375 463.1875 -227.4375 463.1875 Z M-314.4375 465.1875 C-315.79368499 466.31284105 -315.79368499 466.31284105 -315.5 469.25 C-315.479375 470.219375 -315.45875 471.18875 -315.4375 472.1875 C-313.4575 472.1875 -311.4775 472.1875 -309.4375 472.1875 C-308.75791397 469.79030568 -308.75791397 469.79030568 -308.4375 467.1875 C-309.0975 466.5275 -309.7575 465.8675 -310.4375 465.1875 C-311.7575 465.1875 -313.0775 465.1875 -314.4375 465.1875 Z M-254.4375 483.1875 C-254.4375 492.0975 -254.4375 501.0075 -254.4375 510.1875 C-250.168125 510.208125 -245.89875 510.22875 -241.5 510.25 C-240.15172119 510.259104 -238.80344238 510.26820801 -237.41430664 510.27758789 C-236.36106201 510.28008545 -235.30781738 510.28258301 -234.22265625 510.28515625 C-233.13863525 510.29039307 -232.05461426 510.29562988 -230.93774414 510.30102539 C-228.49700052 510.47176897 -228.49700052 510.47176897 -227.4375 509.1875 C-227.33790379 507.34590977 -227.30669589 505.50053033 -227.3046875 503.65625 C-227.30339844 502.53605469 -227.30210937 501.41585938 -227.30078125 500.26171875 C-227.30658203 498.49248047 -227.30658203 498.49248047 -227.3125 496.6875 C-227.30863281 495.50800781 -227.30476563 494.32851563 -227.30078125 493.11328125 C-227.30271484 491.43298828 -227.30271484 491.43298828 -227.3046875 489.71875 C-227.30581543 488.68298828 -227.30694336 487.64722656 -227.30810547 486.58007812 C-227.16784847 484.23452177 -227.16784847 484.23452177 -228.4375 483.1875 C-230.36417507 483.10001793 -232.29401861 483.08052666 -234.22265625 483.08984375 C-235.80252319 483.09359009 -235.80252319 483.09359009 -237.41430664 483.09741211 C-239.43672485 483.11106812 -239.43672485 483.11106812 -241.5 483.125 C-245.769375 483.145625 -250.03875 483.16625 -254.4375 483.1875 Z M-195.4375 484.1875 C-195.4375 487.1575 -195.4375 490.1275 -195.4375 493.1875 C-192.4675 493.1875 -189.4975 493.1875 -186.4375 493.1875 C-186.1075 490.2175 -185.7775 487.2475 -185.4375 484.1875 C-188.7375 484.1875 -192.0375 484.1875 -195.4375 484.1875 Z M44.5625 507.1875 C42.42811246 509.95547721 42.42811246 509.95547721 41.5625 513.1875 C42.17043767 516.56493149 43.21419106 518.67200277 45.125 521.5 C48.74031016 524.00290703 52.21272449 524.37425244 56.5625 524.1875 C60.19014911 522.84684707 61.29430303 521.58979545 63.4375 518.375 C64.7500046 514.65623696 64.75599971 512.92713241 63.5625 509.1875 C61.09616817 505.58449304 61.09616817 505.58449304 57.5625 503.1875 C51.88207184 502.64130498 48.89809016 503.44312668 44.5625 507.1875 Z M-194.4375 507.1875 C-194.4375 513.1275 -194.4375 519.0675 -194.4375 525.1875 C-190.4910722 526.17410695 -187.30063227 526.32089509 -183.25 526.3125 C-181.99832031 526.31507813 -180.74664062 526.31765625 -179.45703125 526.3203125 C-176.55822464 526.533342 -176.55822464 526.533342 -175.4375 525.1875 C-175.35118126 523.84482587 -175.33043527 522.49775678 -175.33984375 521.15234375 C-175.34234131 520.42394287 -175.34483887 519.69554199 -175.34741211 518.94506836 C-175.35651611 518.0144458 -175.36562012 517.08382324 -175.375 516.125 C-175.4059375 511.7009375 -175.4059375 511.7009375 -175.4375 507.1875 C-181.7075 507.1875 -187.9775 507.1875 -194.4375 507.1875 Z M88.1875 551 C87.2141093 554.40686744 87.66589899 556.78041615 88.5625 560.1875 C91.15713351 563.69788651 92.79978114 564.96561815 97 566.1875 C101.15206112 566.1875 103.14343877 565.51867811 106.5625 563.1875 C109.16482515 560.24939095 109.81269085 558.02072467 109.625 554.1875 C109.02229596 550.80209861 108.38270342 549.97700645 106 547.1875 C98.93917752 543.0793851 93.18244853 544.41574966 88.1875 551 Z M-179.4375 573.1875 C-179.50898199 574.53993917 -179.52149454 575.89584367 -179.5 577.25 C-179.479375 578.549375 -179.45875 579.84875 -179.4375 581.1875 C-176.4675 581.1875 -173.4975 581.1875 -170.4375 581.1875 C-170.4375 578.2175 -170.4375 575.2475 -170.4375 572.1875 C-175.23720742 571.65916284 -175.23720742 571.65916284 -179.4375 573.1875 Z M-35.4375 594.1875 C-35.4375 594.8475 -35.4375 595.5075 -35.4375 596.1875 C-39.94313891 597.28940125 -44.40657895 597.40551233 -49.01953125 597.50390625 C-50.24079964 597.5350779 -50.24079964 597.5350779 -51.48674011 597.56687927 C-54.07441179 597.63199463 -56.66218053 597.69108208 -59.25 597.75 C-61.00977545 597.79322142 -62.76954128 597.83683685 -64.52929688 597.88085938 C-68.83193309 597.9876368 -73.13466643 598.08901018 -77.4375 598.1875 C-77.81968767 599.84364657 -78.15145102 601.51207024 -78.4375 603.1875 C-76.4702729 605.1547271 -72.65862562 604.39535386 -69.96484375 604.43359375 C-68.40950034 604.46656809 -66.85416193 604.49977906 -65.29882812 604.53320312 C-62.84582429 604.58036218 -60.39283522 604.62471213 -57.93969727 604.66430664 C-55.57284757 604.70440646 -53.20644197 604.75589372 -50.83984375 604.80859375 C-49.75811134 604.82121498 -49.75811134 604.82121498 -48.65452576 604.83409119 C-36.41620879 605.12634501 -36.41620879 605.12634501 -32.9375 608.75 C-30.76779905 610.82929674 -28.42046894 611.0517524 -25.50390625 611.3203125 C-21.98866115 611.09437992 -20.01415325 609.45740882 -17.4375 607.1875 C-15.32892547 604.52886255 -15.43726386 603.20048793 -15.5 599.75 C-16.60809763 595.53922899 -18.12386458 593.93539278 -21.4375 591.1875 C-26.9030143 588.45474285 -31.00317982 590.59781223 -35.4375 594.1875 Z M-102.4375 593.1875 C-103.67017348 594.19586062 -103.67017348 594.19586062 -103.53515625 596.25390625 C-103.52355469 597.07761719 -103.51195312 597.90132812 -103.5 598.75 C-103.479375 600.214375 -103.45875 601.67875 -103.4375 603.1875 C-100.4675 603.1875 -97.4975 603.1875 -94.4375 603.1875 C-93.50369039 598.65609347 -93.50369039 598.65609347 -94.4375 594.1875 C-98.42782841 593.58485687 -98.42782841 593.58485687 -102.4375 593.1875 Z M7.5625 604.1875 C7.39583333 607.6875 7.39583333 607.6875 7.5625 611.1875 C8.54517859 612.39311184 8.54517859 612.39311184 10.41015625 612.28515625 C12.4609375 612.25260417 14.51171875 612.22005208 16.5625 612.1875 C16.583125 610.888125 16.60375 609.58875 16.625 608.25 C16.63660156 607.51910156 16.64820313 606.78820312 16.66015625 606.03515625 C16.76811184 604.17017859 16.76811184 604.17017859 15.5625 603.1875 C11.2462475 602.64483887 11.2462475 602.64483887 7.5625 604.1875 Z " fill="#000000" transform="translate(518.4375,170.8125)"/>
<path d="M0 0 C3.27066566 -0.08706892 6.54103365 -0.14041241 9.8125 -0.1875 C10.74126953 -0.21263672 11.67003906 -0.23777344 12.62695312 -0.26367188 C13.9659668 -0.27817383 13.9659668 -0.27817383 15.33203125 -0.29296875 C16.56530151 -0.31653442 16.56530151 -0.31653442 17.82348633 -0.34057617 C20 0 20 0 21.77124023 1.27416992 C23.92391593 4.29766773 23.34533348 7.9309528 23.25 11.5 C23.24484375 12.27214844 23.2396875 13.04429687 23.234375 13.83984375 C23.18877829 17.12850625 23.04575554 19.86273337 22 23 C15.07030839 24.31994126 8.03403491 24.32058604 1 24 C0 23 0 23 -0.11352539 20.77514648 C-0.10828857 19.81680908 -0.10305176 18.85847168 -0.09765625 17.87109375 C-0.09443359 16.83662109 -0.09121094 15.80214844 -0.08789062 14.73632812 C-0.07951172 13.64771484 -0.07113281 12.55910156 -0.0625 11.4375 C-0.05798828 10.34501953 -0.05347656 9.25253906 -0.04882812 8.12695312 C-0.03699826 5.41791505 -0.02051543 2.70898401 0 0 Z " fill="#000000" transform="translate(854,181)"/>
<path d="M0 0 C18.15 0 36.3 0 55 0 C55 57.75 55 115.5 55 175 C36.85 175 18.7 175 0 175 C0 117.25 0 59.5 0 0 Z " fill="#000000" transform="translate(605,184)"/>
<path d="M0 0 C6.93359375 -0.09765625 6.93359375 -0.09765625 9 0 C10 1 10 1 10.09765625 3.06640625 C10.06510417 5.37760417 10.03255208 7.68880208 10 10 C6.7 10 3.4 10 0 10 C0 6.7 0 3.4 0 0 Z " fill="#000000" transform="translate(771,191)"/>
<path d="M0 0 C1.65 0.33 3.3 0.66 5 1 C5.33 1.99 5.66 2.98 6 4 C5.01 5.485 5.01 5.485 4 7 C2.35 6.67 0.7 6.34 -1 6 C-1.33 5.01 -1.66 4.02 -2 3 C-1.34 2.01 -0.68 1.02 0 0 Z " fill="#000000" transform="translate(565,200)"/>
<path d="M0 0 C2.625 0.375 2.625 0.375 5 1 C5.625 2.875 5.625 2.875 6 5 C5.34 5.66 4.68 6.32 4 7 C1.375 6.625 1.375 6.625 -1 6 C-1.625 4.125 -1.625 4.125 -2 2 C-1.34 1.34 -0.68 0.68 0 0 Z " fill="#000000" transform="translate(542,201)"/>
<path d="M0 0 C2.5 -0.3125 2.5 -0.3125 5 0 C5.66 0.66 6.32 1.32 7 2 C6.44444444 6.55555556 6.44444444 6.55555556 5 8 C3.33382885 8.04063832 1.66611905 8.042721 0 8 C-1.125 5.6875 -1.125 5.6875 -2 3 C-1.34 2.01 -0.68 1.02 0 0 Z " fill="#000000" transform="translate(517,203)"/>
<path d="M0 0 C5.259375 -0.020625 10.51875 -0.04125 15.9375 -0.0625 C17.599021 -0.071604 19.26054199 -0.08070801 20.97241211 -0.09008789 C22.26928955 -0.09258545 23.56616699 -0.09508301 24.90234375 -0.09765625 C25.93107605 -0.1053302 25.93107605 -0.1053302 26.98059082 -0.11315918 C28.65415231 -0.11347054 30.3275958 -0.06222837 32 0 C33.78468711 1.78468711 33.13032763 4.41780231 33.1328125 6.828125 C33.13474609 8.61669922 33.13474609 8.61669922 33.13671875 10.44140625 C33.13285156 11.69824219 33.12898437 12.95507812 33.125 14.25 C33.13080078 16.11205078 33.13080078 16.11205078 33.13671875 18.01171875 C33.13542969 19.20925781 33.13414062 20.40679687 33.1328125 21.640625 C33.13168457 22.73922852 33.13055664 23.83783203 33.12939453 24.96972656 C33 28 33 28 32 33 C21.44 33 10.88 33 0 33 C0 22.11 0 11.22 0 0 Z " fill="#000000" transform="translate(807,205)"/>
<path d="M0 0 C2.5 0.25 2.5 0.25 4.5 2.25 C4.75 5.25 4.75 5.25 4.5 8.25 C2.5 10.25 2.5 10.25 -0.5 10.5625 C-1.49 10.459375 -2.48 10.35625 -3.5 10.25 C-5.5 7.25 -5.5 7.25 -5.25 4.6875 C-4.24098289 1.40819438 -3.4742892 0.34742892 0 0 Z " fill="#000000" transform="translate(495.5,206.75)"/>
<path d="M0 0 C2.4375 2.1875 2.4375 2.1875 4 5 C3.93066507 7.91206696 3.43467888 9.39144957 1.75 11.75 C-0.63705769 13.45504121 -2.04340217 14 -5 14 C-7.875 12 -7.875 12 -10 9 C-10 5.3125 -10 5.3125 -9 2 C-5.50434664 -0.33043558 -4.1134271 -0.58763244 0 0 Z " fill="#000000" transform="translate(472,213)"/>
<path d="M0 0 C0.74886475 0.00523682 1.49772949 0.01047363 2.26928711 0.01586914 C3.36188843 0.01961548 3.36188843 0.01961548 4.4765625 0.0234375 C5.40718506 0.0325415 6.33780762 0.04164551 7.29663086 0.05102539 C11.72069336 0.08196289 11.72069336 0.08196289 16.23413086 0.11352539 C16.23413086 6.38352539 16.23413086 12.65352539 16.23413086 19.11352539 C13.28475586 19.13415039 10.33538086 19.15477539 7.29663086 19.17602539 C5.90069702 19.1896814 5.90069702 19.1896814 4.4765625 19.20361328 C3.38396118 19.20735962 3.38396118 19.20735962 2.26928711 19.21118164 C1.52042236 19.21641846 0.77155762 19.22165527 0 19.22705078 C-1.76586914 19.11352539 -1.76586914 19.11352539 -2.76586914 18.11352539 C-2.86573889 15.27017491 -2.90464795 12.45655376 -2.89086914 9.61352539 C-2.89473633 8.8155957 -2.89860352 8.01766602 -2.90258789 7.19555664 C-2.89068684 0.18583843 -2.89068684 0.18583843 0 0 Z " fill="#000000" transform="translate(770.765869140625,215.886474609375)"/>
<path d="M0 0 C2.4375 2.125 2.4375 2.125 4 5 C4 8.95524221 3.56831266 11.17910394 1.3125 14.4375 C-1.75578596 16.51066619 -3.35973134 16.59432958 -7 16 C-10.74093467 13.92170296 -11.79149259 12.67458281 -13.0625 8.5625 C-13 5 -13 5 -11.25 2.125 C-7.53095616 -1.38743029 -4.77172887 -1.36335111 0 0 Z " fill="#000000" transform="translate(445,222)"/>
<path d="M0 0 C3.36022909 2.61351151 4.0538782 4.46119958 4.6875 8.625 C4.07488661 13.00080991 2.48346172 14.79172652 -0.75 17.75 C-4.68283177 18.94389536 -6.71253872 19.19799464 -10.5 17.5625 C-13.8805239 14.83930019 -15.56288415 13.21574082 -16.125 8.8125 C-15.69784142 5.32403822 -14.90059932 3.51505626 -12.75 0.75 C-8.70831417 -2.17673801 -4.4400365 -2.01819841 0 0 Z " fill="#000000" transform="translate(417.75,234.25)"/>
<path d="M0 0 C6.875 0.875 6.875 0.875 8 2 C8.125 5.5 8.125 5.5 8 9 C7 10 7 10 5.15234375 10.09765625 C3.1015625 10.06510417 1.05078125 10.03255208 -1 10 C-2.25 3.375 -2.25 3.375 0 0 Z " fill="#000000" transform="translate(868,238)"/>
<path d="M0 0 C18.15 0 36.3 0 55 0 C55 38.28 55 76.56 55 116 C37.18 116 19.36 116 1 116 C0 115 0 115 -0.12304783 113.08095455 C-0.12212604 112.2338268 -0.12120424 111.38669905 -0.12025452 110.51390076 C-0.12162918 109.54489838 -0.12300385 108.575896 -0.12442017 107.57752991 C-0.12082489 106.50579025 -0.11722961 105.4340506 -0.11352539 104.32983398 C-0.11367142 103.20802734 -0.11381744 102.0862207 -0.1139679 100.93041992 C-0.1132682 97.20229189 -0.10547315 93.47421311 -0.09765625 89.74609375 C-0.09579227 87.16919482 -0.09436827 84.59229553 -0.09336853 82.01539612 C-0.08993342 75.91324885 -0.0820426 69.81112206 -0.07201904 63.70898253 C-0.05976273 56.08268448 -0.05427519 48.45638356 -0.04882812 40.83007812 C-0.03907716 27.22003818 -0.01904686 13.61003716 0 0 Z " fill="#000000" transform="translate(533,243)"/>
<path d="M0 0 C2.78901573 1.23956255 4.44350587 2.28450754 6.3125 4.6875 C7.35150926 8.18234933 7.69164143 11.43222588 7 15 C5.2524257 18.02089981 3.16782234 20.41608883 0 22 C-4.19491568 22.40335728 -6.5250009 22.24198067 -10.3125 20.3125 C-13.19392326 17.8331358 -14.22777747 16.68950764 -15 13 C-14.91982499 8.51019962 -14.49221191 6.58055763 -11.5625 3.125 C-7.54231133 -0.20881499 -5.22534241 -0.3542605 0 0 Z " fill="#000000" transform="translate(387,249)"/>
<path d="M0 0 C18.81 0 37.62 0 57 0 C57.020625 8.064375 57.04125 16.12875 57.0625 24.4375 C57.071604 26.98654053 57.08070801 29.53558105 57.09008789 32.16186523 C57.09300688 34.16910754 57.09555548 36.17635043 57.09765625 38.18359375 C57.10277222 39.23647583 57.10788818 40.28935791 57.11315918 41.37414551 C57.11334045 42.86621521 57.11334045 42.86621521 57.11352539 44.38842773 C57.115746 45.25668686 57.11796661 46.12494598 57.12025452 47.01951599 C57 49 57 49 56 50 C51.33154772 50.14426614 46.67134047 50.04208415 42 50 C42 57.92 42 65.84 42 74 C49.59 74 57.18 74 65 74 C65.85173194 78.2586597 66.12884991 81.71452079 66.1328125 86.015625 C66.13376923 86.67205994 66.13472595 87.32849487 66.13571167 88.00482178 C66.1363888 89.38309831 66.13456723 90.76137812 66.13037109 92.13964844 C66.12498159 94.25723313 66.13034936 96.37460904 66.13671875 98.4921875 C66.13605856 99.8333338 66.13477862 101.17447998 66.1328125 102.515625 C66.13168457 103.73540039 66.13055664 104.95517578 66.12939453 106.21191406 C66 109 66 109 65 110 C62.97505769 110.09409479 60.9468013 110.11743122 58.91967773 110.11352539 C57.60012085 110.11340454 56.28056396 110.11328369 54.92102051 110.11315918 C53.50854445 110.10812269 52.09606885 110.10295606 50.68359375 110.09765625 C49.40681763 110.09664917 48.1300415 110.09564209 46.8145752 110.09460449 C42.02220773 110.08935266 37.22985301 110.07539156 32.4375 110.0625 C21.733125 110.041875 11.02875 110.02125 0 110 C0 73.7 0 37.4 0 0 Z M32 12 C31.90126184 13.99799572 31.87028201 15.99957158 31.875 18 C31.87242187 19.093125 31.86984375 20.18625 31.8671875 21.3125 C31.69452245 23.91830354 31.69452245 23.91830354 33 25 C35.35313555 25.07271741 37.70833668 25.08370868 40.0625 25.0625 C43.4965625 25.0315625 43.4965625 25.0315625 47 25 C47 20.38 47 15.76 47 11 C44.710625 10.979375 42.42125 10.95875 40.0625 10.9375 C38.13083984 10.92009766 38.13083984 10.92009766 36.16015625 10.90234375 C33.13701597 10.63467451 33.13701597 10.63467451 32 12 Z M12 31 C11.90126184 32.99799572 11.87028201 34.99957158 11.875 37 C11.87242187 38.093125 11.86984375 39.18625 11.8671875 40.3125 C11.69452245 42.91830354 11.69452245 42.91830354 13 44 C15.16480797 44.0989294 17.33293785 44.129711 19.5 44.125 C20.6859375 44.12757813 21.871875 44.13015625 23.09375 44.1328125 C25.89259422 44.33210219 25.89259422 44.33210219 27 43 C27.07258946 40.81360547 27.08373783 38.62499611 27.0625 36.4375 C27.05347656 35.23996094 27.04445313 34.04242188 27.03515625 32.80859375 C27.02355469 31.88175781 27.01195312 30.95492188 27 30 C24.68756208 29.97314588 22.3750373 29.95367159 20.0625 29.9375 C18.13083984 29.92009766 18.13083984 29.92009766 16.16015625 29.90234375 C13.13701597 29.63467451 13.13701597 29.63467451 12 31 Z M33 87 C33 88.65 33 90.3 33 92 C35.475 92.495 35.475 92.495 38 93 C38.38218767 91.34385343 38.71395102 89.67542976 39 88 C37.93354885 86.70366379 37.93354885 86.70366379 35.4375 86.9375 C34.633125 86.958125 33.82875 86.97875 33 87 Z " fill="#000000" transform="translate(752,249)"/>
<path d="M0 0 C10.83984375 -0.09765625 10.83984375 -0.09765625 14 0 C15 1 15 1 15.09765625 4.16015625 C15.04882812 9.58007812 15.04882812 9.58007812 15 15 C10.05 15 5.1 15 0 15 C0 10.05 0 5.1 0 0 Z " fill="#000000" transform="translate(840,256)"/>
<path d="M0 0 C2.5 0.125 2.5 0.125 3.5 1.125 C3.54063832 2.79117115 3.542721 4.45888095 3.5 6.125 C1.5085944 6.50633299 -0.49279077 6.83825582 -2.5 7.125 C-3.5 6.125 -3.5 6.125 -3.625 3.625 C-3.45661291 0.25725827 -3.36774173 0.16838709 0 0 Z " fill="#000000" transform="translate(822.5,261.875)"/>
<path d="M0 0 C3.15689734 1.60714774 5.19415756 2.97438234 7.375 5.75 C8.82399408 10.96637867 8.70053657 14.64896519 6.25 19.375 C2.82712823 23.3683504 1.33863337 23.89375926 -3.9375 24.3125 C-8.68678179 24.18008508 -11.45528788 22.59988041 -14.75 19.1875 C-16.38943245 16.31849321 -16.86999017 14.31525059 -17 11 C-14.20205222 1.98439047 -9.25953937 -1.63020059 0 0 Z " fill="#000000" transform="translate(359,269)"/>
<path d="M0 0 C4.95 0 9.9 0 15 0 C15 4.95 15 9.9 15 15 C10.05 15 5.1 15 0 15 C0 10.05 0 5.1 0 0 Z " fill="#000000" transform="translate(866,276)"/>
<path d="M0 0 C6.93 0 13.86 0 21 0 C21 6.6 21 13.2 21 20 C14.07 20 7.14 20 0 20 C0 13.4 0 6.8 0 0 Z " fill="#000000" transform="translate(824,286)"/>
<path d="M0 0 C17.82 0 35.64 0 54 0 C54.96665615 2.89996846 55.12656608 4.73741563 55.12939453 7.75244141 C55.13254669 8.7184024 55.13569885 9.6843634 55.13894653 10.67959595 C55.1369223 11.72634491 55.13489807 12.77309387 55.1328125 13.8515625 C55.13376923 14.9389975 55.13472595 16.0264325 55.13571167 17.14682007 C55.13639326 19.45855771 55.13454043 21.77029726 55.13037109 24.08203125 C55.12509468 27.56254593 55.13027886 31.04292724 55.13671875 34.5234375 C55.13605656 36.77864611 55.13477249 39.03385464 55.1328125 41.2890625 C55.13483673 42.30747223 55.13686096 43.32588196 55.13894653 44.37515259 C55.11105944 53.31140571 54.52759906 62.03081592 54 71 C36.18 71 18.36 71 0 71 C0 47.57 0 24.14 0 0 Z " fill="#000000" transform="translate(462,288)"/>
<path d="M0 0 C3.97899727 2.06504922 6.48632107 4.07190188 8.0390625 8.2734375 C8.71541343 13.32070632 8.61529105 17.09963861 6.3515625 21.7109375 C2.45067863 26.03353854 -1.11584832 27.92273215 -6.9609375 28.2734375 C-11.35590797 27.57949479 -13.98094316 26.63854611 -16.8359375 23.2734375 C-20.40569682 18.23377728 -20.6257697 14.36929332 -19.9609375 8.2734375 C-18.1652656 4.47490078 -16.66477435 2.75332626 -13.2109375 0.3984375 C-8.60696782 -1.19524431 -4.58098521 -1.69733715 0 0 Z " fill="#000000" transform="translate(332.9609375,293.7265625)"/>
<path d="M0 0 C3.3 0 6.6 0 10 0 C10 2.97 10 5.94 10 9 C6.7 9 3.4 9 0 9 C0 6.03 0 3.06 0 0 Z " fill="#000000" transform="translate(870,314)"/>
<path d="M0 0 C4.77266043 2.47811215 7.65940814 5.13877076 10 10 C10.78989543 14.87639528 10.65993696 19.40126326 8.4375 23.875 C5.21748026 28.00323044 2.2198504 30.45194036 -3.01953125 31.34375 C-9.31414053 31.63260396 -13.22142761 29.58095323 -17.8125 25.5 C-21.3742774 21.42939726 -21.34533312 17.69376143 -21.27734375 12.50390625 C-20.86265651 8.76003972 -19.50322623 6.76672373 -17 4 C-11.23826288 -0.35069946 -7.08701452 -1.72132421 0 0 Z " fill="#000000" transform="translate(306,321)"/>
<path d="M0 0 C6.93 0 13.86 0 21 0 C21 6.93 21 13.86 21 21 C14.07 21 7.14 21 0 21 C0 14.07 0 7.14 0 0 Z " fill="#000000" transform="translate(832,321)"/>
<path d="M0 0 C17.82 0 35.64 0 54 0 C54 8.58 54 17.16 54 26 C36.18 26 18.36 26 0 26 C0 17.42 0 8.84 0 0 Z " fill="#000000" transform="translate(390,333)"/>
<path d="M0 0 C1.65 0 3.3 0 5 0 C5.33 1.32 5.66 2.64 6 4 C4.35 4.33 2.7 4.66 1 5 C0.67 3.35 0.34 1.7 0 0 Z " fill="#000000" transform="translate(827,352)"/>
<path d="M0 0 C7.4052327 -0.12891121 14.63624665 0.22764066 22 1 C32.69492306 25.65039153 39.70350227 51.80313698 44.25 78.25 C44.40122314 79.12237305 44.55244629 79.99474609 44.70825195 80.89355469 C47.60268828 98.86488268 48.37558065 116.82462194 48.3125 135 C48.31100952 136.06861267 48.30951904 137.13722534 48.3079834 138.23822021 C48.26523009 155.34752171 47.53586306 172.05781145 45 189 C44.86078125 189.98355469 44.7215625 190.96710938 44.578125 191.98046875 C36.31011801 249.32062836 12.59973138 303.75954923 -22 350 C-22.44730469 350.60183105 -22.89460937 351.20366211 -23.35546875 351.82373047 C-31.62041141 362.91464776 -40.38702323 373.71401528 -50.33984375 383.33984375 C-52.21845517 385.1627788 -52.21845517 385.1627788 -54.5 388.0625 C-57.11224178 391.13188409 -59.90726075 393.61419944 -62.96875 396.21875 C-64.86931163 397.88539635 -66.62184837 399.6181917 -68.375 401.4375 C-71.82020062 404.93738635 -75.55802949 407.95533222 -79.421875 410.98046875 C-81.05088864 412.25652944 -82.66739257 413.54887285 -84.265625 414.86328125 C-111.01247321 436.83390657 -141.97233268 454.09693683 -174 467 C-174.79647949 467.32162109 -175.59295898 467.64324219 -176.41357422 467.97460938 C-214.47539008 483.12503725 -256.93260213 493.11963762 -298.01953125 493.16796875 C-299.03939621 493.17129715 -300.05926117 493.17462555 -301.11003113 493.17805481 C-303.25881505 493.18308488 -305.40760668 493.18546436 -307.55639648 493.18530273 C-310.76625246 493.18746879 -313.97575238 493.20561067 -317.18554688 493.22460938 C-335.20539649 493.27437144 -353.00131617 492.05591243 -370.8125 489.25 C-372.42487549 488.99730347 -372.42487549 488.99730347 -374.06982422 488.73950195 C-407.19126555 483.31747805 -439.34116001 473.06485248 -469.77734375 459.02099609 C-472.01157892 457.99468112 -474.25510152 456.99102196 -476.5 455.98828125 C-502.33376878 444.28561696 -526.92974686 428.80152105 -549 411 C-549.95003906 410.24203125 -550.90007812 409.4840625 -551.87890625 408.703125 C-557.26081005 404.3616727 -562.46618511 399.86308551 -567.57421875 395.203125 C-570.70351943 392.36105482 -573.89388299 389.59095792 -577.08984375 386.82421875 C-579.00186223 384.99822155 -580.5476455 383.20812518 -582 381 C-582 380.34 -582 379.68 -582 379 C-580.35 378.34 -578.7 377.68 -577 377 C-575.89205078 378.03447266 -575.89205078 378.03447266 -574.76171875 379.08984375 C-568.04356604 385.32772951 -561.19057279 391.30538549 -554 397 C-553.03964844 397.76699219 -552.07929687 398.53398438 -551.08984375 399.32421875 C-480.42726669 454.8001484 -390.72584929 481.87331579 -301.23925781 471.85131836 C-228.2876163 462.71128159 -159.70400909 434.70717199 -102 389 C-101.4112207 388.53722656 -100.82244141 388.07445312 -100.21582031 387.59765625 C-94.16737247 382.8319818 -88.44908412 377.76539547 -82.88061523 372.4519043 C-79.2133923 369 -79.2133923 369 -77 369 C-76.76023437 368.42121094 -76.52046875 367.84242188 -76.2734375 367.24609375 C-74.74393374 364.54834938 -72.99540453 363.06085075 -70.625 361.0625 C-64.25838132 355.46537192 -58.61958833 349.33156396 -53 343 C-52.54512207 342.48985352 -52.09024414 341.97970703 -51.62158203 341.45410156 C-34.80977752 322.47402267 -20.65162673 301.28391346 -8.24902344 279.21923828 C-7.4767961 277.84716116 -6.69976339 276.47776125 -5.91503906 275.11279297 C18.08316991 233.35590936 32.98210534 181.19063139 33.203125 133 C33.21018463 131.97448532 33.21724426 130.94897064 33.22451782 129.89237976 C33.53239268 98.81454572 33.53239268 98.81454572 30 68 C29.79600586 66.85982422 29.59201172 65.71964844 29.38183594 64.54492188 C28.03104339 57.18732987 26.50784536 49.88310251 24.828125 42.59375 C24.27256887 40.18284604 23.7310576 37.76866566 23.203125 35.3515625 C22.43218129 31.86719925 21.60157681 28.40293042 20.75 24.9375 C20.4101709 23.36730103 20.4101709 23.36730103 20.06347656 21.76538086 C18.65995365 16.26726897 18.65995365 16.26726897 14.68212891 12.48193359 C12.13410821 11.43979547 9.66893207 10.66498019 7 10 C5.62492933 9.58356662 4.24991945 9.1669324 2.875 8.75 C1.451875 8.37875 1.451875 8.37875 0 8 C0 5.36 0 2.72 0 0 Z " fill="#000000" transform="translate(844,353)"/>
<path d="M0 0 C3.83415513 2.98492341 5.76515923 5.78309781 6.6875 10.5625 C5.84977542 14.75112292 4.5187106 17.57022062 1 20 C-3.2532608 21.37673361 -6.70570723 21.50646239 -10.875 19.875 C-14.22085868 16.92277175 -15.77596283 14.50424955 -16.4375 10.0625 C-15.87236169 6.10653184 -14.56163859 4.04627291 -12 1 C-7.90311996 -1.54670922 -4.56254639 -1.36075945 0 0 Z " fill="#000000" transform="translate(286,362)"/>
<path d="M0 0 C0.911656 -0.00597315 1.82331199 -0.01194629 2.76259392 -0.01810044 C3.76550196 -0.00936192 4.76840999 -0.00062339 5.80170918 0.00837994 C7.39813951 0.00453502 7.39813951 0.00453502 9.02682096 0.00061244 C12.61073363 -0.00434844 16.19422964 0.01220577 19.77810383 0.02856731 C22.34009001 0.02941309 24.90207693 0.02893942 27.46406269 0.0272398 C32.98891961 0.02655555 38.51364117 0.03509183 44.03847027 0.05195332 C52.02645174 0.07631637 60.01438179 0.08414582 68.00239638 0.08791729 C80.96184099 0.09448601 93.92122901 0.11445858 106.88064289 0.14282513 C119.47080928 0.17035481 132.0609603 0.19159372 144.6511507 0.20434856 C145.42698138 0.20513673 146.20281206 0.20592491 147.00215276 0.20673696 C150.89419929 0.21065202 154.78624592 0.21444316 158.67829263 0.21817267 C190.97568294 0.24928169 223.2730037 0.30212892 255.57034016 0.36914349 C255.90034016 1.02914349 256.23034016 1.68914349 256.57034016 2.36914349 C252.00151636 8.78341375 246.8743043 14.55825179 241.57034016 20.36914349 C238.20985416 24.15262772 234.90284557 27.98265334 231.59768391 31.81445599 C225.73144245 38.6098822 219.82297443 45.34763877 213.75784016 51.96679974 C211.87373675 54.03594901 210.02579268 56.12768275 208.19534016 58.24414349 C204.54567222 62.44731556 200.75396446 66.51508997 196.96877766 70.59570599 C194.33289941 73.44245449 191.72583179 76.30260753 189.19534016 79.24414349 C185.26835471 83.78263032 181.14824705 88.13990861 177.04446125 92.51782513 C173.61462637 96.17682998 170.20330684 99.85097302 166.81594563 103.54931927 C161.93376024 108.87780303 156.9331795 114.0401692 151.78909016 119.11914349 C149.85337747 121.08211973 148.04223427 123.08235629 146.25784016 125.18164349 C143.04795116 128.94049212 139.58244181 132.39657027 136.07034016 135.86914349 C132.01568482 139.87826648 128.1305586 143.92778856 124.44143391 148.27929974 C121.42883324 151.64410424 118.18461973 154.77459536 114.97243977 157.94751263 C112.22692189 160.67238428 109.5775654 163.41946673 107.07034016 166.36914349 C104.07767953 169.88992069 100.85501045 173.12461582 97.57034016 176.36914349 C94.32737167 179.57257563 91.14097874 182.76021562 88.19534016 186.24414349 C84.33418006 190.79004134 80.06600741 194.92600205 75.80715656 199.0952177 C72.14443211 202.70439657 68.7122396 206.44185031 65.35207844 210.33349895 C62.32993533 213.78631195 59.1648832 217.10256198 56.00784016 220.43164349 C54.61042834 221.91054904 53.2132991 223.38972163 51.81643391 224.86914349 C51.11502277 225.61164349 50.41361164 226.35414349 49.69094563 227.11914349 C46.30497899 230.71171412 42.93678081 234.32078344 39.57034016 237.93164349 C38.96504475 238.58076702 38.35974934 239.22989056 37.73611164 239.8986845 C36.34721262 241.38854994 34.95872512 242.878799 33.57034016 244.36914349 C37.27276487 241.43437748 40.90624051 238.42615423 44.50784016 235.36914349 C45.06705158 234.89492962 45.62626301 234.42071575 46.20242023 233.93213177 C47.99282025 232.41241697 49.7817963 230.89104221 51.57034016 229.36914349 C52.46462727 228.60875774 52.46462727 228.60875774 53.37698078 227.83301067 C60.09812927 222.1131167 66.77285077 216.35839875 73.28909016 210.40429974 C74.41830891 209.39689739 74.41830891 209.39689739 75.57034016 208.36914349 C76.31881214 207.51387569 77.06728413 206.6586079 77.83843708 205.7774229 C82.83228403 201.67839656 89.44670485 202.71708513 95.56203938 202.80151653 C96.99147714 202.80292799 98.42091853 202.80213312 99.85035419 202.79930401 C103.72002985 202.79787221 107.58892709 202.82722266 111.45842218 202.8621738 C115.50627739 202.89347725 119.55415138 202.89637116 123.60210896 202.90230083 C131.26255456 202.91782763 138.92264244 202.95884009 146.58293068 203.00904828 C155.30594877 203.06497818 164.02898413 203.09243738 172.75213695 203.11752546 C190.69174066 203.16975717 208.63101162 203.25767659 226.57034016 203.36914349 C225.32210664 205.88435674 224.07180373 208.3985066 222.82034016 210.91211224 C222.47229328 211.61396648 222.12424641 212.31582073 221.76565266 213.03894329 C216.43501608 223.7341499 216.43501608 223.7341499 213.36898518 228.58062553 C210.63588855 232.98473997 209.05350498 237.0208164 207.68264484 242.03108501 C204.92886247 250.29155663 201.42443129 257.92876732 193.57034016 262.36914349 C177.17062609 267.94084443 157.57075731 265.62884478 140.43120134 265.16467161 C133.03925366 264.9698291 125.64876972 264.93095153 118.25461793 264.90017924 C105.07269146 264.84127642 91.8953101 264.66214826 78.71584797 264.40600872 C65.9237596 264.15765833 53.13291147 263.96680727 40.33889484 263.85229778 C39.5485576 263.84520425 38.75822035 263.83811071 37.94393349 263.83080222 C33.97850842 263.79556278 30.01307466 263.76144349 26.04763508 263.72788084 C-6.78143757 263.44857652 -39.60493759 262.97358039 -72.42965984 262.36914349 C-70.84466294 258.06968867 -69.08607029 255.72644527 -65.74215984 252.55664349 C-62.62998701 249.5427028 -59.61846769 246.53883304 -56.80465984 243.24414349 C-53.90461173 239.8539464 -50.825976 236.71731081 -47.61715984 233.61914349 C-45.71939438 231.66715615 -43.93234532 229.6739803 -42.14840984 227.61914349 C-38.51252469 223.4340076 -34.74332969 219.3920421 -30.92965984 215.36914349 C-29.51806793 213.87447797 -28.10661289 212.37968316 -26.69528484 210.88476849 C-25.98565594 210.13388958 -25.27602703 209.38301067 -24.54489422 208.60937786 C-14.77177936 198.25871974 -5.06813162 187.84517425 4.57034016 177.36914349 C11.03851925 170.33889587 17.53078152 163.33312271 24.07034016 156.36914349 C31.49794878 148.45899006 38.87894644 140.5073366 46.19534016 132.49414349 C52.22178069 125.89375623 58.31970305 119.36527577 64.45168781 112.86279583 C68.87873431 108.16814038 73.29434548 103.46322986 77.69534016 98.74414349 C78.2597884 98.13917034 78.82423664 97.5341972 79.40578938 96.91089153 C82.37665696 93.7255132 85.34402924 90.53692544 88.30862141 87.34570599 C88.9278548 86.68006634 89.5470882 86.01442669 90.18508625 85.32861614 C91.35448501 84.07150464 92.52287028 82.81344916 93.68996906 81.55420208 C97.00378423 77.99366636 100.39005959 74.53198082 103.87917805 71.14258099 C105.91433447 69.00841378 107.72812184 66.67191638 109.57034016 64.36914349 C31.85534016 63.87414349 31.85534016 63.87414349 -47.42965984 63.36914349 C-44.18036936 57.52042061 -40.99641818 52.0506842 -37.17965984 46.61914349 C-36.69787273 45.92578899 -36.21608562 45.2324345 -35.71969891 44.51806927 C-34.29317569 42.46596895 -32.86169167 40.41740165 -31.42965984 38.36914349 C-30.01173776 36.32834849 -28.59499686 34.28673213 -27.17965984 32.24414349 C-26.11618328 30.71273724 -26.11618328 30.71273724 -25.03122234 29.15039349 C-22.88135697 26.0386079 -20.7599273 22.90804435 -18.64059734 19.77539349 C-17.96802898 18.78297649 -17.29546062 17.7905595 -16.60251141 16.76806927 C-15.25531236 14.77875032 -13.91083263 12.78758662 -12.56930828 10.79443645 C-11.94830242 9.87807415 -11.32729656 8.96171185 -10.68747234 8.01758099 C-10.13204754 7.19435345 -9.57662273 6.37112591 -9.00436687 5.52295208 C-6.23741313 1.73844574 -4.85519244 -0.0070128 0 0 Z " fill="#000000" transform="translate(564.4296598434448,376.63085651397705)"/>
<path d="M0 0 C1.52825417 0.00028242 3.05650848 0.00012307 4.58476257 -0.0004425 C8.71433443 -0.00072835 12.843877 0.00513395 16.97344208 0.01213145 C21.29625803 0.01840045 25.61907473 0.01897159 29.94189453 0.02015686 C38.1191814 0.02325974 46.29645484 0.03145903 54.47373581 0.04150635 C63.78692246 0.05269993 73.10010976 0.05818611 82.41330147 0.06320179 C101.56330233 0.07364254 120.71329071 0.09122173 139.86328125 0.11352539 C137.94344775 4.01593779 135.96177657 7.61061845 133.45703125 11.16821289 C132.8012207 12.1044751 132.14541016 13.0407373 131.46972656 14.00537109 C130.42703613 15.48203247 130.42703613 15.48203247 129.36328125 16.98852539 C127.90985973 19.06253638 126.45673562 21.13675581 125.00390625 23.21118164 C124.29427734 24.22196777 123.58464844 25.23275391 122.85351562 26.27416992 C120.25618775 29.97963154 117.67509358 33.69592804 115.11328125 37.42602539 C114.55870428 38.19907391 114.55870428 38.19907391 113.99292374 38.98773956 C111.54042462 42.4650351 109.40975584 45.91234699 107.53637695 49.73597717 C101.37499594 61.61064932 101.37499594 61.61064932 95.50469971 64.12290573 C88.68098491 65.68310931 81.74546901 65.25120753 74.80078125 64.98461914 C72.55986868 64.96582657 70.318871 64.95548061 68.07788086 64.95314026 C62.20061003 64.92654042 56.3304996 64.79512398 50.45544434 64.63818359 C43.33666011 64.46545746 36.2162322 64.40638072 29.09577942 64.34140873 C23.55120875 64.29022197 18.00974221 64.21923598 12.46655273 64.08287048 C-5.77716527 63.69529024 -20.02406268 66.11487071 -34.51171875 78.36352539 C-47.96232189 91.29092841 -52.95786813 109.12145144 -53.41992188 127.32006836 C-53.65824794 148.51917161 -48.05630472 167.41742685 -33.51171875 183.36352539 C-19.3276791 196.71157056 -1.89665772 199.2191987 16.80883789 199.31884766 C18.55182159 199.33369705 18.55182159 199.33369705 20.33001709 199.34884644 C24.14447032 199.38026023 27.95893598 199.40513883 31.7734375 199.42993164 C34.42858789 199.45051857 37.08373292 199.47146996 39.73887634 199.49290466 C45.99655405 199.54262725 52.25425625 199.58764102 58.51198143 199.63092703 C65.64146662 199.68047516 72.77090799 199.73532755 79.90035069 199.79060662 C94.55461933 199.90411255 109.20893159 200.01101874 123.86328125 200.11352539 C122.29616097 204.35489886 120.61956179 206.63268695 117.30078125 209.73852539 C113.69851434 213.22175187 110.42305988 216.75668619 107.30078125 220.67602539 C103.772041 225.09473012 100.0124942 229.06956456 95.96875 233.01586914 C93.46981638 235.50553028 91.18113858 238.1281085 88.88671875 240.80493164 C85.71133557 244.4278109 82.41636883 247.94008533 79.12573242 251.45825195 C78.63306885 251.98773437 78.14040527 252.5172168 77.6328125 253.06274414 C77.19557861 253.530271 76.75834473 253.99779785 76.30786133 254.47949219 C74.72120978 256.17868913 74.72120978 256.17868913 73.2951355 258.67720032 C70.473546 261.50397715 68.82696446 261.70873556 64.90638733 261.76895142 C64.11526047 261.75568817 63.32413361 261.74242493 62.5090332 261.72875977 C61.24701584 261.73708328 61.24701584 261.73708328 59.95950317 261.74557495 C57.17294577 261.75739818 54.38800691 261.73304355 51.6015625 261.70727539 C49.6526039 261.70556287 47.703643 261.70563141 45.75468445 261.70739746 C41.65971966 261.70574194 37.5653007 261.68702176 33.47045898 261.65551758 C28.26835173 261.61618103 23.06697065 261.6114313 17.86474323 261.61898041 C13.83130969 261.62208185 9.79803367 261.60981264 5.7646389 261.59284973 C3.8500588 261.58589989 1.93546082 261.58268526 0.0208683 261.58354187 C-34.50714811 261.56010225 -66.99062337 251.59460006 -92.13671875 227.11352539 C-92.96816406 226.34395508 -93.79960937 225.57438477 -94.65625 224.78149414 C-116.23691339 204.2616314 -128.42203856 172.46614509 -129.3137207 142.92089844 C-129.33973261 141.48910425 -129.35996576 140.05719567 -129.375 138.62524414 C-129.38474854 137.84817108 -129.39449707 137.07109802 -129.40454102 136.27047729 C-129.72193651 104.47419327 -129.72193651 104.47419327 -125.13671875 89.11352539 C-124.9547998 88.45529785 -124.77288086 87.79707031 -124.58544922 87.11889648 C-119.30791291 68.16409898 -109.56408401 52.34150016 -96.13671875 38.11352539 C-95.47285156 37.37360352 -94.80898438 36.63368164 -94.125 35.87133789 C-70.45903409 10.53748486 -33.63110764 -0.08723172 0 0 Z M-113.13671875 159.11352539 C-113.13671875 162.41352539 -113.13671875 165.71352539 -113.13671875 169.11352539 C-109.83671875 169.11352539 -106.53671875 169.11352539 -103.13671875 169.11352539 C-103.13671875 165.81352539 -103.13671875 162.51352539 -103.13671875 159.11352539 C-106.43671875 159.11352539 -109.73671875 159.11352539 -113.13671875 159.11352539 Z M-95.13671875 186.11352539 C-95.13671875 191.72352539 -95.13671875 197.33352539 -95.13671875 203.11352539 C-91.60287316 204.29147392 -88.73394322 204.24616856 -85.01171875 204.23852539 C-83.75101562 204.24110352 -82.4903125 204.24368164 -81.19140625 204.24633789 C-78.26157743 204.46362562 -78.26157743 204.46362562 -77.13671875 203.11352539 C-77.06341544 200.24883214 -77.04454044 197.41458865 -77.07421875 194.55102539 C-77.09484375 191.76665039 -77.11546875 188.98227539 -77.13671875 186.11352539 C-83.07671875 186.11352539 -89.01671875 186.11352539 -95.13671875 186.11352539 Z M-69.13671875 217.11352539 C-69.13671875 219.75352539 -69.13671875 222.39352539 -69.13671875 225.11352539 C-64.0866228 226.05138622 -64.0866228 226.05138622 -59.13671875 225.11352539 C-59.13671875 222.47352539 -59.13671875 219.83352539 -59.13671875 217.11352539 C-62.43671875 217.11352539 -65.73671875 217.11352539 -69.13671875 217.11352539 Z " fill="#000000" transform="translate(396.13671875,377.886474609375)"/>
<path d="M0 0 C2 2 2 2 2.25 5.5 C2 9 2 9 0 11 C-3.10347254 11.33015665 -5.15781176 11.50531294 -7.875 9.875 C-9.54663625 7.08893958 -9.46376624 5.18011138 -9 2 C-6.12524616 -1.3006433 -4.03854228 -1.38160657 0 0 Z " fill="#000000" transform="translate(271,396)"/>
<path d="M0 0 C2.4375 1.5 2.4375 1.5 4 4 C4.5526067 6.78012445 4.58161929 9.22305298 4 12 C2.12984906 14.43119623 0.71861655 15.64069173 -2 17 C-2.54615918 18.7966759 -2.54615918 18.7966759 -2.81640625 20.98046875 C-2.94039795 21.80691895 -3.06438965 22.63336914 -3.19213867 23.48486328 C-3.31435791 24.3767334 -3.43657715 25.26860352 -3.5625 26.1875 C-3.75646362 27.56397705 -3.75646362 27.56397705 -3.9543457 28.96826172 C-5.56594215 40.73301891 -6.08244259 52.26066235 -6.125 64.125 C-6.13213013 65.75236084 -6.13213013 65.75236084 -6.1394043 67.41259766 C-6.12841581 72.78067772 -6.00589777 78.13348706 -5.6796875 83.4921875 C-5.62280762 84.43175293 -5.56592773 85.37131836 -5.50732422 86.33935547 C-4.92162926 89.41101268 -3.66662016 91.37992064 -2 94 C-1.74346561 96.62947749 -1.80450677 98.44906453 -2.6875 100.9375 C-3.24007695 103.19566092 -3.24007695 103.19566092 -1.5625 105.6875 C0.40979579 109.86876707 0.49931747 113.43892692 0 118 C-1 119 -1 119 -3.25 119.1328125 C-4.1575 119.13023437 -5.065 119.12765625 -6 119.125 C-7.36125 119.12886719 -7.36125 119.12886719 -8.75 119.1328125 C-11 119 -11 119 -12 118 C-12.09955104 116.06461065 -12.12968668 114.12544231 -12.125 112.1875 C-12.12757813 111.12917969 -12.13015625 110.07085938 -12.1328125 108.98046875 C-12 106 -12 106 -11.3984375 103.703125 C-11.26695312 103.14109375 -11.13546875 102.5790625 -11 102 C-11.495 101.525625 -11.99 101.05125 -12.5 100.5625 C-12.995 100.046875 -13.49 99.53125 -14 99 C-13.86650146 98.34966797 -13.73300293 97.69933594 -13.59545898 97.02929688 C-12.73826586 92.66847183 -12.91852835 88.40099342 -12.97265625 83.96875 C-12.98533046 81.93880396 -12.99768925 79.90885593 -13.00976562 77.87890625 C-13.03426799 74.71591797 -13.06192957 71.55303744 -13.09594727 68.39013672 C-13.23952206 54.12083745 -12.65990282 40.17525455 -11 26 C-10.86086182 24.76314453 -10.72172363 23.52628906 -10.57836914 22.25195312 C-10.37697442 20.48746585 -10.16989283 18.72360221 -9.953125 16.9609375 C-9.83302012 14.67125719 -9.83302012 14.67125719 -12 12 C-12.56551375 7.63746537 -12.49322651 5.70247412 -9.9375 2.0625 C-6.25937488 -0.52001338 -4.40768137 -0.72125695 0 0 Z " fill="#000000" transform="translate(184,413)"/>
<path d="M0 0 C1.010625 0.0825 2.02125 0.165 3.0625 0.25 C5.0625 3.25 5.0625 3.25 4.6875 6.4375 C4.48125 7.365625 4.275 8.29375 4.0625 9.25 C-1.34889241 10.57278481 -1.34889241 10.57278481 -3.875 9.1875 C-5.45095523 6.31369928 -4.74251033 4.33587291 -3.9375 1.25 C-2.9375 0.25 -2.9375 0.25 0 0 Z " fill="#000000" transform="translate(257.9375,420.75)"/>
<path d="M0 0 C2.625 0.375 2.625 0.375 5 1 C5.625 3.375 5.625 3.375 6 6 C5.34 6.66 4.68 7.32 4 8 C1.375 7.625 1.375 7.625 -1 7 C-1.625 4.625 -1.625 4.625 -2 2 C-1.34 1.34 -0.68 0.68 0 0 Z " fill="#000000" transform="translate(246,446)"/>
<path d="M0 0 C1.67542976 0.28604898 3.34385343 0.61781233 5 1 C5.625 2.875 5.625 2.875 6 5 C5.34 5.66 4.68 6.32 4 7 C1.375 6.625 1.375 6.625 -1 6 C-1.042721 4.33388095 -1.04063832 2.66617115 -1 1 C-0.67 0.67 -0.34 0.34 0 0 Z " fill="#000000" transform="translate(243,466)"/>
<path d="M0 0 C1.98 0.495 1.98 0.495 4 1 C3.67 2.32 3.34 3.64 3 5 C1.68 4.67 0.36 4.34 -1 4 C-0.67 2.68 -0.34 1.36 0 0 Z " fill="#000000" transform="translate(243,481)"/>
<path d="M0 0 C1.25159912 0.00523682 2.50319824 0.01047363 3.79272461 0.01586914 C4.78942421 0.01799156 4.78942421 0.01799156 5.80625916 0.02015686 C7.93590735 0.02577021 10.06545175 0.03832485 12.19506836 0.05102539 C13.63582205 0.05603868 15.07657739 0.06060188 16.51733398 0.06469727 C20.05581794 0.07489463 23.59407649 0.09446709 27.13256836 0.11352539 C27.13256836 9.02352539 27.13256836 17.93352539 27.13256836 27.11352539 C17.23256836 27.11352539 7.33256836 27.11352539 -2.86743164 27.11352539 C-3.05305664 22.84415039 -3.23868164 18.57477539 -3.42993164 14.17602539 C-3.49124268 12.82774658 -3.55255371 11.47946777 -3.61572266 10.09033203 C-3.65882568 9.0370874 -3.70192871 7.98384277 -3.74633789 6.89868164 C-3.79346924 5.81466064 -3.84060059 4.73063965 -3.88916016 3.61376953 C-3.85792847 0.02001982 -3.61920311 0.14328901 0 0 Z " fill="#000000" transform="translate(227.867431640625,498.886474609375)"/>
<path d="M0 0 C0.66 2.31 1.32 4.62 2 7 C0.02 7.66 -1.96 8.32 -4 9 C-4.33 13.29 -4.66 17.58 -5 22 C-10.28 22 -15.56 22 -21 22 C-21 15.07 -21 8.14 -21 1 C-17.1946875 0.7525 -17.1946875 0.7525 -13.3125 0.5 C-12.12781128 0.42168945 -12.12781128 0.42168945 -10.91918945 0.34179688 C-7.2730454 0.10944682 -3.65354718 -0.05764966 0 0 Z " fill="#000000" transform="translate(188,641)"/>
<path d="M0 0 C1.27423828 -0.00193359 1.27423828 -0.00193359 2.57421875 -0.00390625 C3.91419922 0.00189453 3.91419922 0.00189453 5.28125 0.0078125 C6.17457031 0.00394531 7.06789062 0.00007812 7.98828125 -0.00390625 C8.83777344 -0.00261719 9.68726563 -0.00132812 10.5625 0 C11.34689453 0.00112793 12.13128906 0.00225586 12.93945312 0.00341797 C14.78125 0.1328125 14.78125 0.1328125 15.78125 1.1328125 C15.86776611 2.54851373 15.88829904 3.9684075 15.87890625 5.38671875 C15.87568359 6.24072266 15.87246094 7.09472656 15.86914062 7.97460938 C15.86076172 8.87244141 15.85238281 9.77027344 15.84375 10.6953125 C15.83923828 11.59701172 15.83472656 12.49871094 15.83007812 13.42773438 C15.81825225 15.66282564 15.8017722 17.89778687 15.78125 20.1328125 C12.46919116 20.32873711 9.15659146 20.51313996 5.84375 20.6953125 C4.89822266 20.75138672 3.95269531 20.80746094 2.97851562 20.86523438 C1.62983398 20.93774414 1.62983398 20.93774414 0.25390625 21.01171875 C-0.99507446 21.08241577 -0.99507446 21.08241577 -2.26928711 21.15454102 C-4.21875 21.1328125 -4.21875 21.1328125 -5.21875 20.1328125 C-5.31735131 18.72932515 -5.34953937 17.32100773 -5.3515625 15.9140625 C-5.35285156 15.06457031 -5.35414063 14.21507812 -5.35546875 13.33984375 C-5.35160156 12.44652344 -5.34773437 11.55320312 -5.34375 10.6328125 C-5.34761719 9.73949219 -5.35148438 8.84617187 -5.35546875 7.92578125 C-5.35417969 7.07628906 -5.35289062 6.22679687 -5.3515625 5.3515625 C-5.35043457 4.56716797 -5.34930664 3.78277344 -5.34814453 2.97460938 C-5.09728569 -0.59610589 -3.08882052 0.00444161 0 0 Z " fill="#000000" transform="translate(218.21875,688.8671875)"/>
<path d="M0 0 C0.99 0.33 1.98 0.66 3 1 C3 5.29 3 9.58 3 14 C-1.29 14 -5.58 14 -10 14 C-10 9.71 -10 5.42 -10 1 C-6.85658007 -0.57170996 -3.44228549 -0.23175783 0 0 Z " fill="#000000" transform="translate(240,721)"/>
</svg>
