<?xml version="1.0" encoding="UTF-8"?>
<svg version="1.1" xmlns="http://www.w3.org/2000/svg" width="1024" height="1024">
<path d="M0 0 C17.82 0 35.64 0 54 0 C54 63.69 54 127.38 54 193 C36.18 193 18.36 193 0 193 C0 129.31 0 65.62 0 0 Z " fill="#000000" transform="translate(628,180)"/>
<path d="M0 0 C4.95 0 9.9 0 15 0 C15 5.28 15 10.56 15 16 C10.05 16 5.1 16 0 16 C0 10.72 0 5.44 0 0 Z " fill="#000000" transform="translate(740,183)"/>
<path d="M0 0 C5.28 0 10.56 0 16 0 C16.020625 2.454375 16.04125 4.90875 16.0625 7.4375 C16.071604 8.21150146 16.08070801 8.98550293 16.09008789 9.78295898 C16.09724913 11.52221717 16.05024702 13.26145304 16 15 C15 16 15 16 11.62109375 16.09765625 C10.22652508 16.09191424 8.83198403 16.07890228 7.4375 16.0625 C4.983125 16.041875 2.52875 16.02125 0 16 C0 10.72 0 5.44 0 0 Z " fill="#000000" transform="translate(802,205)"/>
<path d="M0 0 C1.39456867 0.00574201 2.78910972 0.01875397 4.18359375 0.03515625 C6.63796875 0.05578125 9.09234375 0.07640625 11.62109375 0.09765625 C11.62109375 5.37765625 11.62109375 10.65765625 11.62109375 16.09765625 C6.34109375 16.09765625 1.06109375 16.09765625 -4.37890625 16.09765625 C-4.39953125 13.64328125 -4.42015625 11.18890625 -4.44140625 8.66015625 C-4.45051025 7.88615479 -4.45961426 7.11215332 -4.46899414 6.31469727 C-4.47615538 4.57543908 -4.42915327 2.83620321 -4.37890625 1.09765625 C-3.37890625 0.09765625 -3.37890625 0.09765625 0 0 Z " fill="#000000" transform="translate(721.37890625,210.90234375)"/>
<path d="M0 0 C0.02886338 4.47915328 0.04675187 8.95828291 0.0625 13.4375 C0.07087891 14.71689453 0.07925781 15.99628906 0.08789062 17.31445312 C0.09272461 19.13686523 0.09272461 19.13686523 0.09765625 20.99609375 C0.10551147 22.68496704 0.10551147 22.68496704 0.11352539 24.40795898 C0 27 0 27 -1 28 C-2.98757028 28.09983058 -4.9786752 28.13080753 -6.96875 28.1328125 C-8.17917969 28.13410156 -9.38960937 28.13539063 -10.63671875 28.13671875 C-11.91160156 28.13285156 -13.18648437 28.12898438 -14.5 28.125 C-15.77488281 28.12886719 -17.04976562 28.13273437 -18.36328125 28.13671875 C-20.17892578 28.13478516 -20.17892578 28.13478516 -22.03125 28.1328125 C-23.15080078 28.13168457 -24.27035156 28.13055664 -25.42382812 28.12939453 C-28 28 -28 28 -29 27 C-29.08758003 25.00035018 -29.10696576 22.9976389 -29.09765625 20.99609375 C-29.09443359 19.78115234 -29.09121094 18.56621094 -29.08789062 17.31445312 C-29.07951172 16.03505859 -29.07113281 14.75566406 -29.0625 13.4375 C-29.05798828 12.15423828 -29.05347656 10.87097656 -29.04882812 9.54882812 C-29.03699545 6.36583978 -29.02051068 3.18294238 -29 0 C-25.10460543 -0.19747891 -21.20867984 -0.38123029 -17.3125 -0.5625 C-16.20970703 -0.61857422 -15.10691406 -0.67464844 -13.97070312 -0.73242188 C-12.90400391 -0.78076172 -11.83730469 -0.82910156 -10.73828125 -0.87890625 C-9.75899658 -0.9260376 -8.77971191 -0.97316895 -7.77075195 -1.02172852 C-5.04207295 -1.00032994 -2.64920937 -0.62794508 0 0 Z " fill="#000000" transform="translate(792,225)"/>
<path d="M0 0 C17.16 0 34.32 0 52 0 C52 47.19 52 94.38 52 143 C34.84 143 17.68 143 0 143 C0 95.81 0 48.62 0 0 Z " fill="#000000" transform="translate(560,230)"/>
<path d="M0 0 C4.95 0 9.9 0 15 0 C15 4.95 15 9.9 15 15 C10.05 15 5.1 15 0 15 C0 10.05 0 5.1 0 0 Z " fill="#000000" transform="translate(737,237)"/>
<path d="M0 0 C1 1 1 1 1.09765625 4.16015625 C1.04882812 9.58007812 1.04882812 9.58007812 1 15 C-3.62 15 -8.24 15 -13 15 C-14.44210526 4.90526316 -14.44210526 4.90526316 -12.6875 1.3125 C-8.58434576 -0.69136602 -4.48990852 -0.49887872 0 0 Z " fill="#000000" transform="translate(852,238)"/>
<path d="M0 0 C2.00720923 0.28674418 4.0085944 0.61866701 6 1 C6.625 3.375 6.625 3.375 7 6 C5 8 5 8 2.4375 8.1875 C0 8 0 8 -1 7 C-1.125 4 -1.125 4 -1 1 C-0.67 0.67 -0.34 0.34 0 0 Z " fill="#000000" transform="translate(807,239)"/>
<path d="M0 0 C1.98 0.495 1.98 0.495 4 1 C3.67 1.99 3.34 2.98 3 4 C1.68 3.67 0.36 3.34 -1 3 C-0.67 2.01 -0.34 1.02 0 0 Z " fill="#000000" transform="translate(718,245)"/>
<path d="M0 0 C1.32 0 2.64 0 4 0 C4.5625 1.9375 4.5625 1.9375 5 4 C4 5 4 5 1.4375 5.0625 C0.2309375 5.0315625 0.2309375 5.0315625 -1 5 C-0.67 3.35 -0.34 1.7 0 0 Z " fill="#000000" transform="translate(533,248)"/>
<path d="M0 0 C3.75514634 2.0408404 4.77457968 3.28395898 6.0625 7.375 C5.98603205 11.81014124 4.80644332 13.63226802 2 17 C-1.13871188 18.56935594 -3.53855822 18.35201103 -7 18 C-10.2856634 15.57146618 -11.70758271 13.87725186 -13 10 C-13 6.37396827 -12.20839025 4.83935889 -10 2 C-6.2626144 -0.4915904 -4.42668417 -0.45793285 0 0 Z " fill="#000000" transform="translate(505,250)"/>
<path d="M0 0 C2.375 1.5625 2.375 1.5625 4 4 C4.7099846 8.9698922 4.79117716 10.84919686 1.9375 15 C-1.77807226 17.52975133 -3.5882483 17.7878128 -8 17 C-10.72635471 14.8663311 -12.4658073 13.13961109 -13.9375 10 C-14.04745866 6.48132299 -12.765747 3.93221374 -10.5625 1.25 C-7.05450479 -1.55639617 -4.11739006 -1.09236879 0 0 Z " fill="#000000" transform="translate(479,256)"/>
<path d="M0 0 C1.875 1.0625 1.875 1.0625 3 3 C4.63474692 9.75695394 4.63474692 9.75695394 2.5 13.9375 C-0.75462885 16.6225688 -2.80236511 17 -7 17 C-9.91330459 15.76993806 -11.47142711 14.69675518 -13.375 12.1875 C-14.26089715 9.08685996 -13.89945179 7.08383471 -13 4 C-8.79939072 -1.01363043 -6.36609773 -1.3402311 0 0 Z " fill="#000000" transform="translate(453,263)"/>
<path d="M0 0 C1.2065625 0.0309375 1.2065625 0.0309375 2.4375 0.0625 C3.5625 3.8125 3.5625 3.8125 2.4375 6.0625 C0.7875 6.0625 -0.8625 6.0625 -2.5625 6.0625 C-2.94468767 4.40635343 -3.27645102 2.73792976 -3.5625 1.0625 C-2.5625 0.0625 -2.5625 0.0625 0 0 Z " fill="#000000" transform="translate(770.5625,262.9375)"/>
<path d="M0 0 C18.15 0 36.3 0 55 0 C55 19.47 55 38.94 55 59 C58.96 59 62.92 59 67 59 C70.55671885 59.32143749 74.0342982 59.68737081 77.5625 60.1875 C78.50359619 60.31987061 79.44469238 60.45224121 80.41430664 60.58862305 C104.8322278 64.24218245 128.46255735 71.73415772 145 91 C152.28896917 101.65020365 152.34412681 115.56092537 150.3828125 127.875 C142.4194266 161.13799243 115.48041858 185.67249939 89.14794922 205.3828125 C87.13896611 206.89537264 85.147101 208.42741251 83.16015625 209.96875 C67.12434952 222.33561066 50.08627084 233.22782146 32.23974609 242.78222656 C29.79336495 244.11234965 27.37444286 245.48515001 24.95703125 246.8671875 C24.12792236 247.33858154 23.29881348 247.80997559 22.44458008 248.2956543 C20.84622726 249.20569219 19.25086682 250.12101131 17.65893555 251.04223633 C15.80571497 252.08903456 13.90627161 253.0532468 12 254 C11.34 253.67 10.68 253.34 10 253 C11.28965176 251.62437146 12.62689293 250.29233607 14 249 C14.66 249 15.32 249 16 249 C16.20496094 248.47535156 16.40992188 247.95070313 16.62109375 247.41015625 C18.60510623 243.94234973 21.30511343 241.30748084 24.0625 238.4375 C28.88495142 233.33906292 33.43511692 228.12489057 37.82421875 222.64453125 C40.130317 219.84160752 42.54151531 217.16996725 45 214.5 C49.11378909 210.0301488 52.97087297 205.40955107 56.78515625 200.68359375 C59.66480887 197.19449084 62.70693876 193.87003079 65.75390625 190.52734375 C68.06187598 187.93037607 70.25555863 185.26595987 72.4375 182.5625 C76.29708603 177.79003797 80.37199991 173.26890891 84.52734375 168.75390625 C87.74420201 165.17114942 90.75451434 161.44105817 93.7734375 157.69140625 C95.99832788 155.00202121 98.31869667 152.4379026 100.6875 149.875 C108.53061285 141.23660648 113.56032083 133.64322081 113.31640625 121.69140625 C112.82359668 117.49948287 111.58166039 115.34918105 109 112 C104.79287126 108.84465345 100.90620383 107.88736611 95.72259521 107.84178162 C94.87743221 107.83200759 94.03226921 107.82223356 93.16149521 107.81216335 C92.2390514 107.8063931 91.31660759 107.80062284 90.36621094 107.79467773 C89.37451023 107.78464501 88.38280952 107.77461229 87.36105728 107.76427555 C84.15218692 107.73290315 80.9433042 107.70812448 77.734375 107.68359375 C75.75276284 107.66518915 73.77115464 107.64635241 71.78955078 107.6270752 C64.4430808 107.55864302 57.09653479 107.49858032 49.75 107.4375 C33.3325 107.293125 16.915 107.14875 0 107 C0 71.69 0 36.38 0 0 Z " fill="#000000" transform="translate(698,266)"/>
<path d="M0 0 C11.88 0 23.76 0 36 0 C36.33 13.53 36.66 27.06 37 41 C42.28 42.98 47.56 44.96 53 47 C56.62752456 48.57653997 60.19362002 50.15931904 63.75 51.875 C64.64267578 52.30498291 65.53535156 52.73496582 66.45507812 53.17797852 C87.5436125 63.52861462 106.06073717 78.76085832 115 101 C124.00016574 128.35281687 115.01360656 158.07538494 103 183 C93.76553356 201.12187482 82.13285857 217.51054835 69 233 C68.23945312 233.94488281 67.47890625 234.88976562 66.6953125 235.86328125 C59.58703882 244.57572492 51.69299569 252.49533287 43.75 260.4375 C43.182742 261.00566437 42.61548401 261.57382874 42.03103638 262.15921021 C35.86831181 268.32082254 29.66446149 274.37608284 23 280 C21.99019142 280.87680554 20.98103806 281.75436646 19.97265625 282.6328125 C11.24351344 290.10823949 2.21183204 297.13029711 -7 304 C-7.70753418 304.52851562 -8.41506836 305.05703125 -9.14404297 305.6015625 C-38.05439584 327.09408393 -69.05150359 345.43032692 -101 362 C-101.61319092 362.31926453 -102.22638184 362.63852905 -102.8581543 362.96746826 C-150.89343804 387.96794928 -201.36978749 407.76161068 -253 424 C-254.02371704 424.32297058 -254.02371704 424.32297058 -255.06811523 424.65246582 C-284.63688744 433.95672119 -314.78923709 441.1158678 -345 448 C-322.80251078 444.41294948 -300.86022335 440.31543808 -279 435 C-277.98800537 434.75570251 -277.98800537 434.75570251 -276.95556641 434.50646973 C-244.09615352 426.56975873 -211.5990504 417.05031311 -180 405 C-178.34581055 404.37641602 -178.34581055 404.37641602 -176.65820312 403.74023438 C-149.13758241 394.4469947 -149.13758241 394.4469947 -124.03645325 380.50061035 C-114.1455877 373.66877993 -102.43104055 375.35886577 -90.95703125 375.6328125 C-88.6186639 375.66648301 -86.28025599 375.69743672 -83.94181824 375.72579956 C-77.81743049 375.80732273 -71.69428995 375.92551153 -65.57067871 376.05157471 C-58.20709796 376.19544042 -50.84277759 376.2933541 -43.47856903 376.39904785 C-32.31808978 376.56433398 -21.16012957 376.78764673 -10 377 C-10 404.06 -10 431.12 -10 459 C-30.79 459 -51.58 459 -73 459 C-73 460.98 -73 462.96 -73 465 C-73.33 465.66 -73.66 466.32 -74 467 C-63.15175794 467.2086625 -52.30399418 467.36851001 -41.45415306 467.46630955 C-36.41581655 467.51325325 -31.37885416 467.57690479 -26.34130859 467.67895508 C-21.47825284 467.77685238 -16.61651718 467.83057886 -11.75255203 467.85389519 C-9.89843585 467.87050687 -8.04439085 467.90294877 -6.19083786 467.95157051 C3.7019439 468.62585384 3.7019439 468.62585384 12.4173584 465.02520752 C13.94829413 462.72799359 14.96668918 460.54898175 16 458 C18.83735039 455.08132429 20.2357646 454.1421404 24.234375 453.3984375 C31.31061827 453.35126254 36.55294192 453.67295217 42.22265625 458.16015625 C46.05192048 462.12407593 47.66409347 465.98456085 48.5625 471.375 C47.28348066 479.61756906 42.76386567 487.05193719 36 492 C30.68797297 493.81386289 24.64946203 494.19081575 19.48828125 491.87109375 C15.7326814 489.49358178 13.43203519 487.83540455 11.3515625 483.8125 C9.36561905 480.86207173 9.36561905 480.86207173 6.90478516 480.51806641 C4.32894914 480.40879473 1.8237133 480.47673587 -0.75 480.625 C-1.63816406 480.65207031 -2.52632812 480.67914062 -3.44140625 480.70703125 C-5.63008395 480.77763376 -7.81379568 480.87614473 -10 481 C-10.33 481.99 -10.66 482.98 -11 484 C-136.4 484 -261.8 484 -391 484 C-389.53148938 480.32872346 -388.72552286 478.34361579 -386.453125 475.42578125 C-385.69140991 474.43892334 -385.69140991 474.43892334 -384.91430664 473.43212891 C-384.36508545 472.73265137 -383.81586426 472.03317383 -383.25 471.3125 C-382.67435303 470.56919434 -382.09870605 469.82588867 -381.50561523 469.06005859 C-379.676844 466.70161351 -377.83971851 464.349913 -376 462 C-373.68624664 459.04264348 -371.37343412 456.0845602 -369.0625 453.125 C-368.4835498 452.38443359 -367.90459961 451.64386719 -367.30810547 450.88085938 C-363.06418286 445.42891565 -358.94984236 439.89158821 -354.875 434.3125 C-349.21702228 426.57012865 -343.34751446 419.03756365 -337.29589844 411.60009766 C-335.42630263 409.2916329 -333.59080515 406.95644777 -331.75 404.625 C-330.502011 403.08170496 -329.25206643 401.53998888 -328 400 C-327.05253906 398.79537109 -327.05253906 398.79537109 -326.0859375 397.56640625 C-325.43882812 396.78136719 -324.79171875 395.99632812 -324.125 395.1875 C-323.57070313 394.50042969 -323.01640625 393.81335938 -322.4453125 393.10546875 C-315.24078395 386.90220854 -305.93813152 384.55132907 -296.97488403 381.97958374 C-293.30483688 380.92292976 -289.64654908 379.82709728 -285.98828125 378.73046875 C-285.23725632 378.5054921 -284.48623138 378.28051544 -283.71244812 378.04872131 C-197.46943683 352.0467507 -113.75911659 312.07281877 -25.75683594 252.33300781 C-23.88337752 250.91151212 -21.9943618 249.51281276 -20.1015625 248.1171875 C-11.11909162 241.47621709 -2.39890482 234.55670779 6.22363281 227.45605469 C7.80432998 226.16038703 9.39742145 224.87987367 10.9921875 223.6015625 C17.21848464 218.60247755 23.09400255 213.30616654 28.921875 207.85546875 C31.52286335 205.42686403 34.18429863 203.07919557 36.875 200.75 C40.23130536 197.78283149 43.18555301 194.66144055 46.0703125 191.23828125 C47.93700358 189.07307074 49.88174024 186.99898145 51.84887695 184.92529297 C62.32922643 173.79665563 70.90677987 161.53168147 78 148 C78.55558594 146.94296875 79.11117188 145.8859375 79.68359375 144.796875 C87.35281874 129.26717253 91.42510543 110.57532227 86.875 93.4375 C79.84992872 74.82434385 66.58122685 64.06681215 49.02734375 55.6875 C25.33263269 45.40477621 -0.50912314 41.61086405 -26 39 C-26 36.36 -26 33.72 -26 31 C-13.13 32.485 -13.13 32.485 0 34 C0 22.78 0 11.56 0 0 Z M74 180 C75 182 75 182 75 182 Z M72 183 C73 185 73 185 73 185 Z M70 186 C70 189 70 189 70 189 Z M67 190 C67 193 67 193 67 193 Z M63 195 C62.34 196.32 61.68 197.64 61 199 C61.99 198.34 62.98 197.68 64 197 C63.67 196.34 63.34 195.68 63 195 Z M58 201 C58 204 58 204 58 204 Z M55 205 C54.37544922 205.6297876 53.75089844 206.2595752 53.10742188 206.90844727 C50.75371686 209.27935645 48.39765427 211.647874 46.04003906 214.01489258 C45.02673848 215.03317292 44.01434288 216.05235474 43.00292969 217.07250977 C37.7137223 222.40623028 32.4081665 227.66344902 26.69433594 232.54858398 C24.35886861 234.54921126 22.12386762 236.65298518 19.875 238.75 C15.1381073 243.07842629 10.21648649 247.0811538 5.12255859 250.98144531 C2.0287301 253.3596389 -0.94585433 255.8129071 -3.859375 258.41015625 C-8.07149225 262.13029578 -12.51569187 265.45274296 -17.0625 268.75 C-17.88959473 269.35416748 -18.71668945 269.95833496 -19.56884766 270.58081055 C-21.24852357 271.80766911 -22.92917524 273.03319299 -24.61083984 274.25732422 C-26.78398585 275.84243726 -28.95043976 277.4360256 -31.11328125 279.03515625 C-42.08392255 287.14322035 -53.17282937 294.96492444 -64.78588867 302.13134766 C-68.25343646 304.27300785 -71.69514228 306.44161226 -75.09375 308.69140625 C-84.90920105 315.18748818 -94.96723258 320.99594818 -105.33496094 326.56445312 C-109.0583653 328.57009784 -112.7663668 330.60352944 -116.47558594 332.63525391 C-120.16441762 334.6536353 -123.85875954 336.66179444 -127.55371094 338.66894531 C-129.67650819 339.8239843 -131.79575168 340.98520323 -133.9140625 342.1484375 C-143.96740756 347.6338335 -154.29114698 352.53348206 -164.64892578 357.41357422 C-167.54125342 358.78282564 -170.42678737 360.16528561 -173.30960083 361.5544281 C-204.81881211 376.72093972 -237.1775218 389.95350497 -270 402 C-271.10633789 402.40637695 -272.21267578 402.81275391 -273.35253906 403.23144531 C-279.56130013 405.50731969 -285.77619674 407.76558934 -292 410 C-287.72587584 411.42470805 -284.64353153 409.76082463 -280.56640625 408.30859375 C-279.28857269 407.86468292 -279.28857269 407.86468292 -277.98492432 407.4118042 C-275.17362284 406.43091416 -272.3678291 405.43533342 -269.5625 404.4375 C-268.59661957 404.09643219 -267.63073914 403.75536438 -266.6355896 403.40396118 C-205.78087991 381.90652019 -146.2295287 355.6209749 -90.69628906 322.59863281 C-88.20825151 321.12347255 -85.7123213 319.66331992 -83.2109375 318.2109375 C-68.05507431 309.40444598 -53.62618065 299.76745604 -39.32128906 289.64111328 C-37.29919242 288.21152413 -35.27207774 286.78957795 -33.2421875 285.37109375 C-23.56959153 278.58122407 -14.26532005 271.33242801 -5 264 C-3.95078369 263.17363037 -3.95078369 263.17363037 -2.88037109 262.33056641 C6.59114976 254.85186614 15.52186184 246.9605113 24.26123047 238.64160156 C26.9108885 236.14001484 29.61309931 233.69760234 32.3125 231.25 C44.5128157 220.41635349 44.5128157 220.41635349 55 208 C55 207.01 55 206.02 55 205 Z M-298 412 C-298.99 412.66 -299.98 413.32 -301 414 C-299.02 413.67 -297.04 413.34 -295 413 C-295.99 412.67 -296.98 412.34 -298 412 Z M-109 444 C-109.59270187 445.00052399 -110.18540375 446.00104797 -110.79606628 447.03189087 C-112.75896564 449.47137674 -113.81655395 449.9637995 -116.93929482 450.58002853 C-120.92702187 450.82192425 -124.89508175 450.87416061 -128.88793945 450.86474609 C-130.42563526 450.88278514 -131.96330227 450.90344057 -133.50093079 450.92651367 C-137.66999921 450.98166562 -141.83852215 451.00022334 -146.00790811 451.01222181 C-150.36699809 451.03098695 -154.72568035 451.08339305 -159.08451843 451.13223267 C-167.33619144 451.2195778 -175.58778537 451.27666166 -183.83978003 451.32287943 C-193.23535662 451.37697532 -202.63052317 451.46479832 -212.02580702 451.55545688 C-231.35032157 451.74117048 -250.67494455 451.88452188 -270 452 C-270 452.66 -270 453.32 -270 454 C-269.14033158 454.04361821 -269.14033158 454.04361821 -268.26329613 454.0881176 C-254.11317463 454.80609731 -239.96307379 455.52448297 -225.812994 456.24328423 C-219.63937243 456.556886 -213.46574899 456.87045043 -207.29210687 457.18364739 C-205.95303958 457.2515857 -204.61397324 457.31954243 -203.27490783 457.38751769 C-199.95376751 457.55610013 -196.63261267 457.72438714 -193.3114357 457.89224625 C-186.79057131 458.22229211 -180.27002163 458.55711555 -173.74993896 458.90228271 C-158.25279084 459.7203509 -158.25279084 459.7203509 -142.74567986 460.30890465 C-139.15568984 460.41798736 -135.56660905 460.5482972 -131.97737503 460.6796608 C-129.62274404 460.75513038 -127.26938951 460.79470139 -124.91390991 460.83273315 C-115.21776151 461.12108269 -115.21776151 461.12108269 -111.80340576 463.58538818 C-110.31640717 465.32141983 -109.187338 467.05619552 -108 469 C-104.27519826 471.35250636 -101.14061983 471.16322302 -96.92578125 470.47265625 C-93.08250004 469.52937628 -90.77175521 467.8782042 -88.1875 464.9375 C-86.40695011 460.53298185 -86.0014844 456.66682114 -87 452 C-89.483693 447.80485468 -92.4769799 444.83073824 -96.75 442.5 C-101.25605504 441.49865443 -104.73484088 442.38218102 -109 444 Z M20 469 C18.57998121 472.4612958 18.87057378 473.66996314 20.25 477.1875 C21.85810882 480.20397879 21.85810882 480.20397879 25 482 C29.32351988 482.56045628 31.29704773 482.4786058 34.9375 480 C37.21876473 476.68179675 37.81273098 474.88919871 37.55078125 470.9375 C36.50341554 467.25314971 34.16729927 465.87691809 31 464 C25.53344913 462.88437737 23.32545337 464.72441709 20 469 Z " fill="#000000" transform="translate(786,266)"/>
<path d="M0 0 C2.51395067 2.27066512 2.93130182 3.59639822 3.5 6.9375 C2.81873722 11.1102345 1.33037744 12.46601717 -2 15 C-5.56943823 16.18981274 -7.237125 16.29474716 -10.75 14.9375 C-13.66635538 12.42619398 -14.40433981 10.79733371 -15 7 C-13.80781137 3.42343412 -12.56231279 1.49983359 -9.75 -1 C-5.84931124 -2.41843227 -3.760575 -1.60172639 0 0 Z " fill="#000000" transform="translate(428,272)"/>
<path d="M0 0 C10.625 -0.25 10.625 -0.25 14 2 C14.328125 4.56640625 14.328125 4.56640625 14.25 7.5625 C14.23453125 8.55378906 14.2190625 9.54507812 14.203125 10.56640625 C14 13 14 13 13 14 C8.66469082 14.14393457 4.33842269 14.04212061 0 14 C0 9.38 0 4.76 0 0 Z " fill="#000000" transform="translate(835,271)"/>
<path d="M0 0 C0.99 0.66 1.98 1.32 3 2 C2.67 3.65 2.34 5.3 2 7 C0.35 6.67 -1.3 6.34 -3 6 C-2.625 3.5625 -2.625 3.5625 -2 1 C-1.34 0.67 -0.68 0.34 0 0 Z " fill="#000000" transform="translate(770,276)"/>
<path d="M0 0 C4.0553591 1.35178637 5.39946313 2.33855434 7.375 6.125 C7.44883065 10.33334731 7.04302141 12.33552015 4.3125 15.5625 C0.17838968 17.76149485 -1.96605 17.79056429 -6.625 17.125 C-9.1875 15.0625 -9.1875 15.0625 -10.625 12.125 C-10.79261229 7.43185583 -10.10415416 5.67260476 -7 2.125 C-3.625 0.125 -3.625 0.125 0 0 Z " fill="#000000" transform="translate(398.625,279.875)"/>
<path d="M0 0 C1.32091644 0.0001133 1.32091644 0.0001133 2.66851807 0.00022888 C3.61031921 0.00539017 4.55212036 0.01055145 5.52246094 0.01586914 C6.97891022 0.01799156 6.97891022 0.01799156 8.46478271 0.02015686 C11.56216529 0.02574876 14.65947525 0.0382998 17.75683594 0.05102539 C19.85839739 0.05604144 21.95995998 0.06060416 24.06152344 0.06469727 C29.20998886 0.07571554 34.35840009 0.09297465 39.50683594 0.11352539 C40.25252213 5.92825245 40.64979989 11.61875188 40.62036133 17.47900391 C40.62050735 18.26060379 40.62065338 19.04220367 40.62080383 19.8474884 C40.62011477 22.39583242 40.61237021 24.94410061 40.60449219 27.49243164 C40.60262442 29.27318787 40.60120221 31.05394461 40.60020447 32.83470154 C40.59640751 37.49530485 40.58660166 42.15587642 40.57550049 46.81646729 C40.56341512 52.42252191 40.55887068 58.02858722 40.55304718 63.63465118 C40.54338812 72.12763125 40.5242119 80.62054183 40.50683594 89.11352539 C24.33683594 89.11352539 8.16683594 89.11352539 -8.49316406 89.11352539 C-8.49316406 60.07352539 -8.49316406 31.03352539 -8.49316406 1.11352539 C-5.30200768 0.3157363 -3.18961413 -0.00916556 0 0 Z " fill="#000000" transform="translate(504.4931640625,283.886474609375)"/>
<path d="M0 0 C2.84610137 2.31245736 2.9706247 3.7980448 3.5 7.4375 C3 11 3 11 0.875 13.875 C-2.32915727 16.24329016 -4.02790584 17 -8 17 C-12.56521739 14.86956522 -12.56521739 14.86956522 -14 12 C-14.34568746 8.98758074 -14.57160769 6.90798473 -14 4 C-9.61412368 -1.37269849 -6.58836703 -1.83610229 0 0 Z " fill="#000000" transform="translate(377,293)"/>
<path d="M0 0 C-6.92089026 2.76302551 -14.02123763 4.82754578 -21.16372681 6.92803955 C-41.9074431 13.05296125 -62.08387246 20.43358092 -82.08911133 28.66455078 C-87.7962969 31 -87.7962969 31 -90 31 C-89.505 31.86625 -89.01 32.7325 -88.5 33.625 C-86.88395761 37.26109537 -86.34834682 39.09008091 -87 43 C-88.83789612 45.92021272 -90.86415699 48.43207849 -94 50 C-97.86889612 50.43964729 -99.75665494 50.12635224 -103.25 48.3125 C-106.14491446 45.87814011 -106.78032186 44.46917885 -108 41 C-145.06518978 57.38013918 -180.06955765 77.83604061 -211.38623047 103.67431641 C-212.88340408 104.90421848 -214.39617536 106.11506623 -215.91015625 107.32421875 C-231.40049446 119.73877757 -246.62822912 133.7343212 -258.91015625 149.35546875 C-261.11312274 152.14314784 -263.42653607 154.81221693 -265.75 157.5 C-296.10716382 193.97566195 -318.4368993 241.26179011 -314.375 289.5625 C-311.67093805 316.06955015 -299.69226435 338.8121201 -279.43359375 356.203125 C-247.46755452 381.6336875 -204.79879028 388.70337529 -165.0625 388.375 C-164.04674896 388.37034729 -163.03099792 388.36569458 -161.98446655 388.36090088 C-133.86233634 388.21101574 -106.65589435 384.93098498 -79.00276184 380.05029297 C-73.09507847 379.00865316 -67.17779401 378.04437978 -61.25 377.125 C-60.48196045 377.00511719 -59.7139209 376.88523437 -58.92260742 376.76171875 C-57.28198056 376.50625168 -55.64103861 376.25280865 -54 376 C-55.7984157 380.1752692 -58.57817128 383.59536831 -61.3125 387.1875 C-61.84085449 387.88657471 -62.36920898 388.58564941 -62.91357422 389.3059082 C-64.60486198 391.54048672 -66.3015726 393.77084422 -68 396 C-68.55252441 396.72574219 -69.10504883 397.45148438 -69.67431641 398.19921875 C-73.4392324 403.1407403 -77.21746739 408.07195686 -81 413 C-81.85027904 414.10936073 -82.70054077 415.21873472 -83.55078125 416.328125 C-87.20202926 421.08490637 -90.86540467 425.8312729 -94.5546875 430.55859375 C-95.17609619 431.35531494 -95.79750488 432.15203613 -96.43774414 432.97290039 C-97.65434919 434.53172017 -98.87221159 436.08955975 -100.09155273 437.64624023 C-100.65559814 438.36884033 -101.21964355 439.09144043 -101.80078125 439.8359375 C-102.35088867 440.53412598 -102.90099609 441.23231445 -103.46777344 441.95166016 C-105.01479214 443.95403457 -105.01479214 443.95403457 -106.24316406 446.02880859 C-108.36500463 449.47080687 -109.80166997 451.31741359 -113.8203125 452.3046875 C-115.25079364 452.52557062 -116.68641873 452.71515764 -118.125 452.875 C-118.82109375 452.978125 -119.5171875 453.08125 -120.234375 453.1875 C-122.48631328 453.50686579 -124.73813689 453.76127908 -127 454 C-127.78922852 454.08773682 -128.57845703 454.17547363 -129.39160156 454.26586914 C-180.32540376 459.44926919 -234.37961361 455.04206367 -280.22802734 430.92431641 C-281.79284259 430.10805979 -283.37386995 429.32304691 -284.95703125 428.54296875 C-293.11573948 424.39791493 -299.99477942 418.82011102 -307 413 C-308.34964844 411.90171875 -308.34964844 411.90171875 -309.7265625 410.78125 C-332.98765424 390.99086084 -347.85828625 359.09711381 -350.52734375 328.890625 C-350.80139925 324.92726813 -350.94273532 320.97208644 -351 317 C-350.67 317 -350.34 317 -350 317 C-349.70867187 318.1859375 -349.41734375 319.371875 -349.1171875 320.59375 C-341.11657036 352.49343402 -326.89673792 379.21912412 -298 397 C-265.98234634 415.65924067 -229.32973301 419.36249179 -193 419 C-193 418.34 -193 417.68 -193 417 C-192.04859131 416.9498877 -191.09718262 416.89977539 -190.11694336 416.84814453 C-186.51015723 416.65655852 -182.90384322 416.45702943 -179.29760742 416.25537109 C-177.75117203 416.16994682 -176.20462362 416.0865391 -174.65795898 416.00537109 C-156.45608753 415.04706652 -138.91538192 412.16069033 -121.03613281 408.68652344 C-117.48088534 407.99628898 -113.92415893 407.31410106 -110.3671875 406.6328125 C-108.08845039 406.19318116 -105.8098013 405.75309332 -103.53125 405.3125 C-101.94987244 405.00928833 -101.94987244 405.00928833 -100.33654785 404.69995117 C-95.13774745 403.68547902 -90.0634623 402.55853583 -85 401 C-86.7951001 401.33994995 -86.7951001 401.33994995 -88.62646484 401.68676758 C-122.09000695 408.00158381 -154.84958241 412.72171274 -188.9375 413.5625 C-190.60352285 413.60584289 -192.26953856 413.64946122 -193.93554688 413.69335938 C-197.95695634 413.79873508 -201.97844278 413.90042956 -206 414 C-203.03 414.33 -200.06 414.66 -197 415 C-197 415.33 -197 415.66 -197 416 C-234.52529061 416.88398191 -275.14451406 405.5586991 -304 381 C-304.90234375 380.24847656 -305.8046875 379.49695313 -306.734375 378.72265625 C-329.65304963 358.9639807 -342.51907022 327.80256152 -345 298 C-347.11805155 262.50862833 -339.29822827 217.57393619 -316.296875 188.875 C-314.73592994 186.61821196 -314.67204583 185.27704458 -314.625 182.5625 C-314.32401684 178.98021018 -314.03938522 178.05401401 -311.8125 175 C-308.62009999 172.72984888 -306.91216043 172 -303 172 C-299.71922154 173.32492976 -297.499964 174.500036 -295 177 C-294.19949219 175.92685547 -294.19949219 175.92685547 -293.3828125 174.83203125 C-291.36563757 172.13432153 -289.34387697 169.44022055 -287.31738281 166.74951172 C-286.45636016 165.60605576 -285.59629272 164.46187973 -284.73730469 163.31689453 C-279.84557634 156.80801834 -274.83455309 150.49678849 -269.30078125 144.51171875 C-267.45132851 142.49270667 -265.66478019 140.44470617 -263.8828125 138.3671875 C-259.34033596 133.16197513 -254.45608436 128.31021619 -249.5625 123.4375 C-248.65951172 122.53064453 -247.75652344 121.62378906 -246.82617188 120.68945312 C-241.71316478 115.58385082 -236.51841447 110.66397772 -231 106 C-230.36022217 105.45351807 -229.72044434 104.90703613 -229.0612793 104.34399414 C-218.77873196 95.60836739 -208.16277582 87.57162283 -197 80 C-196.1745166 79.43780762 -195.3490332 78.87561523 -194.49853516 78.29638672 C-188.37292094 74.13492032 -182.20587304 70.0407531 -176 66 C-175.26765137 65.52208008 -174.53530273 65.04416016 -173.78076172 64.55175781 C-157.71346575 54.15945323 -140.45591375 45.1369194 -123.01953125 37.25390625 C-122.139021 36.85445801 -121.25851074 36.45500977 -120.35131836 36.04345703 C-118.75752171 35.33164605 -117.15583636 34.63711372 -115.54516602 33.96435547 C-110.70810515 31.82186965 -108.9125118 29.90455989 -107 25 C-105.1875 23.0625 -105.1875 23.0625 -103 22 C-100.18692951 22.23442254 -97.74450597 22.75637598 -95.06689453 23.63256836 C-92.51524517 24.08617482 -91.30836743 23.62200374 -88.9296875 22.62890625 C-88.12958252 22.30583496 -87.32947754 21.98276367 -86.50512695 21.64990234 C-85.63718506 21.29105957 -84.76924316 20.9322168 -83.875 20.5625 C-60.01833901 11.12511323 -35.27170003 4.70738814 -10.0625 0.0625 C-9.03370728 -0.13049683 -9.03370728 -0.13049683 -7.98413086 -0.32739258 C-4.83143573 -0.87045421 -3.09395746 -1.03131915 0 0 Z M-223 412 C-223 412.33 -223 412.66 -223 413 C-220.36 413 -217.72 413 -215 413 C-215 412.67 -215 412.34 -215 412 C-217.64 412 -220.28 412 -223 412 Z " fill="#000000" transform="translate(486,298)"/>
<path d="M0 0 C1.65 0.33 3.3 0.66 5 1 C4.67 2.32 4.34 3.64 4 5 C2.0625 4.625 2.0625 4.625 0 4 C-0.33 3.34 -0.66 2.68 -1 2 C-0.67 1.34 -0.34 0.68 0 0 Z " fill="#000000" transform="translate(841,298)"/>
<path d="M0 0 C2.9375 2.0625 2.9375 2.0625 5 5 C5.15129568 9.31192698 4.70478473 11.21466844 1.8125 14.4375 C-1.52215137 16.29008409 -3.2444323 16.63924557 -7 16 C-9.375 14.5 -9.375 14.5 -11 12 C-11.6152392 9.19404927 -11.65993392 6.80041522 -11 4 C-7.75032314 0.17685075 -4.94151119 -0.92653335 0 0 Z " fill="#000000" transform="translate(350,306)"/>
<path d="M0 0 C3.59652947 0.68869713 4.75824049 1.65682065 6.9375 4.5625 C7.875 6.5 7.875 6.5 7.9375 8.5625 C6.26845015 12.16413388 4.41997185 14.61641279 0.9375 16.5625 C-2.35752846 17.13912998 -3.59070198 16.88128245 -6.375 15 C-8.73103286 11.59684143 -8.70323066 9.62046087 -8.0625 5.5625 C-5.58756641 2.14126827 -4.17986219 0.76772979 0 0 Z " fill="#000000" transform="translate(324.0625,319.4375)"/>
<path d="M0 0 C1.34644592 -0.00472824 1.34644592 -0.00472824 2.72009277 -0.009552 C4.18412537 -0.00651566 4.18412537 -0.00651566 5.67773438 -0.00341797 C6.67276978 -0.00437469 7.66780518 -0.00533142 8.69299316 -0.00631714 C10.80135155 -0.00699907 12.90971203 -0.0051439 15.01806641 -0.00097656 C18.25753465 0.0043715 21.49686423 -0.00092114 24.73632812 -0.00732422 C26.77929718 -0.00666344 28.82226615 -0.00538228 30.86523438 -0.00341797 C31.8412561 -0.0054422 32.81727783 -0.00746643 33.82287598 -0.009552 C34.72050659 -0.00639984 35.61813721 -0.00324768 36.54296875 0 C37.73424377 0.00119339 37.73424377 0.00119339 38.94958496 0.00241089 C40.77148438 0.12939453 40.77148438 0.12939453 41.77148438 1.12939453 C41.87267719 4.20852012 41.91116764 7.26474952 41.90429688 10.34423828 C41.9052536 11.27031387 41.90621033 12.19638947 41.90719604 13.15052795 C41.90787799 15.11345487 41.90602269 17.07638403 41.90185547 19.03930664 C41.89651345 22.05050716 41.90179685 25.0615581 41.90820312 28.07275391 C41.90754223 29.97574903 41.90626082 31.87874406 41.90429688 33.78173828 C41.90632111 34.68697739 41.90834534 35.59221649 41.91043091 36.52488708 C41.90570267 37.78112633 41.90570267 37.78112633 41.90087891 39.06274414 C41.90008331 39.8014122 41.89928772 40.54008026 41.89846802 41.3011322 C41.77148438 43.12939453 41.77148438 43.12939453 40.77148438 45.12939453 C25.59148437 45.12939453 10.41148437 45.12939453 -5.22851562 45.12939453 C-5.24914062 37.89001953 -5.26976562 30.65064453 -5.29101562 23.19189453 C-5.30011963 20.90388916 -5.30922363 18.61588379 -5.31860352 16.25854492 C-5.32152257 14.45638081 -5.32407116 12.65421604 -5.32617188 10.85205078 C-5.33128784 9.90712769 -5.33640381 8.96220459 -5.3416748 7.98864746 C-5.34179565 7.095448 -5.3419165 6.20224854 -5.34204102 5.28198242 C-5.34426163 4.50254776 -5.34648224 3.7231131 -5.34877014 2.9200592 C-5.11139077 -0.6146676 -3.03699512 0.00304239 0 0 Z " fill="#000000" transform="translate(440.228515625,327.87060546875)"/>
<path d="M0 0 C2.9375 0.625 2.9375 0.625 5.375 2.75 C6.9375 5.625 6.9375 5.625 7 8.6875 C5.64242996 12.44078187 4.44300734 13.71983297 0.9375 15.625 C-2.75 15.5625 -2.75 15.5625 -6.0625 14.625 C-8.40799674 11.10675489 -8.64241403 9.76724306 -8.0625 5.625 C-5.58127621 2.26805016 -4.11884831 0.84058129 0 0 Z " fill="#000000" transform="translate(303.0625,334.375)"/>
<path d="M0 0 C1.875 1.75 1.875 1.75 3 4 C3 7.57964078 2.25721358 8.7356416 -0.25 11.3125 C-3.24839762 13.15242581 -4.56338026 13.63306153 -8 13 C-9.8125 11.875 -9.8125 11.875 -11 10 C-11.4375 7.0625 -11.4375 7.0625 -11 4 C-7.56871659 -0.23191621 -5.29443833 -1.67872435 0 0 Z " fill="#000000" transform="translate(286,352)"/>
<path d="M0 0 C1.9375 1.125 1.9375 1.125 3 3 C2.8701011 6.11757366 2.48916419 8.22763549 0.8125 10.875 C-1.90024939 12.55877549 -3.87875511 12.39015561 -7 12 C-8.9375 10.875 -8.9375 10.875 -10 9 C-9.8701011 5.88242634 -9.48916419 3.77236451 -7.8125 1.125 C-5.09975061 -0.55877549 -3.12124489 -0.39015561 0 0 Z " fill="#000000" transform="translate(266,369)"/>
<path d="M0 0 C0.66 0.66 1.32 1.32 2 2 C1.8528623 5.45773598 1.55210063 7.36902785 -0.75 10 C-3 11 -3 11 -5.6875 10.25 C-8 9 -8 9 -9 8 C-9.29178308 5.22806071 -9.36366316 3.58590175 -7.875 1.1875 C-5.16554166 -0.52849028 -3.13704316 -0.333728 0 0 Z " fill="#000000" transform="translate(249,386)"/>
<path d="M0 0 C1.43601569 -0.00107704 2.87203094 -0.00302193 4.30804443 -0.00575256 C8.15266436 -0.01053377 11.99716533 -0.00303286 15.84177089 0.00720048 C19.89073311 0.01608523 23.93969274 0.01422159 27.98866272 0.01383972 C34.77582757 0.01477121 41.56294723 0.0233886 48.35009766 0.03710938 C56.17668091 0.05287379 64.00321496 0.05810563 71.82981294 0.05737382 C80.2040611 0.05669681 88.57829053 0.06364088 96.95253301 0.07282043 C99.35033888 0.07494296 101.74814169 0.07566037 104.14594841 0.07605934 C107.91931307 0.07706905 111.69263699 0.08321655 115.46598816 0.09322548 C117.4977934 0.09750356 119.529607 0.09698208 121.56141663 0.09628296 C128.0700171 0.11892255 134.38113435 0.36530069 140.83227539 1.24291992 C138.33742812 5.62780301 135.42869904 9.60003423 132.39477539 13.61791992 C131.86907959 14.31691406 131.34338379 15.0159082 130.80175781 15.73608398 C126.6738686 21.19572862 122.42420442 26.54923327 118.12573242 31.875 C114.34899424 36.56402669 110.72156762 41.34934886 107.13305664 46.18432617 C104.00120909 50.34771604 100.77977014 54.43771205 97.54882812 58.52441406 C94.89200652 61.85565621 94.89200652 61.85565621 92.54995728 65.4085083 C90.83227539 67.24291992 90.83227539 67.24291992 88.1914978 67.6930542 C87.12726593 67.67051575 86.06303406 67.64797729 84.96655273 67.62475586 C83.14917099 67.60339569 83.14917099 67.60339569 81.29507446 67.581604 C80.64514149 67.56463722 79.99520851 67.54767044 79.3255806 67.53018951 C77.25653975 67.47634046 75.18833668 67.44611404 73.1187439 67.42230225 C70.18273714 67.38784976 67.2469927 67.34555206 64.31115723 67.29882812 C53.52999797 67.14514683 42.74413651 67.3084275 31.9631691 67.42676544 C28.32120757 67.46666048 24.67950902 67.49875417 21.03735352 67.51391602 C-8.83808957 67.64692477 -35.34128065 71.40529481 -57.86694336 92.82495117 C-76.29439798 112.19098582 -82.68384992 136.52011039 -82.38256836 162.70776367 C-81.9613945 178.12900546 -76.81662468 192.19756101 -67.16772461 204.24291992 C-66.66885742 204.86811523 -66.16999023 205.49331055 -65.65600586 206.13745117 C-54.2019243 218.91870591 -34.01580946 225.25003135 -17.42678261 226.43944168 C-14.58752617 226.52498845 -11.75361751 226.55550424 -8.91308594 226.56176758 C-7.84834045 226.5718132 -6.78359497 226.58185883 -5.68658447 226.59220886 C-2.20764652 226.62281489 1.2712153 226.64001277 4.75024414 226.65698242 C7.17833603 226.67571225 9.60642153 226.695287 12.03450012 226.71566772 C18.39490988 226.76680308 24.7553407 226.80652801 31.11584473 226.84381104 C37.61837901 226.88396771 44.12082709 226.93500665 50.62329102 226.98510742 C63.35955735 227.08164634 76.0958733 227.16649126 88.83227539 227.24291992 C86.95539774 231.26040005 84.31201943 234.31907031 81.39477539 237.61791992 C77.24742092 242.38050695 73.21964317 247.20354006 69.33227539 252.18041992 C68.87626953 252.74801025 68.42026367 253.31560059 67.95043945 253.90039062 C65.53453346 256.93132406 63.34505457 259.97490783 61.32055664 263.28198242 C56.54039178 270.70786306 52.41910532 274.77003874 43.64819336 276.8527832 C39.45094383 277.64356935 35.24854079 278.27019327 31.01245117 278.81323242 C27.94661259 279.22747132 24.92890592 279.75482148 21.89086914 280.33666992 C-24.1316128 289.05554819 -80.8851904 292.45686003 -121.41381836 265.04760742 C-150.02923795 244.123721 -165.09680546 217.5427312 -170.73413086 182.74682617 C-171.51072477 176.17783911 -171.41210972 169.53667586 -171.41772461 162.93041992 C-171.41839935 162.21771942 -171.4190741 161.50501892 -171.41976929 160.77072144 C-171.40264639 149.36799029 -170.82065729 138.36837642 -168.16772461 127.24291992 C-168.00675293 126.55343262 -167.84578125 125.86394531 -167.67993164 125.15356445 C-157.74096899 84.20427454 -130.39160128 48.11769681 -94.68334961 26.03979492 C-77.48032612 15.97166597 -59.49090902 8.44427548 -40.04272461 3.99291992 C-39.38796143 3.84177734 -38.73319824 3.69063477 -38.05859375 3.53491211 C-25.4585841 0.84131613 -12.8547173 -0.0554436 0 0 Z " fill="#000000" transform="translate(384.167724609375,389.757080078125)"/>
<path d="M0 0 C1.40185028 0.00106876 1.40185028 0.00106876 2.83202076 0.00215912 C4.4461023 -0.00011436 4.4461023 -0.00011436 6.09279156 -0.00243378 C7.89220542 0.00292137 7.89220542 0.00292137 9.72797108 0.0083847 C11.62894393 0.00842247 11.62894393 0.00842247 13.56832027 0.008461 C17.11756265 0.00899643 20.66676422 0.01628639 24.21599507 0.02490044 C27.26687902 0.03159838 30.3177631 0.03471376 33.36865228 0.03802347 C73.37270833 0.08393954 113.37644807 0.33372075 153.37973773 0.56900024 C163.944465 0.6310615 174.5092052 0.69077808 185.0739466 0.7503767 C206.68430315 0.87233522 228.29464337 0.99699015 249.90497303 1.12361908 C248.95282336 2.4040678 247.99916142 3.68339208 247.04486561 4.96224213 C246.24850445 6.03105873 246.24850445 6.03105873 245.43605518 7.12146759 C243.60672599 9.51362803 241.6428175 11.73132305 239.59247303 13.93611908 C235.67816272 18.22228887 231.99235949 22.64620286 228.33856678 27.15486908 C222.55580398 34.20928277 216.55379685 41.08371773 210.56512928 47.96346283 C209.4491561 49.24593855 208.33327034 50.52849034 207.21747303 51.81111908 C206.39448719 52.75676727 206.39448719 52.75676727 205.55487537 53.72151947 C202.39442816 57.36559215 199.30752942 61.05500634 196.27997303 64.81111908 C192.68572956 69.25455194 188.87920415 73.4647693 184.98822498 77.64608002 C182.01730302 80.85693516 179.20518108 84.15012297 176.46747303 87.56111908 C172.62451824 92.33903246 168.53665974 96.81356892 164.34882069 101.28524017 C160.42590449 105.49791013 156.78586279 109.88775463 153.18231678 114.37752533 C150.24419852 117.92040207 147.12266125 121.2780368 143.98846912 124.64559174 C141.01767237 127.85678781 138.20528982 131.14998749 135.46747303 134.56111908 C131.62322664 139.3406383 127.53408258 143.81682252 123.34442616 148.2896347 C120.24731838 151.61499185 117.30882927 155.01072715 114.46747303 158.56111908 C110.95853433 162.93614791 107.24646501 167.04375816 103.40497303 171.12361908 C98.78351308 176.03317004 94.38475349 181.03886563 90.19794178 186.33065033 C89.44126209 187.25233002 88.68458241 188.1740097 87.90497303 189.12361908 C87.43825184 189.79393158 86.97153065 190.46424408 86.49066639 191.15486908 C80.15254234 199.4498432 71.43183429 202.56136949 62.09247303 206.49861908 C60.38171215 207.23898566 58.6716755 207.98102781 56.96234608 208.7246933 C51.95749247 210.89201051 46.93402284 213.01317905 41.90497303 215.12361908 C40.53548832 215.70104901 39.16602092 216.27852001 37.79657459 216.85604095 C17.06297628 225.57561195 -4.04446166 233.1757847 -25.28252697 240.56111908 C-26.68146694 241.04827896 -26.68146694 241.04827896 -28.10866833 241.54528046 C-39.27505668 245.43265552 -50.44631332 249.30458856 -61.65752697 253.06111908 C-62.61876476 253.3845932 -63.58000256 253.70806732 -64.57036877 254.04134369 C-65.42542004 254.32501801 -66.28047131 254.60869232 -67.16143322 254.90096283 C-68.24339977 255.26049042 -68.24339977 255.26049042 -69.34722424 255.62728119 C-71.09502697 256.12361908 -71.09502697 256.12361908 -73.09502697 256.12361908 C-71.59496306 252.67582822 -69.59093435 250.30001375 -67.03252697 247.56111908 C-63.76786121 244.00962166 -60.66440204 240.39558869 -57.65752697 236.62361908 C-53.85222353 231.91513717 -49.74694302 227.67488049 -45.42315197 223.44393158 C-42.83242534 220.86189866 -40.44861181 218.16228573 -38.07158947 215.38533783 C-35.47117747 212.40976758 -32.78362706 209.5194148 -30.09502697 206.62361908 C-26.90292997 203.18252779 -23.72324373 199.7411273 -20.65752697 196.18611908 C-16.83911187 191.76726524 -12.83454938 187.52364477 -8.85088634 183.25447845 C-6.07163606 180.2705423 -3.316739 177.27838345 -0.65752697 174.18611908 C3.31147892 169.58048066 7.49893058 165.17622926 11.66840076 160.75276947 C14.61967897 157.61229081 17.5187334 154.44206376 20.34247303 151.18611908 C24.72643141 146.14163125 29.33973252 141.32154444 33.94403553 136.47908783 C38.38344748 131.79113737 42.67580533 127.00136637 46.90497303 122.12361908 C52.19617536 116.17557784 57.5703244 110.30470313 62.95868397 104.44490814 C65.47653367 101.7008937 67.96506431 98.93710234 70.40497303 96.12361908 C75.12330507 90.68630311 80.03122577 85.42117045 84.90497303 80.12361908 C90.34997303 74.18361908 90.34997303 74.18361908 95.90497303 68.12361908 C22.64497303 67.62861908 22.64497303 67.62861908 -52.09502697 67.12361908 C-50.2710667 62.5637184 -48.58856272 59.91290484 -45.59502697 56.12361908 C-44.68340473 54.96098717 -43.77195082 53.79822324 -42.86065197 52.63533783 C-42.397234 52.04800873 -41.93381603 51.46067963 -41.45635509 50.85555267 C-39.39563114 48.23382101 -37.37202544 45.58396973 -35.34502697 42.93611908 C-30.76056691 36.96744668 -26.13362511 31.0320905 -21.50738049 25.09578705 C-16.66439658 18.87353509 -11.86788334 12.61664317 -7.09380627 6.34139252 C-6.3267738 5.33447357 -6.3267738 5.33447357 -5.54424572 4.30721283 C-5.09396008 3.71480804 -4.64367443 3.12240326 -4.17974377 2.51204681 C-2.32434264 0.13715007 -2.32434264 0.13715007 0 0 Z " fill="#000000" transform="translate(546.0950269699097,389.87638092041016)"/>
<path d="M0 0 C3.125 -0.1875 3.125 -0.1875 6 0 C6.6875 2.3125 6.6875 2.3125 7 5 C5.875 6.875 5.875 6.875 4 8 C1.3125 7.6875 1.3125 7.6875 -1 7 C-1.625 5.1875 -1.625 5.1875 -2 3 C-1.34 2.01 -0.68 1.02 0 0 Z " fill="#000000" transform="translate(229,402)"/>
<path d="M0 0 C1.32 0 2.64 0 4 0 C4.33 1.65 4.66 3.3 5 5 C3.35 4.67 1.7 4.34 0 4 C0 2.68 0 1.36 0 0 Z " fill="#000000" transform="translate(221,412)"/>
<path d="M0 0 C2.125 0.375 2.125 0.375 4 1 C3.67 2.65 3.34 4.3 3 6 C1.68 6.33 0.36 6.66 -1 7 C-1.625 4.625 -1.625 4.625 -2 2 C-1.34 1.34 -0.68 0.68 0 0 Z " fill="#000000" transform="translate(214,422)"/>
<path d="M0 0 C3.18306508 1.90983905 5.58458319 4.19720502 8 7 C8.83724609 7.94359375 8.83724609 7.94359375 9.69140625 8.90625 C12.19890016 12.91824025 11.55479106 17.44819151 11 22 C9.53236149 27.18915043 6.75337467 31.23379638 2.19140625 34.16015625 C-2.3650896 35.90640689 -7.22447578 35.59772701 -12 35 C-13.44246094 34.33291016 -13.44246094 34.33291016 -14.9140625 33.65234375 C-17.8249644 32.71904498 -17.8249644 32.71904498 -19.69799805 33.76831055 C-21.66216271 35.12819927 -23.48201726 36.58979318 -25.3125 38.125 C-26.72848275 39.25119946 -28.1465203 40.37481936 -29.56640625 41.49609375 C-30.2948877 42.07858887 -31.02336914 42.66108398 -31.77392578 43.26123047 C-35.33534748 46.0430297 -39.03939184 48.6101769 -42.75 51.1875 C-44.16085298 52.17999991 -45.57102288 53.17347163 -46.98046875 54.16796875 C-48.95526573 55.56058103 -50.93085674 56.95175682 -52.91259766 58.33447266 C-54.63875837 59.54356998 -56.35195298 60.76895593 -58.0625 62 C-59.02285156 62.680625 -59.98320313 63.36125 -60.97265625 64.0625 C-61.97619141 65.0215625 -61.97619141 65.0215625 -63 66 C-63 68.07344659 -62.99052747 70.14945548 -62.859375 72.21875 C-62.56313691 78.39743022 -62.56313691 78.39743022 -64.8125 81.5 C-68.98865214 84.36364719 -73.11061179 84.29113695 -78 84 C-78.91523437 83.75636719 -79.83046875 83.51273438 -80.7734375 83.26171875 C-85.28204724 82.89600827 -87.91464305 84.58889743 -91.8125 86.6875 C-104.325228 92.98079488 -117.01513696 95.51356998 -131 96 C-128.7447588 93.51419101 -126.53954772 92.09151171 -123.5625 90.5625 C-103.72429132 79.95257762 -84.69877825 67.63296535 -66.67285156 54.18334961 C-61.50908432 50.33576802 -56.23125011 46.66597152 -50.9375 43 C-43.6414484 37.93715051 -36.5690061 32.67793808 -29.65234375 27.109375 C-27 25 -27 25 -24 23 C-23.37920011 20.12213613 -23.37920011 20.12213613 -23.125 16.8125 C-22.29985246 10.69152849 -21.27268622 7.46689923 -17 3 C-11.95931971 -0.72050212 -6.04297193 -1.21544195 0 0 Z M-14 15 C-14.83333333 18 -14.83333333 18 -14 21 C-12.08333333 24.08333333 -12.08333333 24.08333333 -9 26 C-4.67032286 26.1519185 -2.76927242 25.67311337 0.5 22.8125 C2.24019608 20.08088235 2.24019608 20.08088235 2 16.9375 C0.84435488 13.54279245 -0.06492057 12.06248825 -3 10 C-8.43266828 8.95970182 -10.78566896 10.65119918 -14 15 Z " fill="#000000" transform="translate(887,511)"/>
<path d="M0 0 C0.33 0 0.66 0 1 0 C1.0093457 0.68288086 1.01869141 1.36576172 1.02832031 2.06933594 C1.60649969 35.90983496 8.95402312 71.03953903 33.75 96 C35.160501 97.33985415 36.57629124 98.6741887 38 100 C38.845625 100.86625 39.69125 101.7325 40.5625 102.625 C46.28781664 108.20351365 52.06306288 112.99650172 59 117 C52.75069774 119.08310075 45.28332727 114.08517165 39.60546875 111.38671875 C32.37463746 107.65550688 26.09533062 103.38078031 20 98 C19.38769531 97.49339844 18.77539062 96.98679687 18.14453125 96.46484375 C3.02347442 82.93547712 -3.67587443 59.46789229 -4.87109375 39.9375 C-4.91363281 38.968125 -4.95617187 37.99875 -5 37 C-5.05285156 36.0925 -5.10570312 35.185 -5.16015625 34.25 C-5.520149 22.98066163 -3.92190965 10.60620784 0 0 Z " fill="#000000" transform="translate(200,548)"/>
<path d="M0 0 C6.5387069 4.88991379 6.5387069 4.88991379 8.25 8.3125 C9.25850255 15.64802907 8.80866786 22.29003971 4.25 28.3125 C0.37017685 32.36453462 -3.29344358 34.43519987 -8.9375 34.625 C-14.64935639 34.56909276 -19.19668095 32.54809835 -23.4765625 28.80078125 C-24.75 27.3125 -24.75 27.3125 -24.75 25.3125 C-36.82853323 28.77509769 -48.88898381 32.29041216 -60.875 36.0625 C-61.77943848 36.34359619 -62.68387695 36.62469238 -63.61572266 36.91430664 C-64.4669873 37.1849292 -65.31825195 37.45555176 -66.1953125 37.734375 C-66.93281738 37.96737305 -67.67032227 38.20037109 -68.43017578 38.44042969 C-70.87411543 39.28947525 -70.87411543 39.28947525 -73.43933105 40.84571838 C-77.25458629 42.53605539 -79.880413 42.67497151 -84.04052734 42.65307617 C-84.74366058 42.65351425 -85.44679382 42.65395233 -86.17123413 42.65440369 C-88.47642583 42.65232728 -90.78087415 42.62905188 -93.0859375 42.60546875 C-94.69161583 42.59986868 -96.29729931 42.59560052 -97.90298462 42.59260559 C-102.11495284 42.5811891 -106.3266073 42.55174979 -110.53845215 42.51849365 C-114.84199785 42.48772357 -119.14559459 42.47408547 -123.44921875 42.45898438 C-131.88295597 42.4268767 -140.31643888 42.37571945 -148.75 42.3125 C-145.35157406 40.0468827 -142.43267974 39.56313473 -138.49609375 38.9453125 C-137.77209885 38.82603897 -137.04810394 38.70676544 -136.3021698 38.58387756 C-134.74416371 38.32841933 -133.18558936 38.07640772 -131.62652588 37.82748413 C-129.16355938 37.43367205 -126.70255869 37.02906933 -124.24169922 36.62231445 C-117.05096297 35.44119856 -109.86195898 34.29986863 -102.63671875 33.34765625 C-86.98492048 31.25827244 -72.40805971 27.24203664 -57.39892578 22.46289062 C-51.64262074 20.64811012 -45.85543782 18.94347678 -40.0625 17.25 C-38.55695557 16.8017688 -38.55695557 16.8017688 -37.02099609 16.34448242 C-36.1027002 16.07482666 -35.1844043 15.8051709 -34.23828125 15.52734375 C-33.43946533 15.29136475 -32.64064941 15.05538574 -31.81762695 14.81225586 C-29.75 14.3125 -29.75 14.3125 -26.75 14.3125 C-26.729375 13.3225 -26.70875 12.3325 -26.6875 11.3125 C-25.94240017 6.08615689 -22.59542225 2.70505227 -18.75 -0.6875 C-12.16874028 -4.04814326 -6.12209409 -3.91050017 0 0 Z M-17.75 11.3125 C-18.5475483 16.33705429 -18.57360163 18.14976829 -15.625 22.3125 C-12.90610238 24.49543783 -12.90610238 24.49543783 -9.75 24.875 C-5.98008205 24.16814038 -4.34581908 23.13081785 -1.75 20.3125 C-0.51325749 16.67956886 -0.40541797 15.07058047 -2 11.5625 C-4.28531804 8.62423395 -5.90746823 7.42239545 -9.625 6.9375 C-13.62773372 7.41782805 -15.13593772 8.23713261 -17.75 11.3125 Z " fill="#000000" transform="translate(878.75,583.6875)"/>
<path d="M0 0 C5.12353256 2.79785753 8.18026811 6.23442362 10.625 11.5 C11.4689291 19.37667163 10.0887539 23.59859653 5.66796875 30.01953125 C2.13412275 34.21545612 -1.00087637 35.69810802 -6.3671875 36.23828125 C-12.1659407 36.40989544 -15.42733201 35.91942971 -20 32 C-20.556875 31.278125 -21.11375 30.55625 -21.6875 29.8125 C-24.96120306 26.90872138 -24.96120306 26.90872138 -35 27 C-35 36.24 -35 45.48 -35 55 C-30.71 55 -26.42 55 -22 55 C-20.25895647 56.74104353 -20.78688728 59.07364021 -20.75 61.4375 C-20.72421875 62.42621094 -20.6984375 63.41492188 -20.671875 64.43359375 C-20.78015625 65.28050781 -20.8884375 66.12742187 -21 67 C-24.25995586 69.17330391 -25.22979966 69.24921459 -29 69.1875 C-29.86625 69.18105469 -30.7325 69.17460938 -31.625 69.16796875 C-34 69 -34 69 -37 68 C-37.04125 69.051875 -37.0825 70.10375 -37.125 71.1875 C-38 75 -38 75 -44 80 C-44 59.21 -44 38.42 -44 17 C-37.73 16.67 -31.46 16.34 -25 16 C-24.67 14.02 -24.34 12.04 -24 10 C-18.61619458 0.02998995 -10.79882893 -1.99084556 0 0 Z M-13.3125 11.125 C-16.55780372 14.5528409 -16.55780372 14.5528409 -17 19 C-15.61442213 21.83713564 -14.22998296 23.77001704 -12 26 C-8.01290927 26.45136876 -5.65750336 26.3357464 -2.0625 24.5 C0.44877428 21.45603117 0.68356977 19.75714768 0.41796875 15.90234375 C-0.2485937 12.86855016 -1.43489427 11.68756956 -4 10 C-8.2569864 8.42676589 -9.44262917 8.64244136 -13.3125 11.125 Z " fill="#000000" transform="translate(835,633)"/>
</svg>
