<svg style="color:#000000" xmlns="http://www.w3.org/2000/svg"
  width="310.5025750707665" height="74.48085240339755"
  viewBox="-6 -6 310.5025750707665 74.48085240339755"
><style>path[data-unit-idx]{stroke:currentColor;stroke-width:1.2;stroke-linejoin:round;stroke-linecap:round;}</style>
<path d="M17.1673,14.8835 T17.2202,14.4718 17.3345,13.671 17.4586,12.8346 17.5077,12.0029 17.3681,11.2616 17.0329,10.6129 16.5384,10.1073 15.9232,9.7902 15.1985,9.6568 14.3673,9.6417 13.5689,9.7175 12.8268,9.9165 11.9964,10.2515 11.1067,10.7513 10.1153,11.4699 9.0359,12.3536 7.972,13.3125 6.9412,14.2932 6.0407,15.2355 5.3287,16.1231 4.6743,17.0225 3.9838,18.0053 3.2463,19.0781 2.5835,20.121 2.0578,21.1126 1.5873,22.1406 1.2062,23.137 0.9169,24.1236 0.7161,25.2469 0.6014,26.4141 0.6144,27.5433 0.7944,28.7337 1.0815,30.0535 1.4283,31.3686 1.859,32.5489 2.3473,33.5982 2.8824,34.5057 3.5167,35.2515 4.2238,35.8764 4.931,36.4295 5.7252,37.016 6.6007,37.6045 7.4562,38.0215 8.318,38.3041 9.1774,38.4561 10.1553,38.4794 11.2715,38.3433 12.3983,38.0625 13.6081,37.712 14.8171,37.2789 15.8902,36.728 16.8584,35.9815 17.8064,35.0639 18.7908,34.1141 19.683,33.1786 20.4863,32.2723 21.2765,31.3334 21.7625,30.699 21.8665,30.5677 A0.5438,0.5438 0 0 1 22.7313,31.2274 T22.6321,31.3624 22.1151,32.0429 21.3076,33.0032 20.4788,33.9349 19.5543,34.9054 18.567,35.8576 17.5196,36.8529 16.3906,37.7025 15.1893,38.3111 13.9122,38.767 12.6578,39.1285 11.397,39.4273 10.1178,39.5722 8.9862,39.5301 7.9733,39.3435 6.9762,39.0043 5.992,38.514 5.0764,37.8977 4.2578,37.2935 3.4909,36.6948 2.6828,35.9584 1.9383,35.0657 1.3513,34.0629 0.8267,32.9253 0.3662,31.6509 0.0062,30.2853 -0.292,28.8904 -0.4828,27.5533 -0.4926,26.3073 -0.3641,25.0472 -0.1359,23.8115 0.1791,22.7446 0.5888,21.6825 1.0874,20.596 1.6546,19.5366 2.3403,18.4561 3.0862,17.3724 3.7871,16.3751 4.4726,15.439 5.247,14.4791 6.1863,13.4993 7.2408,12.4987 8.3468,11.5079 9.4844,10.5832 10.5872,9.8049 11.6024,9.2485 12.5605,8.8801 13.4655,8.6501 14.4038,8.5698 15.4265,8.6188 16.4245,8.8641 17.3006,9.3821 17.9741,10.1419 18.4,11.0753 18.5572,12.0588 18.4956,12.9916 18.3663,13.8221 18.2489,14.6086 18.1923,15.0198 A0.517,0.517 0 0 1 17.1673,14.8835 Z" fill="currentColor" data-unit-idx="0"/>
<path d="M22.3559,39.2357 T22.7336,38.1374 23.2239,36.691 23.7472,35.248 24.5094,33.229 25.2259,31.1274 25.9333,28.9138 26.575,27.008 27.114,25.2786 27.556,23.7544 27.9246,22.1196 28.1411,20.4118 28.2258,19.0939 28.062,18.1501 27.5344,17.8119 26.9662,18.0705 26.5149,18.5164 26.0197,19.5243 25.6011,20.941 25.2974,22.3856 24.966,24.2756 24.5861,26.362 24.1523,28.4948 23.7162,30.7483 23.3205,32.9811 23.0121,35.0287 22.7953,36.777 22.7174,38.2184 22.7376,39.299 22.8143,39.9802 22.878,40.2289 A0.5289,0.5289 0 0 1 22.4134,41.1791 T22.1547,40.9957 21.777,40.2899 21.642,39.3215 21.6221,38.1646 21.7058,36.6435 21.9273,34.8658 22.2415,32.7899 22.6419,30.5398 23.0823,28.2758 23.5153,26.165 23.8983,24.0832 24.2419,22.1589 24.5663,20.6653 24.9218,19.3712 25.3358,18.3661 25.8055,17.7318 26.5318,17.145 27.428,16.78 28.2315,16.8895 28.8744,17.376 29.2492,18.1374 29.3198,19.1557 29.2278,20.5439 28.9876,22.3724 28.6047,24.061 28.1539,25.6036 27.6037,27.3565 26.962,29.2453 26.2395,31.4795 25.5031,33.6081 24.737,35.5967 24.2102,37.0237 23.7047,38.4767 23.3163,39.5712 A0.5087,0.5087 0 0 1 22.3559,39.2357 ZM22.1932,40.4302 T22.3271,40.2128 22.585,39.6807 22.8004,39.0191 23.0717,38.1762 23.4693,36.9836 23.9702,35.5545 24.5588,34.2108 25.3028,32.9201 25.9969,31.8775 26.5843,31.1787 27.245,30.647 27.841,30.3517 28.1083,30.2526 A0.5312,0.5312 0 0 1 28.4729,31.2506 T28.0732,31.4328 27.4068,31.8772 26.8979,32.4872 26.2448,33.462 25.5475,34.6524 24.9861,35.9135 24.4805,37.3316 24.0783,38.4992 23.7948,39.3533 23.5214,40.1486 23.2292,40.7575 23.0981,40.9778 A0.5289,0.5289 0 0 1 22.1932,40.4302 ZM28.5609,30.2943 T28.7461,30.4081 29.1759,30.8169 29.6134,31.437 29.947,32.0539 30.2767,32.849 30.575,33.8737 30.7637,34.8412 30.8913,36.0099 30.9241,37.2876 30.9311,38.4927 31.0141,39.5928 31.3609,40.397 32.2442,40.7831 33.2466,40.6725 33.9926,40.334 34.815,39.6782 35.7527,38.6893 36.6609,37.5702 37.564,36.3333 38.3848,35.1166 39.0845,34.1042 39.7607,32.7559 40.0828,31.5925 40.0585,31.3349 A0.5422,0.5422 0 0 1 41.1424,31.3037 T41.1387,31.7598 40.7164,33.2623 39.9854,34.7263 39.292,35.7284 38.4446,36.979 37.5038,38.2594 36.532,39.4422 35.4492,40.5423 34.4278,41.312 33.464,41.7143 32.4218,41.9022 31.4583,41.7674 30.6403,41.2804 30.1332,40.5707 29.9302,39.6838 29.8448,38.4929 29.8435,37.3029 29.8255,36.1355 29.7123,35.0378 29.5538,34.1577 29.1881,33.0025 28.6388,31.8504 28.1965,31.3087 28.0203,31.2089 A0.5312,0.5312 0 0 1 28.5609,30.2943 ZM41.1268,31.4497 T40.9893,32.0003 40.7421,33.0506 40.5677,34.022 40.3988,35.1581 40.2738,36.3992 40.2452,37.5203 40.3347,38.4222 40.8146,38.9375 41.5763,39.0189 42.7207,38.7645 44.0969,38.3869 45.3028,37.8274 46.3456,37.1112 47.3798,36.1075 48.4705,34.8231 49.2617,33.7691 49.5484,33.3527 A0.5408,0.5408 0 0 1 50.4431,33.9606 T50.1389,34.4139 49.3048,35.5336 48.1238,36.9062 46.9634,38.0101 45.7516,38.8143 44.3887,39.4329 42.9136,39.8286 41.5037,40.0661 40.5448,39.9889 39.8153,39.5188 39.2961,38.6202 39.1508,37.4965 39.187,36.2924 39.3192,34.9973 39.4976,33.8274 39.6943,32.7746 39.9455,31.7125 40.0742,31.1889 A0.5422,0.5422 0 0 1 41.1268,31.4497 Z" fill="currentColor" data-unit-idx="1"/>
<path d="M41.3461,25.6038 T41.2625,25.2639 41.0569,24.7678 40.9349,24.6115 A0.4997,0.4997 0 0 1 41.7618,24.0501 T41.9549,24.3579 42.2321,25.0171 42.3161,25.3685 A0.4991,0.4991 0 0 1 41.3461,25.6038 ZM41.4723,24.8149 T41.3657,24.8414 41.2591,24.8678 A0.4981,0.4981 0 0 1 41.012,23.9028 T41.1182,23.8748 41.2244,23.8467 A0.4997,0.4997 0 0 1 41.4723,24.8149 ZM41.6025,24.5584 T41.5363,24.7355 41.3931,25.3087 41.5331,25.3434 41.7551,24.8312 41.7602,24.6805 A0.4998,0.4998 0 0 1 42.7531,24.7956 T42.706,25.0949 42.5046,25.7045 42.055,26.2921 41.3611,26.557 40.6843,26.214 40.4018,25.5585 40.4674,24.9013 40.603,24.3906 40.6685,24.2122 A0.4981,0.4981 0 0 1 41.6025,24.5584 ZM41.9636,25.143 T41.8091,25.0296 41.6546,24.9162 A0.4973,0.4973 0 0 1 42.2376,24.1105 T42.3936,24.2219 42.5496,24.3332 A0.4998,0.4998 0 0 1 41.9636,25.143 Z" fill="currentColor" data-unit-idx="2"/>
<path d="M47.3969,34.2524 T48.127,33.3868 49.6729,31.7607 51.0439,30.6437 52.1857,30.354 52.8541,30.7721 52.9052,31.5889 52.6007,32.9664 51.9675,34.8433 51.2819,36.8097 50.7177,38.5737 50.3931,39.7212 50.3315,40.1857 50.3567,40.2652 A0.5362,0.5362 0 0 1 49.2952,40.4177 T49.2715,40.157 49.345,39.4537 49.6845,38.2425 50.2637,36.4521 50.9542,34.4958 51.5663,32.7604 51.8503,31.4743 51.9985,31.0996 51.6635,31.4958 50.4295,32.4908 48.9155,34.0586 48.1778,34.9172 A0.5128,0.5128 0 0 1 47.3969,34.2524 ZM49.6334,39.841 T49.757,39.7995 50.1679,39.2542 50.619,38.3869 50.9776,37.4121 51.3882,36.1898 51.8666,34.9271 52.5467,33.5884 53.3597,32.3622 54.4295,31.2041 55.6864,30.1481 56.8787,29.462 58.0556,29.1639 59.1004,29.4082 59.7653,30.34 59.9798,31.7341 59.8336,33.4246 59.4072,35.3715 58.9264,37.1175 58.4818,38.5506 58.2949,39.5018 58.3252,39.7539 A0.5394,0.5394 0 0 1 57.2491,39.8294 T57.2309,39.3911 57.4321,38.2393 57.8713,36.8211 58.3387,35.1344 58.751,33.3342 58.9008,31.8545 58.7251,30.6778 58.2209,30.1998 57.3968,30.4157 56.3773,30.9953 55.2351,31.9355 54.2619,32.9737 53.5132,34.0793 52.8781,35.3137 52.4073,36.5375 51.9719,37.7977 51.569,38.8604 51.1395,39.6962 50.6005,40.4258 50.1638,40.78 50.0185,40.842 A0.5362,0.5362 0 0 1 49.6334,39.841 ZM57.3292,39.5067 T57.4402,39.3336 57.6822,38.8216 58.023,38.0432 58.434,37.0268 58.8083,35.9788 59.2377,34.9231 59.9006,33.5975 60.7524,32.2486 61.753,31.1376 62.8394,30.2974 63.8746,29.7849 64.8049,29.5721 65.6506,29.6953 66.356,30.2271 66.7996,31.1159 67.0351,32.2844 67.0414,33.6349 66.8222,35.0502 66.559,36.2961 66.3819,37.4625 66.3443,38.4327 66.694,38.9428 67.3644,39.1298 68.1323,38.9837 69.0831,38.512 70.2137,37.7194 71.5231,36.5162 72.9649,34.8828 74.437,32.7796 75.3681,31.2758 75.5626,30.9665 A0.5428,0.5428 0 0 1 76.4855,31.5381 T76.2953,31.8499 75.3276,33.4123 73.7796,35.609 72.2495,37.3256 70.8226,38.6154 69.5247,39.4918 68.287,40.0272 67.1974,40.1745 66.2614,39.9534 65.5546,39.3315 65.2664,38.4458 65.304,37.2927 65.4926,36.0679 65.7502,34.877 65.9661,33.6302 65.9824,32.4836 65.746,31.3479 65.1428,30.7134 64.3322,30.7712 63.4908,31.1736 62.5552,31.8742 61.6689,32.8396 60.8766,34.0818 60.2446,35.3317 59.8258,36.348 59.4258,37.44 59.0015,38.4735 58.6317,39.3 58.3522,39.8993 58.2451,40.0766 A0.5394,0.5394 0 0 1 57.3292,39.5067 Z" fill="currentColor" data-unit-idx="3"/>
<path d="M99.6376,29.1554 T99.811,28.6048 100.4461,27.1593 101.3375,25.6314 102.3005,24.3726 103.3692,23.1419 104.5722,22.035 105.9942,21.0751 107.422,20.2608 108.7766,19.6478 110.047,19.2481 111.1002,19.0777 112.0158,19.2065 112.7049,19.588 113.1069,20.1917 113.3555,21.0853 113.3673,22.3337 113.0984,23.7645 112.7352,24.9447 112.3162,26.0621 111.5577,27.5655 110.5152,29.2227 109.3926,30.7867 108.3592,32.182 107.375,33.4245 106.2628,34.7358 105.3153,35.8209 104.7165,36.4914 104.3824,36.8819 104.2746,36.9985 A0.5397,0.5397 0 0 1 103.4725,36.2761 T103.5598,36.1761 103.8948,35.7703 104.4935,35.0922 105.426,34.0243 106.515,32.7439 107.4773,31.5297 108.5031,30.1473 109.5916,28.6372 110.5804,27.0854 111.2968,25.68 111.7017,24.6149 112.0437,23.5518 112.3044,22.3453 112.2636,21.1326 111.8654,20.3247 111.2375,20.1519 110.3639,20.2953 109.2221,20.6455 107.959,21.2122 106.5999,21.9804 105.2994,22.8346 104.1819,23.8553 103.1508,25.0275 102.2423,26.1913 101.4103,27.5781 100.8037,28.9259 100.6218,29.4737 A0.5172,0.5172 0 0 1 99.6376,29.1554 ZM103.5679,36.1925 T103.7159,36.094 104.1494,35.8038 104.7323,35.3656 105.489,34.7503 106.4821,33.9923 107.6202,33.249 109.09,32.5853 110.73,32.1662 112.2563,32.0796 113.6099,32.1965 115.0378,32.5857 116.4954,33.2651 117.6359,34.1523 118.5651,35.2103 119.2172,36.2621 119.722,37.4846 120.0563,38.8019 120.0872,40.3299 119.9186,42.1717 119.5275,43.894 119.014,45.521 118.4923,47.1857 117.9704,48.9478 117.4013,50.8714 116.7698,52.708 116.0338,54.4446 115.1929,56.2015 114.2833,57.833 113.2644,59.3609 112.2964,60.5227 111.0702,61.4187 109.5881,62.2036 108.2641,62.7176 107.0124,62.9635 105.8826,63.0167 104.9183,62.8719 104.126,62.4834 103.5051,61.9402 103.0475,61.1399 102.7883,60.1795 102.7326,58.8625 102.8939,57.2111 103.1901,55.809 103.5991,54.4607 104.2163,52.9678 105.0024,51.4591 106.1466,49.8005 107.4836,48.2124 108.7419,46.8499 110.0386,45.5628 111.5584,44.1128 113.1528,42.5966 114.6322,41.246 116.1021,40.0064 117.5108,38.8427 118.9612,37.6863 120.3772,36.6193 121.6927,35.6627 123.0394,34.7219 124.4086,33.8655 125.9533,32.9805 127.4411,32.1917 128.0641,31.9166 A0.5455,0.5455 0 0 1 128.5053,32.9145 T127.9421,33.1638 126.4962,33.937 124.9872,34.7988 123.6687,35.624 122.3389,36.5525 121.039,37.4977 119.6466,38.5457 118.2108,39.6907 116.8096,40.8478 115.3734,42.058 113.91,43.3936 112.3166,44.9083 110.8117,46.343 109.5481,47.5952 108.3197,48.923 107.0506,50.4131 105.9717,51.968 105.2237,53.3863 104.6426,54.7763 104.2506,56.0444 103.9676,57.3259 103.8013,58.7987 103.8277,59.9324 104.1488,60.8452 104.8931,61.6502 105.8537,61.9205 106.819,61.8888 107.8772,61.6909 109.085,61.2269 110.4135,60.5466 111.4725,59.8009 112.3517,58.7489 113.324,57.2965 114.2016,55.7256 115.021,54.0164 115.7321,52.346 116.3466,50.5597 116.9159,48.6352 117.443,46.8565 117.9659,45.1882 118.4598,43.6445 118.8263,42.0672 118.9905,40.3575 118.9934,39.0367 118.7064,37.8988 118.2763,36.8162 117.7338,35.9241 116.9535,35.003 116.0141,34.2443 114.7596,33.6411 113.5011,33.2842 112.307,33.1683 110.9791,33.2228 109.5395,33.5706 108.2083,34.1574 107.1334,34.8504 106.1617,35.5812 105.369,36.2167 104.7344,36.6958 104.3082,36.9904 104.1792,37.0821 A0.5397,0.5397 0 0 1 103.5679,36.1925 Z" fill="currentColor" data-unit-idx="4"/>
<path d="M136.2872,30.1431 T135.743,29.7418 134.8454,29.276 133.7867,29.4722 132.5849,30.0254 131.5821,30.7134 130.6689,31.5947 129.9303,32.5167 129.344,33.4413 128.9352,34.5905 128.7165,35.8752 128.6881,36.9171 128.8604,37.8608 129.2156,38.7192 129.8848,39.3216 131.0773,39.4224 132.3448,38.8887 133.4429,38.0622 134.5881,37.0392 135.5112,36.0807 136.3082,35.0478 137.0396,33.9185 137.441,33.0739 137.6122,32.3418 137.597,31.365 137.1282,30.4514 136.4295,30.0431 135.8332,29.8971 135.1198,29.8395 134.2957,29.9222 133.8889,30.0067 A0.524,0.524 0 0 1 133.5967,29.0002 T133.8137,28.9375 134.3747,28.8247 135.2265,28.7893 136.101,28.8759 136.9028,29.1062 137.6969,29.533 138.3045,30.1463 138.6562,30.978 138.7503,31.7942 138.6653,32.5981 138.4322,33.5222 137.9621,34.5076 137.1648,35.7262 136.3013,36.8338 135.3093,37.854 134.0834,38.9371 132.808,39.8513 131.4569,40.4694 130.3582,40.6266 129.5506,40.4169 128.8318,39.9389 128.225,39.1524 127.7865,38.0452 127.5972,36.9035 127.6389,35.6878 127.9181,34.2075 128.4244,32.8583 129.0817,31.8323 129.9216,30.8128 130.9775,29.8188 132.107,29.0641 133.1905,28.5348 134.2059,28.2516 135.2478,28.3288 136.3512,28.8955 136.9057,29.3109 A0.5184,0.5184 0 0 1 136.2872,30.1431 ZM134.2573,29.603 T134.2274,29.7479 134.1975,29.8928 A0.5204,0.5204 0 0 1 133.1757,29.695 T133.202,29.5494 133.2284,29.4039 A0.524,0.524 0 0 1 134.2573,29.603 ZM133.987,29.369 T134.2084,29.5274 134.8174,29.8112 135.7994,30.0857 137.2077,30.2457 138.9935,30.1643 140.9247,29.9182 142.6339,29.5181 143.8078,29.1003 144.4427,28.8076 144.6536,28.6863 A0.5369,0.5369 0 0 1 145.1938,29.6144 T144.9171,29.7769 144.1796,30.1243 142.8872,30.5729 141.0598,30.9926 139.0299,31.2392 137.0649,31.2978 135.4926,31.0954 134.346,30.7309 133.6135,30.3777 133.3862,30.2188 A0.5204,0.5204 0 0 1 133.987,29.369 Z" fill="currentColor" data-unit-idx="5"/>
<path d="M144.5295,35.8204 T144.9856,35.5476 146.0255,34.7609 147.0175,33.8541 147.7362,33.0257 148.2624,32.1454 148.6947,31.1857 149.0306,30.254 149.2128,29.436 149.288,28.6806 149.2628,27.9842 149.0861,27.355 148.6173,27.0963 148.043,27.3269 147.5554,27.806 147.1187,28.4486 146.7092,29.2358 146.3354,30.1424 146.0121,31.1595 145.7324,32.2927 145.503,33.4104 145.325,34.3939 145.1514,35.3269 145.0276,36.2663 145.0061,37.0412 145.2461,37.9115 145.6821,38.7346 146.1364,39.2234 146.7105,39.6018 147.434,39.8482 148.3243,39.9644 149.3747,39.9846 150.4273,39.951 151.3926,39.7792 152.2346,39.4669 153.1657,38.8701 154.1477,38.1255 154.9585,37.3616 155.6327,36.488 156.2914,35.4703 156.6828,34.8911 A0.5444,0.5444 0 0 1 157.5866,35.4982 T157.2085,36.0644 156.4978,37.153 155.7035,38.1607 154.8093,38.9953 153.7255,39.8026 152.6171,40.4821 151.5768,40.8499 150.4647,41.0365 149.3429,41.0668 148.1653,41.0226 147.063,40.8438 146.1211,40.4765 145.3547,39.9373 144.7788,39.2985 144.3311,38.5523 144.0177,37.7318 143.9206,37.0161 143.9515,36.12 144.0799,35.1275 144.2517,34.1996 144.4373,33.1869 144.6824,32.0267 144.9859,30.8256 145.3519,29.7258 145.7739,28.7333 146.2678,27.842 146.851,27.0434 147.5555,26.4267 148.5814,26.1039 149.5081,26.2557 150.0444,26.9908 150.336,27.9452 150.3638,28.7843 150.2725,29.6726 150.0562,30.6176 149.6837,31.64 149.1869,32.7053 148.5462,33.7315 147.7381,34.6456 146.6419,35.6177 145.5158,36.4476 145.054,36.7137 A0.5179,0.5179 0 0 1 144.5295,35.8204 Z" fill="currentColor" data-unit-idx="6"/>
<path d="M198.1038,14.606 T198.1425,14.097 198.2268,13.1996 198.3138,12.3485 198.308,11.5184 198.0936,10.8061 197.6853,10.1965 197.1311,9.7494 196.4743,9.5053 195.7182,9.452 194.8622,9.5089 194.0789,9.645 193.3605,9.9074 192.5266,10.3152 191.6492,10.8965 190.6723,11.7143 189.6195,12.6886 188.6075,13.7151 187.6333,14.7491 186.8092,15.7229 186.1839,16.6278 185.5874,17.56 184.9374,18.596 184.2426,19.7242 183.6477,20.7888 183.2014,21.7913 182.7941,22.8498 182.4818,23.8547 182.2611,24.8512 182.1364,26.0147 182.099,27.1945 182.1953,28.3117 182.4718,29.5056 182.8494,30.8382 183.2733,32.1326 183.7778,33.2587 184.3279,34.2517 184.915,35.0989 185.6047,35.7762 186.3571,36.3371 187.0905,36.8376 187.9324,37.3916 188.8541,37.9375 189.722,38.2747 190.5965,38.484 191.4609,38.5643 192.4665,38.5091 193.6069,38.2808 194.719,37.9118 195.9277,37.4846 197.1136,36.975 198.1269,36.3479 199.033,35.5113 199.9284,34.5085 200.8721,33.5036 201.6975,32.531 202.4361,31.5946 203.1848,30.5995 203.5436,30.0523 A0.5492,0.5492 0 0 1 204.4602,30.6577 T204.0576,31.2634 203.2963,32.278 202.5355,33.2382 201.6736,34.256 200.7453,35.2443 199.7672,36.3217 198.7019,37.2795 197.5505,37.9805 196.2926,38.5199 195.0582,38.955 193.8172,39.3497 192.5157,39.6011 191.3596,39.6487 190.3378,39.5472 189.3241,39.2918 188.3021,38.88 187.3352,38.3072 186.4769,37.743 185.6938,37.2128 184.8379,36.5532 184.0152,35.7268 183.3672,34.7856 182.7747,33.7068 182.2307,32.478 181.791,31.1371 181.4007,29.7451 181.1025,28.4015 181.0006,27.1618 181.0452,25.8906 181.191,24.6091 181.4319,23.5289 181.7695,22.4543 182.1982,21.3412 182.6864,20.2622 183.3063,19.1492 184.0087,18.01 184.6629,16.9676 185.2814,16.0068 185.9707,15.0162 186.8357,13.9978 187.8291,12.9454 188.8789,11.8868 189.9791,10.8735 191.061,9.9906 192.0588,9.3418 193.0065,8.8953 193.8886,8.5873 194.8036,8.4334 195.8302,8.3894 196.8623,8.5223 197.8065,8.9368 198.5717,9.6195 199.1064,10.5156 199.365,11.4985 199.3673,12.4574 199.2768,13.3056 199.1861,14.1851 199.1391,14.6933 A0.5195,0.5195 0 0 1 198.1038,14.606 Z" fill="currentColor" data-unit-idx="7"/>
<path d="M213.1816,31.5177 T213.048,30.8031 212.5619,29.5174 211.9043,28.8248 211.0901,28.6626 210.1786,28.6856 209.0473,29.0611 207.8356,29.7414 206.8995,30.4989 206.0159,31.447 205.196,32.5904 204.5633,33.79 204.2672,35.0027 204.2147,36.2393 204.2761,37.3085 204.5754,38.1905 205.1023,38.9865 205.7638,39.4653 206.469,39.6535 207.2981,39.5798 208.0571,39.2868 208.666,38.7631 209.5238,37.7649 210.3755,36.7139 211.2357,35.5889 212.0115,34.4255 212.663,33.2524 213.3233,31.9982 213.7169,31.0944 213.8454,30.7201 A0.5408,0.5408 0 0 1 214.8699,31.0671 T214.7205,31.5133 214.2965,32.5066 213.6202,33.7892 212.93,35.0217 212.0994,36.2613 211.2221,37.4058 210.3339,38.4929 209.3282,39.6147 208.4592,40.2833 207.3445,40.6479 206.1741,40.6946 205.1447,40.335 204.2103,39.598 203.5449,38.5202 203.1865,37.392 203.1196,36.1814 203.2114,34.7451 203.5967,33.2873 204.3083,31.9504 205.2285,30.696 206.2188,29.6472 207.3004,28.8037 208.759,28.0272 210.1592,27.6165 211.3834,27.6504 212.5659,28.0465 213.5014,29.1116 214.0689,30.606 214.1974,31.333 A0.5162,0.5162 0 0 1 213.1816,31.5177 ZM214.5244,31.4081 T214.3939,31.419 214.1664,31.8881 213.9419,32.9343 213.6815,34.0651 213.4883,35.1734 213.4297,36.376 213.4913,37.5048 213.7636,38.2842 214.471,38.6748 215.3875,38.7748 216.4188,38.645 217.37,38.3412 218.2179,37.8458 219.2768,36.9681 220.3372,35.708 221.3184,34.3969 222.3766,32.8767 223.5579,30.9734 224.6115,29.0022 225.2626,27.4439 225.5881,26.4049 225.8582,25.5339 226.0703,24.914 226.1438,24.7066 A0.5373,0.5373 0 0 1 227.1633,25.0464 T227.0979,25.2559 226.9037,25.8575 226.6363,26.7321 226.2803,27.8526 225.5793,29.5174 224.4894,31.5528 223.2702,33.5096 222.1924,35.0556 221.1638,36.4172 219.9522,37.8142 218.7468,38.7919 217.7183,39.3578 216.5288,39.7144 215.2985,39.844 214.3127,39.7457 213.4767,39.4345 212.8004,38.6962 212.415,37.5941 212.3483,36.3147 212.4285,34.9832 212.6389,33.8197 212.9105,32.6889 213.1252,31.7838 213.4317,31.0471 213.9258,30.4964 214.1909,30.3792 A0.5408,0.5408 0 0 1 214.5244,31.4081 ZM227.1633,25.0464 T227.095,25.243 226.8155,25.8707 226.4045,26.7033 225.8695,27.7134 225.0759,29.2416 224.1539,31.156 223.2261,33.2126 222.5698,34.9791 222.3173,36.4335 222.3766,37.835 222.7694,38.7786 223.3583,39.2097 224.519,39.3289 225.887,39.0654 226.9703,38.4455 228.1777,37.5509 229.2085,36.6488 230.1235,35.6677 230.6548,35.0705 A0.5479,0.5479 0 0 1 231.4732,35.7993 T230.9192,36.4209 229.9367,37.4656 228.8214,38.4344 227.492,39.4003 226.1673,40.1036 224.7418,40.4468 223.5922,40.4162 222.7029,40.0558 221.8323,39.263 221.3053,37.919 221.2443,36.2464 221.5421,34.6163 222.2327,32.7639 223.1759,30.6828 224.1196,28.7373 224.9193,27.2125 225.4482,26.2258 225.8337,25.4627 226.0811,24.9033 226.1438,24.7066 A0.5373,0.5373 0 0 1 227.1633,25.0464 Z" fill="currentColor" data-unit-idx="8"/>
<path d="M219.4575,29.7161 T221.0305,29.7757 223.7373,29.8321 225.8587,29.7608 227.5565,29.5618 228.7474,29.3607 229.5132,29.1729 229.7987,29.0552 A0.5362,0.5362 0 0 1 230.1909,30.0533 T229.7895,30.2057 228.9222,30.4241 227.6863,30.6238 225.8932,30.8205 223.7153,30.8777 220.9878,30.8004 219.4153,30.729 A0.5069,0.5069 0 0 1 219.4575,29.7161 Z" fill="currentColor" data-unit-idx="9"/>
<path d="M236.8685,37.3604 T237.5855,36.5706 238.7674,35.245 239.5306,34.0955 240.1563,32.7582 240.6683,31.2189 240.8491,29.9218 240.7703,28.8979 240.3942,28.266 239.6493,28.135 238.7376,28.1587 237.3859,28.4779 236.0267,29.036 234.6584,30.1068 233.1979,31.6333 232.1824,33.2246 231.4859,34.9345 231.2421,36.5438 231.355,37.7926 231.8398,38.5887 232.7088,38.9518 233.6714,39.0334 234.5814,38.8524 235.4121,38.3229 236.3202,37.4544 237.3713,36.4034 238.4293,35.2805 239.2177,34.3643 239.6903,33.7644 239.945,33.4465 240.048,33.3678 240.1668,33.3161 240.2945,33.2943 240.4237,33.3037 240.547,33.3437 240.657,33.4121 240.7475,33.5048 240.8132,33.6165 240.8502,33.7406 240.8565,33.8701 240.8316,33.9972 240.777,34.1147 240.6488,34.4946 240.337,35.1897 239.8734,36.1858 239.506,37.3723 239.3885,38.4733 239.5641,39.5137 240.5346,40.2613 242.0584,40.4406 243.3983,40.1848 244.5071,39.7477 245.9635,38.8554 247.6348,37.5687 249.1263,36.0773 250.7709,34.2364 252.4344,32.3076 254.0324,30.378 255.4222,28.5282 256.3977,26.844 256.9086,25.6345 257.163,24.4005 256.8318,23.3351 255.9745,23.286 255.2266,23.8097 254.3606,24.7567 253.3362,26.1709 252.2333,27.9955 251.1076,29.9837 250.1796,31.774 249.3927,33.6718 248.8786,35.5311 248.8157,36.8199 249.0458,37.6592 249.5446,38.2235 250.2247,38.6457 251.0476,38.9286 252.0564,39.0365 253.252,38.8433 254.7375,38.2739 256.414,37.4332 258.018,36.5652 258.7689,36.1562 A0.5485,0.5485 0 0 1 259.294,37.1193 T258.5404,37.5306 256.9025,38.4158 255.1095,39.3019 253.398,39.9195 251.9285,40.1141 250.6731,39.9469 249.6303,39.5535 248.7146,38.8986 248.0238,37.982 247.7326,36.8006 247.8217,35.262 248.3873,33.2455 249.2095,31.2725 250.1604,29.4466 251.3067,27.4307 252.4732,25.5291 253.5818,24.0215 254.5791,22.9795 255.4817,22.3167 256.2813,22.0896 256.9552,22.1787 257.6434,22.5011 258.1825,23.1712 258.2161,24.6035 257.9253,26.0403 257.3485,27.3884 256.3035,29.1843 254.8788,31.0793 253.2667,33.0255 251.589,34.9697 249.8974,36.8579 248.3073,38.4324 246.5117,39.8027 244.9069,40.7632 243.5997,41.2537 241.9996,41.5192 240.3569,41.3896 239.1697,40.8165 238.5298,39.7284 238.3177,38.363 238.4779,37.056 238.9149,35.7138 239.3814,34.7183 239.7299,33.9565 239.945,33.4465 240.048,33.3678 240.1668,33.3161 240.2945,33.2943 240.4237,33.3037 240.547,33.3437 240.657,33.4121 240.7475,33.5048 240.8132,33.6165 240.8502,33.7406 240.8565,33.8701 240.8316,33.9972 240.777,34.1147 240.5388,34.4459 240.0548,35.0725 239.229,36.0352 238.1486,37.1816 237.064,38.2635 235.9673,39.2529 234.7906,39.9105 233.5596,40.1171 232.2531,39.9155 231.0023,39.1909 230.3026,37.9664 230.1641,36.3955 230.4733,34.5275 231.2603,32.6341 232.4013,30.887 234.0122,29.2246 235.5842,28.0443 237.165,27.4101 238.7379,27.0743 239.9591,27.1087 241.0694,27.536 241.7467,28.6546 241.922,30.0444 241.6888,31.5615 241.1263,33.2219 240.41,34.6835 239.5542,35.9445 238.3491,37.2706 237.6245,38.0535 A0.5128,0.5128 0 0 1 236.8685,37.3604 Z" fill="currentColor" data-unit-idx="10"/>
<path d="M267.7715,35.7515 T267.9211,35.2707 268.4979,33.8421 269.0719,32.4282 269.2584,31.5783 269.2955,30.8549 269.0648,30.1094 268.4425,29.4669 267.528,29.2135 266.668,29.2517 265.9861,29.4114 265.1556,29.7752 264.3016,30.25 263.5843,30.7256 262.9441,31.2853 262.3518,31.9514 261.7063,32.9276 261.1022,34.0253 260.644,35.0233 260.4115,35.9041 260.3249,36.7048 260.332,37.5534 260.7438,38.4121 261.38,39.0319 261.9684,39.2858 262.6094,39.4045 263.4456,39.128 264.2991,38.4434 264.8248,37.7525 265.4959,36.7924 266.3624,35.6706 267.1044,34.6895 267.7933,33.7634 268.3871,32.9894 268.8685,32.3435 269.0731,32.0373 A0.5336,0.5336 0 0 1 269.9663,32.6211 T269.7376,32.9778 269.2505,33.6545 268.6685,34.4156 267.9712,35.3475 267.2181,36.3357 266.3863,37.3936 265.6786,38.389 265.0283,39.2223 264.222,39.9392 263.3251,40.3794 262.4148,40.4446 261.5395,40.2506 260.7182,39.8659 260.0254,39.2837 259.5092,38.5357 259.2561,37.571 259.2455,36.5827 259.3609,35.6458 259.6544,34.5708 260.1512,33.4977 260.82,32.3127 261.5542,31.2295 262.2452,30.478 262.9991,29.8352 263.7908,29.319 264.764,28.8026 265.757,28.3957 266.5835,28.217 267.3654,28.157 268.1425,28.239 268.8533,28.4973 269.436,28.9026 269.907,29.4434 270.2267,30.117 270.3603,30.8986 270.3023,31.8035 270.0679,32.808 269.4859,34.2203 268.9191,35.5908 268.7619,36.0685 A0.5199,0.5199 0 0 1 267.7715,35.7515 ZM269.5041,32.8626 T269.4522,32.86 269.4003,32.8574 A0.5315,0.5315 0 0 1 269.4313,31.7949 T269.4833,31.7954 269.5353,31.7958 A0.5336,0.5336 0 0 1 269.5041,32.8626 ZM269.7942,32.6993 T269.6869,32.8051 269.3626,33.2723 268.9954,33.999 268.6811,34.7037 268.4368,35.4707 268.26,36.4815 268.1732,37.5571 268.2817,38.3594 268.5194,38.9391 269.0638,39.4147 269.8303,39.6535 270.5905,39.578 271.4457,39.3084 272.4473,38.8371 273.4106,38.2574 274.6894,37.4886 276.1684,36.5132 277.3671,35.5507 278.4387,34.6715 278.7106,32.7998 278.7425,30.5672 279.3816,29.4125 280.1222,28.7318 280.9439,28.1712 282.0095,27.7164 282.9377,27.7084 283.3945,28.3606 283.5041,29.6363 283.3026,31.2829 282.8733,33.2117 282.2726,35.3802 281.736,37.1671 281.3179,38.6203 280.9545,39.8663 280.8301,40.3492 A0.5423,0.5423 0 0 1 279.7784,40.0837 T279.9056,39.5694 280.265,38.3177 280.6866,36.8587 281.2213,35.0887 281.8111,32.9712 282.2312,31.1482 282.567,29.4836 282.3442,28.7019 281.5546,29.0674 280.8375,29.55 280.2528,30.0345 279.781,30.7405 279.698,32.9622 279.2318,35.3103 278.0509,36.4055 276.7747,37.42 275.2568,38.4194 273.9681,39.1896 272.8885,39.8201 271.7425,40.3396 270.6593,40.6257 269.5903,40.6719 268.7514,40.4617 268.0716,40.0226 267.5402,39.3497 267.2266,38.521 267.1049,37.4785 267.2115,36.2822 267.4437,35.135 267.7228,34.2772 268.0406,33.568 268.5172,32.6727 268.933,32.0618 269.0373,31.953 A0.5315,0.5315 0 0 1 269.7942,32.6993 ZM279.7949,40.0303 T279.9052,39.7465 280.1986,38.9981 280.4926,38.1313 280.7851,37.273 281.2521,36.0762 281.7721,34.7869 282.5788,33.1608 283.6163,31.3639 284.5,30.1811 285.4928,29.2229 286.595,28.3903 287.4976,27.8791 288.2717,27.6955 289.0932,27.9449 289.6464,28.5946 289.8726,29.4104 289.9628,30.49 289.8275,32.0344 289.5127,33.703 289.206,35.02 288.9602,36.2443 288.7671,37.5585 288.7321,38.6114 288.9803,39.3075 289.6493,39.7066 290.6288,39.7965 291.5986,39.4845 292.4479,38.8707 293.6079,37.8146 294.8685,36.6186 296.1864,35.2151 297.3952,33.7585 297.7906,33.2267 A0.5482,0.5482 0 0 1 298.6696,33.882 T298.2462,34.4486 296.9749,35.9751 295.6216,37.4134 294.3307,38.6335 293.0597,39.7677 291.9189,40.4945 290.6024,40.864 289.4021,40.7825 288.5779,40.4295 287.9946,39.6896 287.6533,38.6278 287.6857,37.4017 287.8915,36.0253 288.147,34.7718 288.4507,33.4955 288.7569,31.9408 288.9072,30.5881 288.8335,29.62 288.5125,28.9406 287.9983,28.8399 287.2441,29.2711 286.2524,30.0099 285.3614,30.8498 284.5554,31.9194 283.5596,33.6326 282.7763,35.1977 282.2559,36.4733 281.8008,37.6199 281.5063,38.4772 281.2156,39.3196 280.9345,40.0539 280.8136,40.4026 A0.5423,0.5423 0 0 1 279.7949,40.0303 Z" fill="currentColor" data-unit-idx="11"/>



</svg>