<?xml version="1.0" encoding="UTF-8"?>
<svg version="1.1" xmlns="http://www.w3.org/2000/svg" width="225" height="225">
<path d="M0 0 C74.25 0 148.5 0 225 0 C225 74.25 225 148.5 225 225 C150.75 225 76.5 225 0 225 C0 150.75 0 76.5 0 0 Z " fill="#FEFEFE" transform="translate(0,0)"/>
<path d="M0 0 C0.72960937 0.31710938 1.45921875 0.63421875 2.2109375 0.9609375 C9.15627385 4.39705127 14.416372 9.72518252 20 15 C21.28461507 16.1330454 22.57562834 17.25890813 23.875 18.375 C27.5239155 21.55552469 31.11427155 24.79746376 34.6875 28.0625 C35.2345459 28.55733887 35.7815918 29.05217773 36.34521484 29.56201172 C46.70898131 39.08027152 46.70898131 39.08027152 47.23828125 44.390625 C47.39615963 50.47309728 47.25703612 54.26995987 43 59 C38.79778356 62.69285687 34.85243768 63.42411046 29.39453125 63.3359375 C19.4995159 61.9477298 10.87461334 51.18690332 4.75 44.02734375 C-0.85189519 37.24940827 -0.85189519 37.24940827 -8.1875 32.75 C-12.0103853 33.08981203 -13.449054 34.15751732 -16 37 C-17.02374092 39.85985761 -17.02374092 39.85985761 -17 43 C-15.4445467 45.53511964 -15.4445467 45.53511964 -13.00390625 47.71484375 C-12.13443359 48.56626953 -11.26496094 49.41769531 -10.36914062 50.29492188 C-9.44294922 51.16697266 -8.51675781 52.03902344 -7.5625 52.9375 C-6.67111328 53.80568359 -5.77972656 54.67386719 -4.86132812 55.56835938 C-0.25074039 60.03054487 4.4630505 64.34688876 9.32202148 68.53637695 C11.38290966 70.33399439 13.337941 72.23353868 15.3125 74.125 C23.64031691 81.55797349 33.12396706 84.35809025 44.1015625 84.2109375 C54.65212427 83.44310686 64.06633251 78.41213907 71.3125 70.8125 C79.35661135 61.18887691 82.07157616 50.33067217 81 38 C78.42557121 27.04028887 72.3152234 17.40123044 63 11 C56.57511847 7.56032695 50.5853385 4.85522219 43.234375 4.90234375 C41.90019531 4.90717773 41.90019531 4.90717773 40.5390625 4.91210938 C39.61867188 4.92048828 38.69828125 4.92886719 37.75 4.9375 C36.34621094 4.94426758 36.34621094 4.94426758 34.9140625 4.95117188 C32.60930959 4.96293082 30.30468773 4.97936574 28 5 C27.505 2.525 27.505 2.525 27 0 C31.51823239 -3.40896576 35.25409767 -3.4724374 40.6875 -3.375 C41.89297485 -3.3608606 41.89297485 -3.3608606 43.12280273 -3.34643555 C49.14742468 -3.19364378 54.4549553 -2.48570969 60 0 C60.74121094 0.32871094 61.48242188 0.65742187 62.24609375 0.99609375 C73.33661372 6.55096424 80.6199689 14.97093625 86 26 C86.54140625 27.05574219 86.54140625 27.05574219 87.09375 28.1328125 C91.35851861 38.20240506 90.2500538 52.32744268 86.3203125 62.26171875 C79.41401482 76.58513495 69.76801219 85.43686162 54.7265625 90.8125 C42.65591071 94.04330643 29.47169412 92.62031422 18.53344727 86.65478516 C11.08923421 82.20208558 5.2905223 76.73831995 -0.6875 70.5 C-2.45983241 68.67474287 -4.2345329 66.85178185 -6.01171875 65.03125 C-6.85259033 64.16975342 -7.69346191 63.30825684 -8.55981445 62.4206543 C-11.37042805 59.63253686 -14.29437492 57.02994238 -17.32568359 54.4855957 C-20.74365824 51.45287834 -24.66480269 47.74751894 -25.23828125 43.046875 C-25.41845566 37.47095117 -24.77158562 34.3831941 -21 30 C-17.22798707 26.67703623 -14.7753894 24.84988503 -9.75 24.6875 C-9.00234375 24.65011719 -8.2546875 24.61273438 -7.484375 24.57421875 C-1.69181053 25.56696958 2.48911552 30.26225782 6.44140625 34.31640625 C6.93156723 34.81414047 7.42172821 35.31187469 7.92674255 35.82469177 C9.47699375 37.39914997 11.02053028 38.97993305 12.5625 40.5625 C14.5995735 42.65302162 16.64335238 44.736647 18.69140625 46.81640625 C19.59060791 47.73881104 20.48980957 48.66121582 21.41625977 49.61157227 C25.82440888 53.69986971 25.82440888 53.69986971 31.45703125 55.07421875 C32.23433594 54.94660156 33.01164062 54.81898437 33.8125 54.6875 C34.60269531 54.56761719 35.39289063 54.44773438 36.20703125 54.32421875 C36.79871094 54.21722656 37.39039063 54.11023438 38 54 C39.25176777 50.24469668 39.52318497 47.95658635 39 44 C37.01810614 41.12383696 34.5630944 38.85752765 32 36.5 C31.3088208 35.8385498 30.6176416 35.17709961 29.90551758 34.49560547 C25.98663333 30.76821268 22.02030502 27.08073524 17.875 23.60546875 C16.44245856 22.37885514 15.05411096 21.10044674 13.6875 19.80078125 C3.30334617 9.98451083 -7.17272957 4.42174733 -21.65625 4.6875 C-32.17929331 5.67096199 -41.5478451 11.09729796 -48.75 18.6875 C-56.44979471 27.98097314 -58.78672226 38.22830399 -58 50 C-56.16899668 60.55154455 -50.67151683 69.41511537 -42.50390625 76.2421875 C-32.84670515 83.02181386 -22.43846069 85.27410837 -10.80078125 83.703125 C-10.18589844 83.59484375 -9.57101563 83.4865625 -8.9375 83.375 C-7.968125 83.25125 -6.99875 83.1275 -6 83 C-5.01 83.99 -5.01 83.99 -4 85 C-4.375 87.625 -4.375 87.625 -5 90 C-16.14096691 94.24417787 -28.24557601 92.57807973 -39 88 C-52.42277377 81.20053717 -60.31120291 70.80018941 -65.13671875 56.671875 C-68.25002587 43.42975421 -66.19074804 30.94522114 -59.390625 19.2265625 C-52.43673933 8.60434265 -42.32745061 1.03900688 -30.05029297 -2.57373047 C-20.59905718 -4.53870519 -8.81228365 -3.94149414 0 0 Z " fill="#206FAD" transform="translate(101,68)"/>
<path d="M0 0 C0.66 0.66 1.32 1.32 2 2 C-0.31 4.31 -2.62 6.62 -5 9 C-5.66 8.34 -6.32 7.68 -7 7 C-4.69 4.69 -2.38 2.38 0 0 Z " fill="#2A74B0" transform="translate(52,75)"/>
</svg>
