<?xml version="1.0" encoding="UTF-8"?>
<svg version="1.1" xmlns="http://www.w3.org/2000/svg" width="512" height="512">
<path d="M0 0 C0.94166016 0.61101562 0.94166016 0.61101562 1.90234375 1.234375 C2.56105469 1.60046875 3.21976563 1.9665625 3.8984375 2.34375 C16.64298429 10.39293745 23.51128314 29.1768113 30.78515625 42 C34.46281541 48.48193759 38.19927789 54.92805488 41.96484375 61.359375 C48.68465072 72.84524609 55.33841076 84.36844459 61.98046875 95.89941406 C63.95278877 99.32191044 65.92715512 102.74322127 67.90234375 106.1640625 C74.25904529 117.17421959 80.61418027 128.18488646 86.90234375 139.234375 C89.65981374 135.92898923 91.93129848 132.64495043 94.00390625 128.875 C94.57101318 127.85092041 95.13812012 126.82684082 95.72241211 125.77172852 C96.31803955 124.68690186 96.91366699 123.6020752 97.52734375 122.484375 C101.55941998 115.21124382 105.59218034 107.94668557 109.83984375 100.796875 C114.29755584 93.29070613 118.66910305 85.7360604 123.02734375 78.171875 C123.36966034 77.57786896 123.71197693 76.98386292 124.06466675 76.37185669 C126.0115371 72.99325879 127.95738855 69.61407571 129.90234375 66.234375 C129.02698975 66.51659912 128.15163574 66.79882324 127.24975586 67.08959961 C126.0922583 67.45577393 124.93476074 67.82194824 123.7421875 68.19921875 C122.5987085 68.56394287 121.45522949 68.92866699 120.27709961 69.30444336 C115.1826587 70.70824322 109.81720838 71.8464736 104.98828125 69.17578125 C102.80805069 67.43469666 101.15540284 65.74049318 99.90234375 63.234375 C99.734375 61.2109375 99.734375 61.2109375 99.71484375 58.859375 C99.70066406 58.08851563 99.68648438 57.31765625 99.671875 56.5234375 C99.933761 53.92233252 100.54837989 52.46371598 101.90234375 50.234375 C106.96801736 46.56994911 113.37746082 45.02176566 119.3359375 43.4375 C120.2133107 43.1990033 121.0906839 42.96050659 121.99464417 42.71478271 C123.83811947 42.21649575 125.68278594 41.7225966 127.52856445 41.23291016 C130.33247631 40.48633667 133.13002863 39.7186799 135.92773438 38.94921875 C137.73012353 38.46485939 139.53284771 37.98174462 141.3359375 37.5 C142.16121445 37.27193665 142.98649139 37.04387329 143.83677673 36.80889893 C150.11899561 35.16930085 156.58004473 33.93434495 162.77734375 36.359375 C167.73890832 40.73722609 168.9796238 47.48657788 170.6015625 53.65625 C170.84147415 54.55627747 171.0813858 55.45630493 171.3285675 56.38360596 C171.83197594 58.28216317 172.33184301 60.18166251 172.82836914 62.08203125 C173.58470634 64.96479387 174.36106101 67.84166363 175.13867188 70.71875 C175.62753873 72.572591 176.11520782 74.42674835 176.6015625 76.28125 C176.94836311 77.55364532 176.94836311 77.55364532 177.3021698 78.85174561 C179.0125518 85.51917977 180.76460805 93.04192192 177.15234375 99.234375 C173.80130558 102.21307559 172.03073569 103.10899812 167.52734375 103.609375 C163.15128606 103.15667938 161.21878194 102.09857162 157.90234375 99.234375 C154.31718807 93.92303326 153.31000372 87.40411871 151.90234375 81.234375 C151.24234375 81.234375 150.58234375 81.234375 149.90234375 81.234375 C149.06316406 82.76578125 149.06316406 82.76578125 148.20703125 84.328125 C142.75972026 94.22347435 137.1501526 104.01399496 131.44238281 113.76123047 C126.29859041 122.5456509 121.18967897 131.34970599 116.12231445 140.1784668 C113.50060975 144.74563317 110.87665326 149.30640763 108.14453125 153.80859375 C107.7563623 154.45683105 107.36819336 155.10506836 106.96826172 155.77294922 C105.99818412 157.38737521 105.01354309 158.99302773 104.02734375 160.59765625 C102.65841663 163.80607918 102.97069283 164.91859718 103.90234375 168.234375 C105.14787095 170.84072204 105.14787095 170.84072204 106.75390625 173.49609375 C107.35017822 174.51912598 107.9464502 175.5421582 108.56079102 176.59619141 C109.20975342 177.69366699 109.85871582 178.79114258 110.52734375 179.921875 C111.2063935 181.0820834 111.88468462 182.24273611 112.56225586 183.40380859 C113.971068 185.81664811 115.38313005 188.22754135 116.79736328 190.63720703 C120.05322246 196.19197877 123.25504832 201.77791147 126.46484375 207.359375 C131.82364568 216.65617934 137.21869084 225.93127022 142.63305664 235.19580078 C147.54404976 243.60498832 152.41406299 252.03743298 157.26831055 260.47949219 C160.4477527 266.00323692 163.6485249 271.51275945 166.890625 277 C167.53257812 278.08925781 168.17453125 279.17851562 168.8359375 280.30078125 C170.05640346 282.36872253 171.28141171 284.43399217 172.51171875 286.49609375 C178.91106378 297.35239438 180.7498072 307.77387424 178.3203125 320.21484375 C175.27762794 328.95387841 168.7195895 336.12889032 160.52734375 340.296875 C154.78449682 342.85836705 149.97809386 343.38283415 143.72532654 343.38154602 C142.77426767 343.38522271 141.8232088 343.3888994 140.84332997 343.3926875 C137.64221132 343.40373979 134.44112512 343.40757083 131.23999023 343.41137695 C128.95038245 343.41764052 126.66077569 343.42428722 124.37117004 343.43128967 C118.13947357 343.44871116 111.90778478 343.45925494 105.67606997 343.4674952 C101.78288117 343.47264376 97.88969476 343.47871961 93.99650764 343.48500633 C83.21255318 343.50187861 72.42860241 343.51651249 61.64463711 343.52375507 C58.84634334 343.5256649 56.04804959 343.52758524 53.24975586 343.52954102 C52.20652949 343.53026663 52.20652949 343.53026663 51.14222784 343.5310069 C39.88443415 343.53930111 28.62674694 343.56462709 17.36899971 343.59712169 C5.80430257 343.63022932 -5.76032454 343.64787477 -17.3250708 343.65139931 C-23.81552007 343.65374969 -30.30580116 343.66270866 -36.79620552 343.68786049 C-42.90539291 343.71115175 -49.01430151 343.71536996 -55.1235218 343.70509911 C-57.36240059 343.70460387 -59.60129314 343.71092057 -61.84012985 343.72465515 C-64.90433657 343.7423969 -67.96754527 343.7352561 -71.03175354 343.72212219 C-72.35071423 343.73857606 -72.35071423 343.73857606 -73.69632059 343.75536233 C-83.34541347 343.65598605 -92.13755012 339.95499361 -99.09765625 333.234375 C-105.78275012 325.33656569 -108.81800208 316.31847883 -108.4296875 305.9921875 C-107.03860397 294.43801137 -99.82261812 284.10951883 -94.09765625 274.234375 C-93.57349121 273.32993652 -93.04932617 272.42549805 -92.50927734 271.49365234 C-89.61707088 266.51296297 -86.71173997 261.54006112 -83.80078125 256.5703125 C-80.0613094 250.18155344 -76.35661505 243.77309502 -72.66015625 237.359375 C-72.03794189 236.28051025 -71.41572754 235.20164551 -70.7746582 234.09008789 C-67.62519147 228.62719172 -64.48115886 223.16123628 -61.34375 217.69140625 C-58.24505409 212.29249349 -55.13035363 206.9031119 -52.00341797 201.52050781 C-50.36441853 198.6943571 -48.73452671 195.86314932 -47.10647583 193.03068542 C-45.47046182 190.19529711 -43.81383797 187.37198393 -42.16015625 184.546875 C-41.56976563 183.51361084 -40.979375 182.48034668 -40.37109375 181.41577148 C-36.20049837 174.35446147 -31.68022873 168.52566124 -24.22265625 164.796875 C-16.77887097 163.45699365 -9.81328002 163.49411123 -3.09765625 167.234375 C3.63941368 172.45191822 7.37288523 179.71294204 11.40234375 187.046875 C12.08921499 188.27643196 12.77738789 189.50526258 13.46679688 190.73339844 C14.53316273 192.63391374 15.5984475 194.53496984 16.65930176 196.43856812 C20.17431664 202.74589852 23.77839223 209.00043902 27.3972168 215.24862671 C28.9951425 218.00807596 30.58900428 220.76987194 32.18359375 223.53125 C33.08975537 225.09900942 33.99596815 226.66673928 34.90234375 228.234375 C37.55800162 225.83467818 39.18232928 223.26993311 40.94921875 220.16796875 C41.53977051 219.13728271 42.13032227 218.10659668 42.73876953 217.04467773 C43.37024902 215.93165283 44.00172852 214.81862793 44.65234375 213.671875 C45.31444497 212.51281849 45.97705054 211.35404995 46.64013672 210.19555664 C48.02532952 207.77467483 49.40831019 205.35254782 50.79003906 202.9296875 C52.86497567 199.29513296 54.95540118 195.6696739 57.05078125 192.046875 C57.38630005 191.46664078 57.72181885 190.88640656 58.06750488 190.28858948 C59.67458202 187.50984405 61.2821759 184.73139757 62.88964844 181.95288086 C64.04024712 179.96027621 65.17867793 177.96057798 66.30273438 175.95288086 C67.90234375 173.234375 67.90234375 173.234375 69.64257812 170.87719727 C71.23295168 168.61271992 72.27876222 166.93374219 72.90234375 164.234375 C71.77872793 160.08948997 69.53273004 156.83581993 67.15234375 153.296875 C65.81080702 151.16121878 64.47102117 149.02446192 63.1328125 146.88671875 C62.42946777 145.78956543 61.72612305 144.69241211 61.00146484 143.56201172 C57.65494311 138.25693015 54.56886546 132.80862091 51.46484375 127.359375 C50.20811296 125.17646022 48.95029391 122.99417162 47.69140625 120.8125 C45.79640076 117.5228721 43.90161845 114.23311571 42.00683594 110.94335938 C34.76659918 98.3746967 27.50656129 85.8185031 20.18481445 73.29711914 C16.42729868 66.86575153 12.7009144 60.41716374 8.98925781 53.95922852 C0.57612291 36.87029828 0.57612291 36.87029828 -11.09765625 22.234375 C-14.70314602 21.29961839 -17.10621789 20.89583507 -20.66015625 22.109375 C-27.47650511 28.05183298 -31.60854954 37.41356537 -36.03515625 45.171875 C-37.02757763 46.9017206 -38.0200039 48.63156343 -39.01272583 50.36123657 C-40.03529716 52.14377372 -41.05655759 53.92705697 -42.07763672 55.71044922 C-45.23735525 61.22627269 -48.41872493 66.72961067 -51.59765625 72.234375 C-52.84647195 74.39836953 -54.09516955 76.56243223 -55.34375 78.7265625 C-55.96233887 79.79874023 -56.58092773 80.87091797 -57.21826172 81.97558594 C-59.10745791 85.25137066 -60.99529734 88.52793393 -62.8828125 91.8046875 C-69.49988517 103.2888632 -76.14399602 114.75634394 -82.83056641 126.20019531 C-89.63353248 137.85096685 -96.36407811 149.54341244 -103.09765625 161.234375 C-110.97428214 174.90991814 -118.86885717 188.57398458 -126.83056641 202.20019531 C-133.63353248 213.85096685 -140.36407811 225.54341244 -147.09765625 237.234375 C-154.50975213 250.10339257 -161.92920836 262.96772352 -169.41015625 275.796875 C-170.27205566 277.27800781 -170.27205566 277.27800781 -171.15136719 278.7890625 C-173.78849784 283.31332811 -176.44364289 287.82366304 -179.16015625 292.30078125 C-179.62768311 293.07671631 -180.09520996 293.85265137 -180.5769043 294.65209961 C-181.4321703 296.06804174 -182.294979 297.47947101 -183.16723633 298.88500977 C-185.44194793 302.66154856 -186.82007649 305.81202472 -187.09765625 310.234375 C-185.87265306 313.90938457 -184.86819245 315.71501399 -181.64257812 317.88916016 C-176.82790122 319.7162173 -172.54658155 319.6188206 -167.44140625 319.5703125 C-165.34635104 319.58282097 -163.25129894 319.59585791 -161.15625 319.609375 C-157.87114528 319.61330867 -154.58634542 319.60932474 -151.30126953 319.59472656 C-148.1183551 319.58615113 -144.93670901 319.60784183 -141.75390625 319.6328125 C-140.77562866 319.61946869 -139.79735107 319.60612488 -138.78942871 319.59237671 C-134.2725096 319.64121601 -131.09215395 319.73890335 -127.49414062 322.64697266 C-123.96516588 326.45708618 -123.70572588 328.86016789 -123.73828125 333.90625 C-124.34309903 337.82441736 -126.26642382 339.53796316 -129.09765625 342.234375 C-131.5968336 343.48396368 -133.32622476 343.38160246 -136.12304688 343.41137695 C-137.1717395 343.42421219 -138.22043213 343.43704742 -139.30090332 343.45027161 C-140.44039429 343.45765854 -141.57988525 343.46504547 -142.75390625 343.47265625 C-143.92594604 343.480728 -145.09798584 343.48879974 -146.30554199 343.49711609 C-148.79384883 343.51097101 -151.28217479 343.52168683 -153.77050781 343.52954102 C-157.55441119 343.54667913 -161.337424 343.59054541 -165.12109375 343.63476562 C-167.54035817 343.64489902 -169.95963001 343.65341309 -172.37890625 343.66015625 C-173.50220337 343.67766434 -174.62550049 343.69517242 -175.78283691 343.71321106 C-186.99357752 343.68267053 -194.77491626 340.4610809 -202.89453125 332.75 C-210.79621033 323.72751538 -211.7684279 313.7403512 -211.25927734 302.25341797 C-210.55189203 293.41644437 -204.58405289 285.71270748 -200.125 278.30078125 C-196.6220842 272.46883022 -193.23758781 266.56998163 -189.84765625 260.671875 C-184.95683457 252.17745205 -180.04386888 243.69666306 -175.09765625 235.234375 C-170.23658044 226.9168849 -165.40617416 218.58235866 -160.59765625 210.234375 C-155.21851545 200.89574293 -149.80506178 191.57797183 -144.3671875 182.2734375 C-140.08543503 174.94153777 -135.83554686 167.59170262 -131.59765625 160.234375 C-126.21851545 150.89574293 -120.80506178 141.57797183 -115.3671875 132.2734375 C-111.08543503 124.94153777 -106.83554686 117.59170262 -102.59765625 110.234375 C-97.21851545 100.89574293 -91.80506178 91.57797183 -86.3671875 82.2734375 C-82.08543426 74.94153644 -77.83574763 67.59158794 -73.59765625 60.234375 C-66.47470938 47.87540976 -59.3332731 35.52780665 -52.09765625 23.234375 C-51.66807617 22.50250977 -51.23849609 21.77064453 -50.79589844 21.01660156 C-49.71796444 19.18778752 -48.62971983 17.36577027 -47.53515625 15.546875 C-46.97699219 14.61488281 -46.41882813 13.68289062 -45.84375 12.72265625 C-36.00647892 -1.29600523 -15.87665542 -8.89824066 0 0 Z M86.90234375 188.234375 C86.06316406 189.76578125 86.06316406 189.76578125 85.20703125 191.328125 C78.50757632 203.49820817 71.55905575 215.5138864 64.51074219 227.48486328 C63.07326764 229.94218544 61.65846345 232.41049203 60.25390625 234.88671875 C55.57052199 243.06978542 51.35763663 250.11920594 41.90234375 253.234375 C35.10625783 253.98272761 28.79721678 253.94664838 22.68359375 250.6953125 C16.45322906 245.58532041 12.92648464 238.38482157 9.02734375 231.484375 C8.04304111 229.75956747 7.05872804 228.0347658 6.07382202 226.31030273 C5.04752875 224.51186006 4.02370446 222.71202665 3 220.91210938 C0.88818694 217.20383679 -1.24275682 213.50679565 -3.37890625 209.8125 C-3.89712448 208.91618866 -3.89712448 208.91618866 -4.42581177 208.00177002 C-5.10786773 206.82238032 -5.7900054 205.64303786 -6.472229 204.46374512 C-8.06472735 201.71090221 -9.6560923 198.95741091 -11.24609375 196.203125 C-12.03765869 194.83317383 -12.03765869 194.83317383 -12.84521484 193.43554688 C-13.63102136 192.05448809 -14.38704873 190.65559005 -15.09765625 189.234375 C-15.75765625 189.234375 -16.41765625 189.234375 -17.09765625 189.234375 C-17.65710938 190.2553125 -18.2165625 191.27625 -18.79296875 192.328125 C-24.2451916 202.23239703 -29.86022421 212.03149366 -35.57299805 221.78759766 C-39.92075864 229.21276393 -44.23866604 236.6544263 -48.53515625 244.109375 C-49.15519531 245.18461426 -49.77523437 246.25985352 -50.4140625 247.36767578 C-53.59952536 252.89359647 -56.7803991 258.42212341 -59.95703125 263.953125 C-61.23305978 266.17188256 -62.50910131 268.39063263 -63.78515625 270.609375 C-64.40140869 271.68413086 -65.01766113 272.75888672 -65.65258789 273.86621094 C-68.58861944 278.9675414 -71.56549732 284.03153469 -74.671875 289.03125 C-75.50875854 290.38597412 -75.50875854 290.38597412 -76.36254883 291.76806641 C-77.39797523 293.43448276 -78.44509895 295.09371773 -79.5065918 296.74365234 C-82.56927027 301.67758075 -83.93379938 305.39224727 -84.09765625 311.234375 C-82.66701543 314.45331684 -80.85676391 317.02708887 -78.09765625 319.234375 C-73.88336863 320.5303841 -69.67357603 320.37932182 -65.30496216 320.37481689 C-63.95861342 320.37927358 -63.95861342 320.37927358 -62.58506572 320.3838203 C-59.57118676 320.39250642 -56.55734752 320.39401546 -53.54345703 320.39550781 C-51.38514114 320.40013598 -49.22682608 320.40516064 -47.06851196 320.41055298 C-41.20076481 320.42367757 -35.3330291 320.43012186 -29.46526957 320.43456364 C-25.80075711 320.43749377 -22.13624779 320.44159843 -18.47173691 320.44606781 C-7.01026871 320.45974181 4.45119232 320.46940941 15.91266811 320.4732697 C29.1510317 320.47775281 42.38929216 320.49531288 55.62762439 320.5242703 C65.85616642 320.54586904 76.08467939 320.55597299 86.31324399 320.55731082 C92.42457678 320.55835998 98.53581261 320.56429166 104.64712143 320.58213043 C110.39431718 320.5985802 116.14134275 320.60078163 121.88855362 320.59199142 C123.99849146 320.59121944 126.10843835 320.59558495 128.21835327 320.60544968 C131.09766679 320.61812284 133.97637334 320.61231749 136.85568237 320.60186768 C137.69148547 320.60992408 138.52728857 320.61798048 139.38841903 320.62628102 C144.30338562 320.58453346 147.62259296 319.91224889 151.90234375 317.234375 C154.5773277 314.46715023 155.72293402 312.09168411 155.90234375 308.234375 C153.59870887 302.08072059 150.34555756 296.48928257 147.08984375 290.796875 C146.5179834 289.79116455 145.94612305 288.7854541 145.35693359 287.74926758 C140.13697782 278.59268394 134.82379064 269.49098883 129.5 260.39453125 C123.89582873 250.81251524 118.36485227 241.18817336 112.82421875 231.56933594 C110.85189873 228.14683956 108.87753238 224.72552873 106.90234375 221.3046875 C100.54564221 210.29453041 94.19050723 199.28386354 87.90234375 188.234375 C87.57234375 188.234375 87.24234375 188.234375 86.90234375 188.234375 Z " fill="#E42528" transform="translate(272.09765625,85.765625)"/>
</svg>
